<svg width="135" height="149" viewBox="0 0 135 149" fill="none" xmlns="http://www.w3.org/2000/svg">
<g clip-path="url(#clip0)">
<g style="mix-blend-mode:multiply">
<path d="M107.253 115.097L63.0424 89.1989C49.8024 81.4435 28.4181 81.4435 15.2543 89.1989C2.09057 96.9544 2.17114 109.527 15.4111 117.284L59.6214 143.178C72.8614 150.933 94.2457 150.933 107.409 143.178C120.573 135.422 120.493 122.85 107.253 115.097Z" fill="#C88BF2"/>
</g>
<path d="M52.6159 36.855L52.3982 36.7423L52.2305 36.6539L51.9648 36.528L51.7732 36.4352L51.6948 36.3976C51.5162 36.3181 51.3398 36.2407 51.1656 36.1766C50.987 36.1037 50.8085 36.0352 50.6321 35.9734L50.5646 35.9491L50.373 35.8872C50.2815 35.8563 50.1922 35.8231 50.1029 35.7966L49.9679 35.759L49.7349 35.695L49.5542 35.6442L49.3691 35.6022L49.1361 35.5491L49.0119 35.5204L48.7942 35.4851C48.7027 35.4696 48.6134 35.4519 48.5241 35.4409L48.4305 35.4232L48.2127 35.4011C48.1169 35.3901 48.0211 35.379 47.9275 35.3724H47.8447H47.6531C47.5399 35.3724 47.4353 35.3613 47.3156 35.3613H47.2219C47.0978 35.3613 46.9758 35.3613 46.8561 35.3724H46.8103L46.536 35.3901L46.3639 35.4121L46.2355 35.4276C46.0787 35.4475 45.9241 35.4718 45.7716 35.5027H45.7586L45.6344 35.5315C45.5081 35.5602 45.384 35.5889 45.2599 35.6243L45.0835 35.6817L44.8461 35.7568L44.7895 35.7811C44.6697 35.8253 44.5543 35.8739 44.4389 35.9248L44.2712 35.9977C44.1014 36.0794 43.9359 36.1656 43.7747 36.2606L42.246 37.1466C42.4072 37.0516 42.5727 36.9655 42.7425 36.8859C42.797 36.8594 42.8558 36.8373 42.9124 36.813C43.0278 36.7622 43.1432 36.7114 43.2608 36.6672C43.3784 36.623 43.4568 36.6009 43.5548 36.5699L43.7334 36.5125C43.8553 36.4771 43.9816 36.4484 44.1079 36.4197L44.2299 36.3888C44.3866 36.3578 44.5456 36.3313 44.7068 36.3092L44.8352 36.2938C44.9833 36.2761 45.1314 36.2628 45.2708 36.254H45.3165C45.4689 36.254 45.6214 36.254 45.776 36.254L46.1135 36.2672L46.3879 36.2805L46.6753 36.3114C46.7777 36.3225 46.8822 36.3335 46.9889 36.349L47.2568 36.3932C47.37 36.4138 47.4832 36.4359 47.5965 36.4595L47.8295 36.5103C47.9514 36.5383 48.0734 36.5692 48.1953 36.6031L48.4305 36.6694L48.8334 36.7953L49.025 36.8594C49.4213 36.9986 49.8264 37.1621 50.2358 37.3521L50.4274 37.4427C50.5711 37.5112 50.7148 37.5841 50.8629 37.6637L51.0807 37.7764C51.2745 37.8802 51.4661 37.984 51.6621 38.0989L53.1865 37.193L52.764 36.9544L52.6159 36.855Z" fill="#5F56A1"/>
<path d="M125.127 96.4858C125.127 96.4549 125.127 96.424 125.127 96.3931C125.127 96.3268 125.127 96.2605 125.127 96.1942C125.127 96.1279 125.127 96.0417 125.127 95.9622L125.114 95.7854C125.114 95.7147 125.114 95.6462 125.096 95.5755C125.079 95.5048 125.096 95.4849 125.085 95.4385C125.085 95.3391 125.064 95.2397 125.053 95.1402C125.053 95.0828 125.053 95.0253 125.033 94.9657C125.033 94.948 125.033 94.9281 125.033 94.9082C125.009 94.7293 124.985 94.5481 124.957 94.3669C124.957 94.3404 124.957 94.3139 124.944 94.2874C124.918 94.1371 124.894 93.9847 124.865 93.8322C124.865 93.8057 124.865 93.777 124.848 93.7504C124.835 93.6775 124.82 93.6068 124.804 93.5295C124.789 93.4522 124.772 93.3527 124.752 93.2643L124.719 93.1163C124.702 93.039 124.682 92.9594 124.665 92.8821C124.648 92.8048 124.637 92.7606 124.621 92.6987C124.606 92.6368 124.584 92.5529 124.567 92.4778L124.504 92.2413C124.504 92.2016 124.484 92.1618 124.473 92.1242C124.445 92.0204 124.415 91.9165 124.384 91.8127C124.365 91.7464 124.347 91.6779 124.327 91.6116C124.327 91.5917 124.327 91.5718 124.31 91.5542C124.253 91.3663 124.195 91.1807 124.134 90.9951C124.134 90.9797 124.134 90.9642 124.116 90.9465C124.062 90.783 124.005 90.6173 123.946 90.4516C123.946 90.4251 123.927 90.4008 123.918 90.3743L123.851 90.1887C123.816 90.1003 123.785 90.0119 123.75 89.9235L123.685 89.7556L123.602 89.5501L123.544 89.3999C123.502 89.2982 123.459 89.1988 123.417 89.0994C123.395 89.0463 123.374 88.9933 123.35 88.9425C123.326 88.8917 123.334 88.9027 123.326 88.885C123.25 88.7105 123.171 88.5359 123.093 88.3636L123.082 88.3415C123.058 88.2929 123.034 88.2443 123.012 88.1957C122.949 88.0609 122.886 87.9261 122.821 87.7935L122.788 87.7317C122.736 87.6234 122.679 87.5107 122.625 87.4069L122.49 87.1461C122.49 87.1307 122.472 87.1152 122.466 87.0997C122.318 86.8191 122.163 86.5429 122.006 86.2667C121.991 86.2446 121.98 86.2203 121.967 86.1982C121.926 86.1275 121.882 86.059 121.843 85.9906C121.775 85.8779 121.71 85.7696 121.64 85.6547C121.571 85.5398 121.518 85.4558 121.455 85.3586C121.392 85.2614 121.318 85.1377 121.237 85.0294L121.168 84.9211L121.098 84.8217C120.902 84.5271 120.701 84.2362 120.495 83.9489C120.349 83.7457 120.199 83.5468 120.046 83.3502L120.027 83.3236C119.913 83.18 119.809 83.0386 119.685 82.8972L119.619 82.8155C119.484 82.6497 119.347 82.4862 119.21 82.3271L119.188 82.3028L119.062 82.1592C118.973 82.0598 118.886 81.9581 118.796 81.8609L118.744 81.8057L118.561 81.6135C118.494 81.5406 118.428 81.4676 118.361 81.3925L118.245 81.3108L118.045 81.1097L117.873 80.9374L117.773 80.8423C117.701 80.7738 117.629 80.7053 117.555 80.6391L117.405 80.4954L117.285 80.3894L117.067 80.195L116.934 80.0778L116.786 79.9563C116.717 79.8944 116.645 79.837 116.569 79.7773L116.455 79.6845L116.272 79.5409L116.07 79.3863L115.989 79.3244C115.907 79.2603 115.822 79.2029 115.739 79.1432L115.571 79.0217L115.526 78.9885C115.377 78.8847 115.225 78.7853 115.075 78.6858L115.042 78.6659C114.905 78.5776 114.768 78.4914 114.628 78.4096L114.524 78.3478L109.927 75.6544L109.907 75.5859C109.885 75.5063 109.861 75.4268 109.84 75.3472C109.787 75.1594 109.733 74.9694 109.676 74.7816C109.676 74.7595 109.665 74.7374 109.657 74.7153C109.631 74.6247 109.6 74.5341 109.572 74.4413C109.522 74.28 109.472 74.1187 109.417 73.9552C109.406 73.9243 109.398 73.8911 109.387 73.8602C109.358 73.7696 109.326 73.6812 109.295 73.5906C109.243 73.4404 109.193 73.2879 109.139 73.1377L109.099 73.0206C109.067 72.93 109.032 72.8416 109.001 72.7532C108.949 72.6162 108.899 72.477 108.847 72.34C108.831 72.2959 108.816 72.2539 108.799 72.2119C108.766 72.1235 108.729 72.0373 108.696 71.949L108.537 71.549C108.518 71.5048 108.503 71.4607 108.485 71.4165C108.448 71.3281 108.409 71.2419 108.374 71.1535L108.211 70.7669C108.191 70.7227 108.174 70.6785 108.154 70.6365L108.043 70.3868C107.982 70.2476 107.919 70.1084 107.856 69.9692L107.793 69.8212C107.76 69.7483 107.723 69.6776 107.69 69.6002C107.616 69.4433 107.542 69.2865 107.473 69.1296C107.444 69.0744 107.42 69.0191 107.392 68.9639C107.364 68.9086 107.338 68.8556 107.309 68.8004C107.211 68.6037 107.111 68.4071 107.011 68.2104C106.976 68.1463 106.946 68.0801 106.913 68.016C106.88 67.9519 106.872 67.9409 106.852 67.9033C106.789 67.784 106.724 67.6647 106.658 67.5454L106.44 67.1565L106.24 66.803C106.19 66.7168 106.144 66.6306 106.094 66.5444L106.04 66.4538C105.85 66.129 105.659 65.8087 105.46 65.4883L105.356 65.3248C105.185 65.0493 105.008 64.7753 104.827 64.5028C104.796 64.4586 104.77 64.41 104.74 64.3658L104.653 64.2399L104.435 63.9217L104.176 63.5505L103.958 63.239L103.81 63.0313C103.784 62.9937 103.753 62.9562 103.725 62.9186C103.549 62.6778 103.368 62.4369 103.187 62.2005L103.115 62.1077C103.109 62.1001 103.103 62.092 103.098 62.0834C102.906 61.8381 102.712 61.5951 102.516 61.3564L102.49 61.3233C102.442 61.2636 102.392 61.2084 102.344 61.1488C102.209 60.9852 102.072 60.8239 101.935 60.6627L101.87 60.5875L101.711 60.4086L101.334 59.9843L101.234 59.8716C101.188 59.8208 101.14 59.7744 101.094 59.7236C100.968 59.5866 100.84 59.4518 100.711 59.317L100.576 59.1712L100.469 59.0652C100.328 58.9215 100.186 58.7779 100.045 58.6387L99.8858 58.4796L99.8248 58.4222C99.6332 58.2366 99.4393 58.0532 99.2455 57.8742L99.1737 57.8079C98.9559 57.6069 98.7381 57.4102 98.5051 57.2158L98.4594 57.176L98.2961 57.0412C98.1415 56.9109 97.9847 56.7805 97.8279 56.6546L97.7343 56.575L97.5688 56.4469C97.4323 56.3379 97.2951 56.2318 97.1572 56.1287L97.02 56.0248L96.8785 55.921C96.75 55.826 96.6193 55.7332 96.4887 55.6404L96.3188 55.5189L96.2034 55.4415C96.0771 55.3531 95.9486 55.2692 95.8201 55.183C95.7548 55.141 95.6916 55.0946 95.6241 55.0526L95.5305 54.9952C95.4086 54.9157 95.2844 54.8405 95.1603 54.7632L94.9425 54.6284L94.7857 54.5334C94.6115 54.434 94.4395 54.3345 94.2675 54.2417H94.2522C94.0497 54.1291 93.845 54.0208 93.6425 53.9214L93.6076 53.9037L93.4726 53.8374C93.3267 53.7667 93.1808 53.696 93.0371 53.6297L92.9544 53.5899L92.8237 53.5325L92.4252 53.3623L92.3032 53.3093L92.2118 53.274C92.0681 53.2165 91.9243 53.1635 91.7763 53.1105L91.6456 53.0618L91.6042 53.0486C91.4039 52.9757 91.2057 52.9094 91.0076 52.8497H90.9901C90.8312 52.8011 90.6722 52.7569 90.5154 52.7127C90.5154 52.6951 90.5154 52.6752 90.5002 52.6553C90.4762 52.5691 90.4501 52.4852 90.4261 52.399C90.3608 52.1626 90.2933 51.9261 90.2236 51.6919C90.2236 51.6676 90.2105 51.6455 90.204 51.6212C90.1714 51.513 90.1343 51.4003 90.1017 51.2986C90.0407 51.102 89.9797 50.9053 89.9144 50.7109L89.8817 50.6071C89.8469 50.4988 89.8077 50.3861 89.7707 50.2845C89.7097 50.1033 89.6487 49.9199 89.5834 49.7387C89.5681 49.6967 89.5551 49.6525 89.5398 49.6106L89.4201 49.2858C89.3591 49.1222 89.3003 48.9587 89.2371 48.793L89.1849 48.6516C89.1435 48.5456 89.1 48.4307 89.0586 48.3312L88.8691 47.854L88.8103 47.7081C88.7668 47.6021 88.721 47.4872 88.6753 47.3878C88.61 47.2331 88.5468 47.0806 88.4793 46.926C88.4597 46.8774 88.4401 46.8265 88.4184 46.7779C88.3748 46.6785 88.3269 46.5791 88.2833 46.4774C88.2093 46.3117 88.1353 46.146 88.0656 45.9803L87.9959 45.8234L87.8718 45.5627C87.7847 45.3749 87.6954 45.1893 87.6061 45.0037L87.5146 44.8159C87.482 44.7474 87.4471 44.6811 87.4145 44.6148C87.2991 44.3938 87.1836 44.1552 87.0639 43.9276C87.0247 43.8525 86.9898 43.7752 86.9485 43.7067L86.8701 43.5586L86.6523 43.141C86.5674 42.9864 86.4846 42.8317 86.3975 42.677C86.3104 42.5224 86.2429 42.4008 86.1645 42.2639C86.1122 42.1688 86.06 42.0738 86.0055 41.981L85.9337 41.8595C85.7159 41.4706 85.4786 41.0862 85.2412 40.7039L85.141 40.547C84.9233 40.2068 84.7055 39.8709 84.4877 39.5373C84.4529 39.4865 84.4202 39.4312 84.3854 39.3782L84.2743 39.2147L84.0108 38.8302C83.9128 38.6844 83.8127 38.5408 83.7103 38.3883C83.608 38.2359 83.5318 38.1342 83.4403 38.0083L83.2748 37.7873C83.24 37.7409 83.2051 37.6967 83.1724 37.6503C82.9634 37.3646 82.7522 37.084 82.5388 36.8085L82.4473 36.687L82.4212 36.6538C82.1925 36.36 81.9617 36.0727 81.7287 35.7855L81.6982 35.7479L81.5283 35.5447L81.0405 34.9658L80.9665 34.8796C80.9034 34.8067 80.8402 34.7382 80.7771 34.6586C80.629 34.4885 80.4787 34.3206 80.3285 34.1549L80.213 34.0223C80.1586 33.9626 80.102 33.9052 80.0454 33.8455C79.8951 33.682 79.7427 33.5207 79.5902 33.3616C79.538 33.3064 79.4857 33.2489 79.4313 33.1937C79.3768 33.1385 79.3464 33.1075 79.3028 33.0633C79.1373 32.8932 78.9674 32.7253 78.7998 32.5574L78.6125 32.3696L78.5363 32.2988C78.3185 32.0779 78.0877 31.868 77.859 31.6603L77.7676 31.5719L77.7545 31.5609C77.4932 31.3222 77.2282 31.088 76.9597 30.8582L76.9096 30.814C76.8464 30.7588 76.7811 30.708 76.7179 30.655C76.5328 30.4981 76.3456 30.3434 76.1583 30.1909L76.0472 30.1004C75.9819 30.0473 75.9166 29.9987 75.8513 29.9479C75.6879 29.8197 75.5246 29.6916 75.3613 29.5679L75.2001 29.4441C75.1457 29.4021 75.0891 29.3646 75.0325 29.3226C74.8779 29.2099 74.7232 29.1016 74.5686 28.989L74.3683 28.8453C74.3226 28.8122 74.2768 28.7835 74.2311 28.7525L73.7738 28.4454L73.5451 28.2907L73.4341 28.2223L72.9986 27.9483L72.7394 27.787L72.55 27.6765C72.3605 27.566 72.1732 27.4555 71.986 27.3561L71.9381 27.3274L71.8553 27.2854C71.6375 27.1705 71.4328 27.0645 71.2238 26.954L71.1476 26.912L71.1149 26.8965C70.8863 26.7816 70.6598 26.6756 70.4333 26.5717L70.368 26.5408L70.2831 26.5032C70.0653 26.4016 69.8301 26.3044 69.6058 26.2116C69.3728 26.1166 69.1398 26.0304 68.909 25.9464L68.8284 25.9155L68.7696 25.8956C68.5518 25.8161 68.321 25.7409 68.0989 25.6747L68.0575 25.6614L67.9857 25.6415C67.7505 25.5708 67.5153 25.5045 67.2845 25.4449H67.2605C67.0166 25.3852 66.7771 25.33 66.5354 25.2836L66.4657 25.2659H66.3982L66.2109 25.2305L65.9626 25.1886L65.7732 25.1598C65.7296 25.1598 65.6839 25.1444 65.6382 25.14L65.5402 25.1267L65.3224 25.1024L65.1046 25.0781L64.8869 25.0604H64.7671H64.6735C64.5929 25.0604 64.5123 25.0604 64.4318 25.0472C64.3512 25.0339 64.2989 25.0472 64.2314 25.0472H63.9919H63.8002C63.6935 25.0472 63.5825 25.0472 63.4801 25.0472H63.3408C63.1883 25.0472 63.0381 25.0648 62.89 25.0781H62.8595C62.7005 25.0936 62.5416 25.1134 62.3848 25.1355L62.2432 25.1554C62.1104 25.1753 61.9754 25.1996 61.8447 25.2261H61.7707H61.7467C61.5464 25.2659 61.3482 25.3145 61.1522 25.3675L61.0477 25.3963C60.8583 25.4493 60.6688 25.5089 60.4815 25.573L60.4402 25.5863L60.3465 25.6216L60.1026 25.7144L59.9502 25.7785L59.7107 25.8824L59.5648 25.9486C59.4798 25.9884 59.3971 26.0304 59.3121 26.0746L59.1924 26.1342C59.0704 26.2005 58.9485 26.2668 58.8287 26.3375L57.2935 27.2434C57.4133 27.1727 57.5352 27.1042 57.6571 27.0402L57.7769 26.9783L58.0295 26.8546C58.0774 26.8302 58.1275 26.8082 58.1754 26.7883C58.2233 26.7684 58.3344 26.7154 58.415 26.6822L58.5674 26.6203C58.648 26.5872 58.7307 26.5563 58.8113 26.5275L58.9485 26.4789C59.1336 26.4126 59.323 26.353 59.5147 26.3L59.6192 26.2712C59.813 26.2204 60.0112 26.1718 60.2137 26.1298L60.3095 26.1121C60.4423 26.0878 60.5752 26.0635 60.7102 26.0437L60.8496 26.0216C61.0063 25.9995 61.1653 25.9818 61.3265 25.9663H61.3548C61.5028 25.9509 61.6553 25.942 61.8055 25.9332H61.9449C62.0516 25.9332 62.1627 25.9332 62.2672 25.9332C62.3303 25.9332 62.3935 25.9332 62.4566 25.9332H62.6962H62.8965H63.1404L63.3582 25.9486C63.4301 25.9486 63.5019 25.9486 63.576 25.9685L63.7937 25.9906L64.0115 26.0171L64.2467 26.0503L64.4339 26.079L64.6822 26.121L64.8695 26.1541L65.0088 26.1829C65.2484 26.2315 65.4879 26.2845 65.7318 26.3464H65.7623C65.9953 26.4038 66.2283 26.4701 66.4635 26.5408L66.5767 26.5761C66.7945 26.6446 67.0122 26.7198 67.2474 26.7971L67.389 26.8479C67.6198 26.9319 67.8506 27.0203 68.0836 27.1153H68.0945C68.3123 27.2059 68.5453 27.3053 68.7718 27.4069L68.922 27.4732C69.1398 27.5771 69.375 27.6942 69.6036 27.8002L69.7147 27.8555C69.9325 27.9615 70.1328 28.0764 70.344 28.1869L70.4747 28.2576C70.662 28.3615 70.8514 28.4786 71.0387 28.578C71.1889 28.6664 71.337 28.7592 71.4873 28.852C71.6375 28.9448 71.7813 29.0309 71.9228 29.126L72.2647 29.3469C72.4171 29.4485 72.5696 29.548 72.7198 29.6518L73.0574 29.8882C73.212 29.9987 73.3666 30.1092 73.5212 30.2241C73.6322 30.3036 73.739 30.3854 73.85 30.4694C74.0141 30.5931 74.1774 30.719 74.34 30.8472C74.4423 30.9289 74.5447 31.0085 74.647 31.0924C74.8343 31.2427 75.0216 31.3996 75.2067 31.5542L75.4506 31.7597C75.7162 31.9807 75.9819 32.2215 76.2432 32.4624L76.3499 32.5618C76.5677 32.7717 76.8029 32.9838 77.025 33.2003C77.1143 33.2843 77.2014 33.3727 77.2885 33.4589C77.4583 33.6246 77.626 33.7925 77.7915 33.9648C77.8895 34.0621 77.9853 34.1637 78.0811 34.2631C78.2336 34.4222 78.3838 34.5835 78.5341 34.7448L78.8194 35.0541C78.9696 35.2199 79.1177 35.39 79.2549 35.5579C79.342 35.6573 79.4313 35.7568 79.5184 35.8584C79.6817 36.0484 79.845 36.2429 80.0062 36.4373C80.0737 36.5169 80.1412 36.5964 80.2065 36.6781C80.4417 36.9624 80.6725 37.2519 80.899 37.5465L81.0166 37.699C81.23 37.9774 81.4412 38.258 81.6503 38.5408L81.9181 38.912L82.1882 39.2898C82.2905 39.4334 82.3907 39.5793 82.4908 39.7317L82.7522 40.114C82.824 40.2222 82.8959 40.3349 82.9699 40.4388C83.1877 40.7724 83.4055 41.1016 83.6232 41.4463L83.7234 41.6054C83.9607 41.9877 84.1894 42.3721 84.4159 42.761C84.4943 42.8958 84.5727 43.0306 84.6489 43.1653C84.7251 43.3001 84.8035 43.4393 84.8797 43.5763C84.9559 43.7133 85.0517 43.8879 85.1367 44.0425L85.3544 44.4579L85.5504 44.8335C85.668 45.0545 85.7834 45.2931 85.8988 45.5229L86.0905 45.9096C86.1798 46.0952 86.269 46.283 86.3561 46.4686L86.5521 46.8862L86.7699 47.3856L86.9681 47.8275C87.0334 47.9821 87.0987 48.1368 87.1619 48.2915C87.225 48.4461 87.2925 48.6008 87.3557 48.7577C87.4188 48.9146 87.482 49.0758 87.5451 49.2349C87.6083 49.394 87.6649 49.5421 87.7237 49.6967C87.7825 49.8514 87.8456 50.0237 87.9066 50.1872C87.9676 50.3507 88.0177 50.49 88.0721 50.6424C88.1266 50.7949 88.1962 51.0048 88.2572 51.186C88.3051 51.3274 88.3552 51.471 88.4009 51.6124C88.4663 51.809 88.5272 52.0035 88.5882 52.2001C88.6274 52.3305 88.671 52.4631 88.7102 52.5934C88.7798 52.8291 88.8473 53.0655 88.9127 53.3027C88.9432 53.4065 88.9758 53.5236 89.0041 53.6164C89.1653 53.6606 89.3286 53.707 89.4941 53.7579C89.6596 53.8087 89.8904 53.886 90.0908 53.9567L90.2628 54.0208C90.4065 54.0738 90.5481 54.1268 90.6983 54.1843L90.9161 54.2727C91.0489 54.3257 91.1818 54.3832 91.3146 54.4428L91.5324 54.54C91.6783 54.6063 91.822 54.677 91.9679 54.7477L92.1356 54.8317C92.3381 54.9333 92.5428 55.0394 92.7475 55.1521C92.9522 55.2648 93.1003 55.3487 93.2788 55.4526C93.4051 55.5255 93.5314 55.605 93.6556 55.6735L94.0279 55.8945L94.3176 56.0845L94.6616 56.343C94.7574 56.4093 94.8533 56.4756 94.9469 56.5441C95.0776 56.6347 95.2082 56.7297 95.3367 56.8247C95.4303 56.8932 95.524 56.9617 95.6154 57.0324L96.027 57.3506L96.2883 57.5583C96.4451 57.6842 96.5997 57.8124 96.7543 57.9427L96.9721 58.1195C97.1898 58.3117 97.4207 58.5084 97.6406 58.7116L97.7212 58.7868C97.915 58.9657 98.1088 59.1469 98.3004 59.3325L98.5182 59.5535C98.6598 59.6949 98.8035 59.8363 98.9428 59.9821C99.0256 60.0639 99.1062 60.1478 99.1867 60.234C99.3152 60.3666 99.4415 60.5014 99.5678 60.6384L99.8095 60.9013C99.9358 61.0405 100.06 61.1819 100.186 61.3255L100.404 61.5796C100.541 61.7387 100.678 61.9022 100.813 62.0657L100.985 62.2712C101.181 62.5128 101.375 62.7558 101.567 63.0003C101.597 63.0379 101.626 63.0777 101.656 63.1174C101.839 63.3539 102.018 63.5925 102.196 63.8355L102.427 64.1537C102.501 64.2576 102.577 64.3614 102.645 64.4675C102.712 64.5735 102.817 64.7127 102.902 64.8387L103.12 65.1546L103.296 65.4198C103.474 65.6916 103.651 65.9633 103.823 66.2395C103.858 66.2948 103.895 66.35 103.927 66.4052C104.126 66.7234 104.319 67.0453 104.507 67.3708C104.574 67.4857 104.642 67.6028 104.707 67.7199C104.772 67.837 104.842 67.9541 104.907 68.0734C104.973 68.1927 105.049 68.332 105.125 68.4623L105.317 68.8203C105.371 68.9219 105.421 69.0235 105.476 69.1252L105.776 69.7173C105.831 69.8256 105.883 69.9383 105.937 70.0443C106.014 70.2012 106.088 70.3603 106.155 70.5172C106.212 70.6343 106.266 70.7536 106.321 70.8707C106.375 70.9878 106.447 71.1513 106.508 71.2905C106.569 71.4297 106.621 71.5424 106.676 71.6683L106.839 72.0572L107.002 72.4505C107.057 72.5853 107.109 72.7179 107.161 72.8527C107.213 72.9874 107.264 73.1112 107.311 73.2415C107.359 73.3719 107.416 73.5177 107.466 73.6569L107.605 74.0414C107.658 74.1916 107.71 74.3419 107.76 74.4943C107.81 74.6468 107.843 74.7374 107.882 74.8589C107.936 75.0202 107.987 75.1837 108.037 75.345C108.071 75.4577 108.108 75.566 108.141 75.6853C108.2 75.8731 108.252 76.0631 108.307 76.2531C108.335 76.3548 108.365 76.4564 108.392 76.558L112.989 79.2493C113.163 79.3509 113.335 79.4592 113.507 79.5696L113.54 79.5895C113.707 79.6978 113.875 79.8105 114.04 79.9254L114.208 80.0469L114.541 80.2922L114.742 80.4468C114.84 80.5242 114.94 80.6015 115.038 80.6833L115.255 80.86C115.349 80.9396 115.443 81.0191 115.534 81.1009L115.752 81.2931L116.024 81.5428L116.242 81.7482C116.333 81.8366 116.425 81.925 116.514 82.0156L116.714 82.2145L116.993 82.5061C117.054 82.5702 117.115 82.6343 117.174 82.7006C117.281 82.8155 117.392 82.9348 117.492 83.0541L117.618 83.1955C117.763 83.3649 117.909 83.5372 118.054 83.7125L118.117 83.7943C118.239 83.9445 118.361 84.097 118.478 84.2494C118.629 84.4439 118.777 84.6405 118.914 84.8416V84.8526C119.132 85.1377 119.321 85.4315 119.519 85.7254L119.656 85.9353C119.728 86.0436 119.798 86.1563 119.874 86.2623C119.95 86.3684 120.001 86.459 120.062 86.5584L120.262 86.8943L120.425 87.1727C120.582 87.4466 120.737 87.725 120.885 88.0034C120.939 88.1051 120.991 88.2089 121.044 88.3128C121.096 88.4166 121.155 88.5337 121.209 88.6376L121.427 89.0972C121.449 89.148 121.475 89.1966 121.497 89.2474C121.588 89.4463 121.677 89.6451 121.764 89.8462C121.788 89.8992 121.81 89.9523 121.832 90.0053C121.895 90.1555 121.958 90.3036 122.017 90.4472C122.045 90.5157 122.074 90.5842 122.1 90.6527C122.156 90.7985 122.211 90.9421 122.265 91.0946L122.333 91.2802C122.402 91.4702 122.468 91.6602 122.533 91.8524C122.533 91.8679 122.544 91.8834 122.548 91.9011C122.618 92.1088 122.681 92.3142 122.744 92.5219C122.764 92.5904 122.781 92.6567 122.801 92.723C122.842 92.8666 122.884 93.0102 122.923 93.1539C122.943 93.2312 122.962 93.3107 122.984 93.3903L123.082 93.7902C123.099 93.8698 123.119 93.9471 123.136 94.0266C123.167 94.1636 123.195 94.3006 123.223 94.4376C123.236 94.5105 123.252 94.5834 123.267 94.6586C123.3 94.8375 123.332 95.0187 123.361 95.1977L123.374 95.2728C123.406 95.4783 123.432 95.6816 123.459 95.8848C123.459 95.9423 123.469 95.9997 123.476 96.0572C123.493 96.203 123.509 96.3489 123.52 96.4991C123.52 96.5676 123.533 96.6383 123.537 96.7068C123.537 96.8438 123.554 96.9808 123.561 97.1178C123.561 97.1841 123.561 97.2504 123.561 97.3166C123.561 97.5089 123.574 97.7033 123.572 97.8955V98.7418C123.572 98.9429 123.572 99.1395 123.559 99.3339C123.559 99.3892 123.559 99.4422 123.559 99.4974C123.559 99.63 123.541 99.7626 123.53 99.893C123.53 99.9681 123.515 100.043 123.509 100.114C123.496 100.224 123.485 100.335 123.469 100.441C123.454 100.547 123.448 100.598 123.435 100.677C123.422 100.757 123.402 100.874 123.385 100.969C123.367 101.064 123.352 101.144 123.334 101.228C123.317 101.311 123.295 101.402 123.276 101.486C123.256 101.57 123.226 101.685 123.199 101.782C123.173 101.879 123.158 101.935 123.134 102.003C123.099 102.119 123.062 102.234 123.023 102.348C123.001 102.407 122.982 102.469 122.96 102.529C122.888 102.717 122.814 102.9 122.731 103.077C122.668 103.212 122.603 103.344 122.533 103.472C122.463 103.603 122.387 103.731 122.315 103.852L122.267 103.925C122.206 104.016 122.148 104.104 122.085 104.19L122.006 104.292C121.947 104.369 121.886 104.445 121.823 104.513C121.799 104.54 121.777 104.571 121.751 104.597C121.666 104.694 121.579 104.789 121.488 104.878L121.449 104.915C121.368 104.993 121.288 105.065 121.203 105.136C121.174 105.163 121.142 105.187 121.111 105.214C121.039 105.271 120.967 105.326 120.893 105.379L120.802 105.448C120.7 105.518 120.595 105.587 120.486 105.651L122.01 104.745C122.117 104.683 122.228 104.613 122.326 104.542L122.418 104.476C122.492 104.423 122.564 104.365 122.635 104.308L122.727 104.232C122.81 104.162 122.892 104.087 122.971 104.012L123.012 103.974C123.101 103.883 123.191 103.791 123.276 103.691L123.348 103.607C123.411 103.534 123.472 103.459 123.53 103.386C123.557 103.353 123.583 103.32 123.607 103.285C123.669 103.198 123.73 103.109 123.79 103.019C123.807 102.996 123.823 102.972 123.838 102.947L123.853 102.927C123.925 102.81 123.996 102.69 124.071 102.569C124.136 102.447 124.201 102.321 124.26 102.193C124.261 102.186 124.261 102.18 124.26 102.173C124.343 101.999 124.417 101.815 124.478 101.625C124.483 101.609 124.49 101.594 124.497 101.579C124.513 101.535 124.526 101.488 124.541 101.444C124.58 101.331 124.617 101.223 124.652 101.102C124.663 101.071 124.674 101.042 124.682 101.011C124.691 100.98 124.704 100.92 124.717 100.876C124.743 100.777 124.77 100.68 124.793 100.578C124.793 100.538 124.815 100.501 124.824 100.459C124.833 100.417 124.841 100.366 124.85 100.322C124.869 100.235 124.886 100.149 124.902 100.063L124.929 99.9305C124.929 99.8775 124.944 99.8223 124.952 99.7692C124.961 99.7162 124.976 99.6123 124.987 99.535C124.987 99.493 125 99.4555 125.005 99.4135C125.009 99.3715 125.018 99.2765 125.027 99.208C125.035 99.1395 125.042 99.06 125.048 98.987C125.048 98.9561 125.048 98.9274 125.048 98.8965C125.048 98.797 125.061 98.6932 125.068 98.5893C125.068 98.5363 125.068 98.4833 125.068 98.428C125.069 98.4148 125.069 98.4015 125.068 98.3883C125.077 98.2159 125.081 98.0414 125.081 97.8646V96.9808C125.133 96.8107 125.131 96.6494 125.127 96.4858Z" fill="#25006B"/>
<path d="M123.591 97.3897C123.591 97.3588 123.591 97.3279 123.591 97.2969C123.591 97.2306 123.591 97.1644 123.591 97.0981C123.591 97.0318 123.591 96.9456 123.591 96.8661C123.591 96.7865 123.591 96.749 123.578 96.6893C123.565 96.6296 123.578 96.5501 123.561 96.4683C123.544 96.3866 123.561 96.3778 123.561 96.3314C123.561 96.2319 123.539 96.1325 123.528 96.0331C123.528 95.9756 123.517 95.9182 123.511 95.8585V95.8033C123.487 95.6221 123.463 95.4409 123.435 95.2597V95.2487L123.422 95.1691C123.398 95.0167 123.372 94.8664 123.343 94.714C123.343 94.6875 123.332 94.6609 123.328 94.6322C123.313 94.5615 123.298 94.4886 123.284 94.4113C123.271 94.3339 123.25 94.2345 123.23 94.1461C123.23 94.0975 123.208 94.0489 123.197 94.0003C123.186 93.9517 123.16 93.8412 123.143 93.7639C123.125 93.6865 123.117 93.6423 123.102 93.5827C123.086 93.523 123.062 93.4369 123.045 93.3617C123.027 93.2866 123.004 93.2027 122.982 93.1231C122.982 93.0833 122.964 93.0458 122.953 93.006C122.925 92.9044 122.892 92.8005 122.864 92.6967L122.805 92.4934L122.788 92.4359C122.731 92.2503 122.673 92.0647 122.612 91.8791C122.607 91.8611 122.601 91.8434 122.594 91.8261C122.54 91.6626 122.483 91.4991 122.426 91.3356L122.396 91.2561L122.328 91.0704L122.23 90.8053C122.209 90.7501 122.185 90.6948 122.163 90.6374L122.082 90.4319C122.061 90.3833 122.043 90.3325 122.021 90.2816C121.98 90.1822 121.939 90.0828 121.895 89.9834C121.873 89.9303 121.852 89.8773 121.828 89.8243C121.828 89.8044 121.812 89.7867 121.804 89.7668C121.73 89.5923 121.651 89.4199 121.571 89.2454V89.2255C121.549 89.1747 121.523 89.1239 121.499 89.0752C121.438 88.9427 121.375 88.8079 121.309 88.6775C121.309 88.6554 121.288 88.6355 121.279 88.6134L121.113 88.2909L120.98 88.0279L120.954 87.9815C120.806 87.7031 120.652 87.4247 120.495 87.1507L120.456 87.08L120.332 86.8723L120.131 86.5365L119.946 86.2404L119.728 85.9134L119.659 85.8051C119.635 85.7698 119.611 85.7388 119.589 85.7035C119.393 85.4096 119.193 85.1157 118.984 84.8307C118.836 84.6297 118.687 84.4308 118.535 84.2341L118.515 84.2076C118.404 84.064 118.298 83.9226 118.176 83.7812L118.11 83.6994C117.975 83.5337 117.838 83.3724 117.699 83.2111L117.679 83.189C117.636 83.1382 117.592 83.0918 117.549 83.0432C117.461 82.9438 117.374 82.8443 117.285 82.7471L117.235 82.6919C117.174 82.6256 117.113 82.5615 117.05 82.4975L116.85 82.2765C116.826 82.25 116.799 82.2257 116.773 82.2014C116.708 82.1329 116.64 82.0666 116.573 82.0003L116.401 81.8258L116.301 81.733L116.083 81.5275L115.931 81.3861C115.891 81.3485 115.85 81.3153 115.811 81.28L115.593 81.0856L115.458 80.9662L115.312 80.8469C115.241 80.7851 115.168 80.7254 115.094 80.668C115.057 80.637 115.02 80.6039 114.983 80.5752L114.798 80.4315L114.598 80.2769L114.515 80.2128C114.435 80.1509 114.35 80.0935 114.267 80.0338L114.097 79.9123L114.053 79.8792C113.903 79.7753 113.753 79.6737 113.601 79.5764L113.566 79.5566C113.428 79.4682 113.291 79.382 113.154 79.3003L113.05 79.2384L108.45 76.545C108.45 76.5207 108.437 76.4964 108.433 76.4743C108.411 76.3947 108.385 76.3152 108.363 76.2356C108.311 76.0478 108.257 75.86 108.2 75.67C108.2 75.6479 108.189 75.6258 108.18 75.6037C108.154 75.5131 108.124 75.4225 108.095 75.3319C108.045 75.1684 107.995 75.0071 107.941 74.8436C107.93 74.8127 107.921 74.7795 107.91 74.7486C107.882 74.6602 107.849 74.5718 107.819 74.4813C107.769 74.331 107.717 74.1786 107.662 74.0261L107.623 73.909L107.525 73.6438C107.475 73.5046 107.423 73.3654 107.37 73.2285C107.355 73.1843 107.34 73.1423 107.322 73.1003C107.29 73.0119 107.255 72.9257 107.22 72.8396C107.168 72.7048 107.116 72.57 107.061 72.4374L107.009 72.3049L106.898 72.0441L106.734 71.6553C106.715 71.6111 106.697 71.5669 106.678 71.5249C106.643 71.4409 106.604 71.3592 106.567 71.2774C106.506 71.136 106.443 70.9968 106.379 70.8576L106.316 70.7184C106.284 70.6455 106.249 70.5748 106.214 70.4975C106.14 70.3384 106.066 70.1815 105.996 70.0246C105.968 69.9694 105.944 69.9142 105.916 69.8589C105.887 69.8037 105.861 69.7506 105.835 69.6976C105.735 69.4988 105.635 69.2999 105.532 69.1032L105.437 68.911L105.376 68.8005C105.312 68.679 105.247 68.5597 105.182 68.4404C105.116 68.3211 105.042 68.1819 104.964 68.0537C104.886 67.9256 104.831 67.8151 104.764 67.698C104.696 67.5809 104.668 67.5256 104.618 67.4417L104.563 67.3511C104.376 67.0256 104.183 66.703 103.984 66.3833L103.882 66.222C103.708 65.9458 103.531 65.6696 103.35 65.3979L103.263 65.2609L103.176 65.1349L102.958 64.8168L102.704 64.4478C102.63 64.3417 102.556 64.2268 102.486 64.134C102.436 64.0655 102.388 63.9948 102.34 63.9263L102.255 63.8136C102.076 63.5728 101.898 63.3342 101.715 63.0977L101.643 63.0027L101.626 62.9806C101.434 62.7361 101.24 62.4931 101.044 62.2515L101.018 62.2183L100.874 62.0482C100.737 61.8847 100.602 61.7212 100.463 61.5599L100.4 61.4848C100.347 61.4229 100.293 61.3655 100.241 61.3058C100.117 61.1622 99.9903 61.0208 99.864 60.8816L99.7639 60.7689L99.6223 60.6186C99.496 60.4839 99.3697 60.3469 99.2412 60.2143L99.1062 60.0685L98.9995 59.9624L98.564 59.5338L98.4072 59.3769L98.344 59.3172C98.1524 59.1338 97.9608 58.9526 97.767 58.7737L97.6929 58.7052C97.4752 58.5041 97.2574 58.3075 97.0244 58.113L96.9808 58.0732L96.8175 57.9385C96.6607 57.8081 96.5061 57.6777 96.3493 57.5518L96.2535 57.4723L96.088 57.3441L95.6764 57.0259L95.5414 56.9199L95.3977 56.8182C95.2692 56.7232 95.1386 56.6282 95.0079 56.5376L94.8402 56.4139L94.7248 56.3366L94.3394 56.0802L94.1456 55.9499L94.0519 55.8902L93.6796 55.6693L93.4618 55.5323L93.3028 55.4395C93.1286 55.3378 92.9566 55.2406 92.7867 55.1456H92.7693C92.5668 55.0329 92.3621 54.9247 92.1596 54.823L92.1247 54.8053C92.079 54.781 92.0333 54.7634 91.9875 54.7413C91.8416 54.6684 91.6979 54.5977 91.552 54.5203L91.4693 54.4805L91.3386 54.4253C91.2058 54.3657 91.0708 54.3082 90.9379 54.253C90.8987 54.2353 90.8573 54.2154 90.816 54.1999L90.7245 54.1646C90.5786 54.1071 90.4349 54.0519 90.289 53.9989L90.1627 53.9503L90.1235 53.937C89.9231 53.8663 89.7228 53.8 89.5246 53.7381H89.5007C89.3461 53.6895 89.1936 53.6453 89.0412 53.6034C89.0341 53.5831 89.0283 53.5625 89.0238 53.5415C88.9998 53.4553 88.9737 53.3714 88.9497 53.2852C88.8844 53.0488 88.8169 52.8146 88.7472 52.5803C88.7472 52.556 88.7342 52.5317 88.7254 52.5096C88.6928 52.4014 88.6579 52.2887 88.6231 52.1848C88.5643 51.9904 88.5033 51.7937 88.438 51.5993L88.4053 51.4955C88.3705 51.3872 88.3313 51.2745 88.2943 51.1729C88.2333 50.9917 88.1723 50.8105 88.1092 50.6293C88.0918 50.5851 88.0787 50.5432 88.0634 50.499C88.0242 50.3907 87.9829 50.278 87.9437 50.1764C87.8827 50.0129 87.8239 49.8471 87.7608 49.6836L87.7085 49.5422C87.6671 49.434 87.6236 49.3213 87.5822 49.2219C87.519 49.0628 87.4581 48.9037 87.3927 48.7446C87.3731 48.696 87.3557 48.6474 87.3339 48.5988C87.2904 48.4905 87.2447 48.3778 87.2011 48.2784L87.0051 47.8166C86.9833 47.768 86.9637 47.7172 86.942 47.6685C86.8984 47.5691 86.8527 47.4697 86.807 47.3681C86.7329 47.2023 86.6611 47.0366 86.5892 46.8709L86.5173 46.714C86.4781 46.6279 86.4346 46.5395 86.3932 46.4533C86.3061 46.2655 86.2168 46.0799 86.1275 45.8943C86.097 45.8324 86.0687 45.7683 86.0383 45.7065C86.0078 45.6446 85.9707 45.5739 85.9359 45.5076C85.8227 45.2867 85.7051 45.0458 85.5875 44.8182L85.4721 44.5973C85.4459 44.5487 85.4176 44.5001 85.3915 44.4493C85.3196 44.3101 85.2434 44.1709 85.1737 44.0339L84.9189 43.5676L84.6859 43.1545C84.6315 43.0617 84.5814 42.9667 84.527 42.8716C84.503 42.8319 84.4769 42.7921 84.4551 42.7523C84.2286 42.3635 83.9978 41.9783 83.7626 41.5967L83.6625 41.4377C83.4447 41.0996 83.2269 40.7615 83.0092 40.4301C82.9743 40.3771 82.9417 40.3218 82.9046 40.271C82.8676 40.2202 82.8306 40.1605 82.7936 40.1075L82.5323 39.7208L82.2318 39.2789L81.8964 38.8879L81.7309 38.6559L81.6264 38.5189C81.4188 38.2346 81.2075 37.9532 80.9927 37.6748C80.9622 37.635 80.9339 37.5931 80.9012 37.5533C80.8686 37.5135 80.8838 37.5334 80.8773 37.5224C80.6493 37.2278 80.4185 36.9383 80.1848 36.654C80.1739 36.654 80.1652 36.6297 80.1543 36.6165L79.9844 36.4154C79.8211 36.2187 79.66 36.0243 79.4945 35.8343L79.4226 35.7481L79.2332 35.5271C79.0851 35.357 78.9348 35.1891 78.7846 35.0212C78.7454 34.9792 78.7084 34.935 78.6692 34.8908C78.63 34.8466 78.5559 34.7737 78.5015 34.714C78.3512 34.5505 78.1988 34.3892 78.0463 34.2302C77.9941 34.1749 77.9418 34.1175 77.8874 34.0622L77.7589 33.9319L77.2559 33.4259L77.0686 33.2381L76.9924 33.1674C76.7746 32.9464 76.546 32.7409 76.3217 32.5332L76.2237 32.4404H76.2084C75.9471 32.2018 75.6829 31.9676 75.4158 31.7378L75.3657 31.6936C75.3025 31.6384 75.2372 31.5876 75.1719 31.5345C74.9868 31.3776 74.8017 31.223 74.6144 31.0705L74.5033 30.9799C74.438 30.9269 74.3727 30.8783 74.3052 30.8275C74.144 30.6993 73.9807 30.5712 73.8152 30.4474C73.7629 30.4077 73.7107 30.3635 73.6562 30.3237C73.6018 30.2839 73.543 30.2442 73.4886 30.2022C73.334 30.0895 73.1793 29.9812 73.0247 29.8685L72.8244 29.7249L72.6872 29.6321C72.5348 29.5283 72.3845 29.4266 72.2321 29.3272L71.9991 29.1703L71.888 29.1018L71.4525 28.8278L71.1933 28.6665L71.0039 28.5561C70.8144 28.4456 70.6272 28.3351 70.4399 28.2357L70.3898 28.207L70.307 28.1628C70.0893 28.0479 69.8868 27.9418 69.6799 27.8335L69.6015 27.7916L69.5667 27.7761C69.3387 27.6612 69.1123 27.5529 68.8872 27.4513L68.8197 27.4182L68.7348 27.3828C68.517 27.2812 68.2819 27.1817 68.0576 27.0911C67.8246 26.9961 67.5937 26.9078 67.3629 26.826L67.2823 26.7951L67.2213 26.773C67.0036 26.6956 66.7728 26.6205 66.5506 26.552L66.5093 26.5388L66.4178 26.5145C66.1826 26.4438 65.9474 26.3775 65.7166 26.32H65.6927C65.4488 26.2582 65.207 26.2051 64.9675 26.1565L64.8978 26.141L64.8303 26.1278L64.643 26.0946L64.3948 26.0527L64.2075 26.0239L64.0703 26.0018H63.9723L63.7546 25.9753L63.5368 25.9532C63.4649 25.9532 63.3931 25.94 63.319 25.9333H63.1993H63.1056H62.8639H62.6636H62.228C62.1206 25.9333 62.0139 25.9333 61.9079 25.9333H61.7686C61.6161 25.9333 61.4659 25.951 61.3178 25.9665H61.2873C61.1262 25.982 60.9694 25.9996 60.8126 26.0217L60.671 26.0438C60.5382 26.0637 60.4054 26.0858 60.2725 26.1123L60.1963 26.1256H60.1745C59.9742 26.1676 59.776 26.214 59.58 26.267L59.4755 26.2957C59.2839 26.3487 59.0966 26.4084 58.9093 26.4747C58.8952 26.4781 58.8814 26.4825 58.868 26.4879L58.7743 26.5233C58.6916 26.552 58.611 26.583 58.5304 26.6161L58.378 26.678C58.2974 26.7111 58.2168 26.7465 58.1384 26.784C58.0601 26.8216 58.0405 26.826 57.9925 26.8503L57.7399 26.974L57.6202 27.0359C57.4982 27.1 57.3763 27.1685 57.2565 27.2392L18.8888 49.8228C19.0086 49.7521 19.1306 49.6859 19.2525 49.6196L19.3723 49.5599C19.455 49.5157 19.54 49.4737 19.6249 49.434L19.7708 49.3677L20.0103 49.2638L20.1627 49.202L20.4066 49.107L20.5417 49.0583C20.7289 48.9943 20.9162 48.9346 21.1078 48.8816L21.2124 48.8529C21.4084 48.7998 21.6065 48.7512 21.8069 48.7114L21.9049 48.6938C22.0377 48.6673 22.1705 48.6452 22.3034 48.6231L22.4449 48.6032C22.5973 48.5811 22.7498 48.5634 22.9044 48.5479L3.86972 59.7724C4.03087 59.6774 4.19636 59.5912 4.36622 59.5117C4.42066 59.4851 4.47946 59.4631 4.5339 59.4387C4.64931 59.3879 4.7669 59.3371 4.8845 59.2929L5.17848 59.1935C5.23727 59.1758 5.29607 59.1537 5.35704 59.1382C5.47899 59.1029 5.60529 59.072 5.73159 59.0432L5.85354 59.0145C6.01033 58.9814 6.1693 58.9571 6.33044 58.935L6.4611 58.9195C6.60628 58.9018 6.75145 58.8886 6.89663 58.8797H6.94236C7.09479 58.8797 7.24723 58.8797 7.40401 58.8797C7.51507 58.8797 7.62178 58.8797 7.73937 58.8908L8.01375 58.9062C8.10957 58.9062 8.20538 58.9261 8.3012 58.935L8.61478 58.9747L8.88263 59.0189C8.99586 59.0388 9.10039 59.0587 9.22234 59.083C9.30073 59.0985 9.37695 59.1184 9.45534 59.136L9.82118 59.2288L10.0564 59.2929C10.1892 59.3327 10.3242 59.3769 10.4592 59.4211C10.5224 59.441 10.5877 59.4608 10.6509 59.4851C11.0486 59.6236 11.4522 59.7871 11.8616 59.9757L12.0533 60.0685C12.197 60.137 12.3429 60.2077 12.4888 60.2894L12.7065 60.4021C12.9004 60.5059 13.092 60.612 13.288 60.7269L30.9551 50.3089L31.1881 50.4194L31.2992 50.4769C31.5169 50.5829 31.7173 50.6978 31.9285 50.8083L32.0613 50.879C32.2486 50.9829 32.4359 51.0889 32.6253 51.1994C32.7756 51.2878 32.9237 51.3806 33.0739 51.4734C33.2242 51.5662 33.3679 51.6523 33.5094 51.7473L33.8535 51.9683L34.3086 52.2732L34.6462 52.5096C34.8008 52.6201 34.9554 52.7306 35.11 52.8455L35.4388 53.0907C35.6021 53.2145 35.7655 53.3404 35.9266 53.4686C36.0311 53.5503 36.1335 53.6299 36.2358 53.7138C36.4231 53.8641 36.6082 54.0188 36.7933 54.1756C36.8761 54.2441 36.9566 54.3104 37.0372 54.3811C37.3051 54.6021 37.5686 54.8429 37.832 55.0837L37.9409 55.1854C38.1587 55.3931 38.3917 55.6052 38.6138 55.8195L38.8773 56.0802C39.045 56.246 39.2148 56.4139 39.3803 56.5862L39.6678 56.8845C39.8202 57.0436 39.9727 57.2027 40.1229 57.3662L40.406 57.6755C40.5563 57.8412 40.7065 58.0092 40.8546 58.1793C40.9417 58.2787 41.031 58.3782 41.1181 58.4798C41.2814 58.6698 41.4426 58.8643 41.6059 59.0587L41.8062 59.2995C42.0385 59.5853 42.2693 59.874 42.4987 60.1657L42.6141 60.3203C42.8319 60.5965 43.0496 60.8794 43.2478 61.1622L43.5178 61.5312C43.6071 61.6571 43.6986 61.7831 43.7879 61.9112L44.0884 62.3531C44.1755 62.4813 44.2648 62.6094 44.3497 62.7376L44.5675 63.0624C44.7867 63.3938 45.0044 63.7297 45.2207 64.0699L45.3209 64.2268C45.5561 64.6091 45.7869 64.9957 46.0134 65.3824L46.2442 65.7867C46.3226 65.9237 46.401 66.0607 46.4772 66.1999L46.732 66.6661C46.8061 66.8031 46.8823 66.9423 46.9498 67.0793C47.0173 67.2163 47.0804 67.3312 47.1458 67.4571C47.2634 67.6781 47.381 67.9145 47.4942 68.1443C47.5595 68.2725 47.6227 68.4028 47.6858 68.5332C47.7773 68.7188 47.8644 68.9044 47.9515 69.09C48.0168 69.2292 48.0843 69.3684 48.1475 69.5098C48.2106 69.6512 48.2956 69.839 48.3652 70.0047C48.4349 70.1705 48.4981 70.3052 48.5634 70.4466L48.7594 70.9106C48.8225 71.0653 48.8879 71.22 48.951 71.3769C49.0142 71.5337 49.0773 71.695 49.1405 71.8541C49.2036 72.0132 49.2624 72.1612 49.3212 72.3159C49.38 72.4706 49.4432 72.6429 49.502 72.8064C49.5608 72.9699 49.613 73.1091 49.6675 73.2616C49.7219 73.4141 49.7916 73.6217 49.8526 73.8029C49.9005 73.9465 49.9506 74.088 49.9963 74.2316C50.0616 74.426 50.1226 74.6205 50.1814 74.8171C50.2228 74.9475 50.2663 75.08 50.3055 75.2104C50.3752 75.4446 50.4405 75.6788 50.508 75.913C50.5363 76.0191 50.569 76.134 50.5995 76.2356C50.7585 76.2776 50.9196 76.3262 51.0829 76.377C51.2811 76.4367 51.4814 76.503 51.6818 76.5759L51.8473 76.6356C51.9932 76.6886 52.1369 76.7438 52.2828 76.8035L52.5006 76.8896L52.8991 77.062L53.1168 77.1592C53.2627 77.2255 53.4086 77.2962 53.5524 77.3669L53.7244 77.4509C53.9269 77.5525 54.1316 77.6586 54.3363 77.7713C54.541 77.8839 54.6891 77.9679 54.8676 78.0718C54.9939 78.1469 55.1203 78.2264 55.2444 78.3038C55.3685 78.3811 55.4926 78.454 55.6167 78.5247L55.9064 78.7147C56.0349 78.7987 56.1612 78.8827 56.2875 78.971C56.4138 79.0594 56.4791 79.1036 56.5727 79.1699C56.7034 79.2627 56.834 79.3555 56.9647 79.4527L57.2413 79.6582L57.6528 79.9764L57.9142 80.1841C58.0709 80.31 58.2256 80.4404 58.3802 80.5707C58.4498 80.6304 58.5217 80.6878 58.5979 80.7475C58.8157 80.9397 59.0465 81.1364 59.2665 81.3374L59.3492 81.417C59.543 81.5938 59.7347 81.7749 59.9263 81.9605L60.144 82.1815L60.5796 82.6079L60.8213 82.8598C60.9498 82.9946 61.0761 83.1294 61.2024 83.2664L61.4441 83.5293C61.5704 83.6685 61.6945 83.8099 61.8208 83.9513L62.0386 84.2054C62.178 84.3667 62.313 84.5302 62.448 84.6937L62.62 84.8992C62.816 85.1378 63.0098 85.3809 63.2014 85.6262L63.2907 85.7455C63.4736 85.9819 63.6522 86.2205 63.8308 86.4614L64.0616 86.7795C64.1378 86.8834 64.2119 86.9894 64.2794 87.0933L64.5363 87.4623C64.6082 87.5683 64.6822 87.6832 64.7541 87.7827L64.9283 88.0456C65.1069 88.3166 65.2833 88.5906 65.4575 88.8675C65.4923 88.9228 65.5271 88.9758 65.5598 89.031C65.758 89.3514 65.9518 89.6718 66.1391 89.9966C66.2066 90.1137 66.2741 90.2286 66.3394 90.3457C66.4047 90.4628 66.4744 90.5799 66.5397 90.6992C66.6051 90.8186 66.6813 90.9578 66.7575 91.0881L66.9491 91.4461C67.0036 91.5477 67.0558 91.6493 67.1081 91.751C67.2083 91.9476 67.3106 92.1443 67.4086 92.3431L67.5698 92.6702C67.646 92.827 67.72 92.9861 67.7875 93.143L67.953 93.4965C68.0162 93.6379 68.0793 93.7771 68.1403 93.9163C68.2013 94.0555 68.2535 94.1682 68.308 94.2964L68.4713 94.683L68.6346 95.0785C68.6891 95.2111 68.7413 95.3459 68.7936 95.4785C68.8459 95.611 68.8959 95.7392 68.9439 95.8674C68.9918 95.9955 69.0484 96.1458 69.0985 96.2827L69.2378 96.6672C69.2901 96.8175 69.3424 96.9699 69.3924 97.1202C69.4425 97.2704 69.4752 97.3632 69.5144 97.4847C69.5688 97.646 69.6189 97.8095 69.669 97.973C69.7038 98.0857 69.7409 98.194 69.7735 98.3111C69.8301 98.4996 69.8846 98.6875 69.9369 98.8745C69.9652 98.9762 69.9978 99.08 70.024 99.1839L74.6253 101.86C74.7973 101.961 74.9715 102.067 75.1414 102.178L75.1762 102.2C75.3439 102.308 75.5094 102.421 75.6749 102.536L75.8448 102.659C75.9558 102.739 76.0625 102.819 76.1758 102.903C76.2433 102.953 76.3108 103.004 76.3761 103.057L76.6723 103.291L76.89 103.47L77.1709 103.709L77.3887 103.903L77.6609 104.153L77.8787 104.359C77.9701 104.445 78.0616 104.535 78.1509 104.624C78.2402 104.712 78.2859 104.756 78.3512 104.825C78.4165 104.893 78.5363 105.017 78.63 105.116L78.8129 105.311C78.9196 105.426 79.0306 105.543 79.1286 105.662C79.17 105.711 79.2136 105.757 79.2571 105.806C79.403 105.976 79.5489 106.148 79.6926 106.323C79.7144 106.352 79.7362 106.38 79.7601 106.407C79.8799 106.557 79.9997 106.707 80.1173 106.849C80.2697 107.043 80.42 107.242 80.5659 107.443C80.7836 107.728 80.9753 108.02 81.1712 108.316L81.3106 108.524L81.5284 108.853L81.7135 109.149C81.781 109.259 81.8463 109.37 81.9138 109.485L82.0771 109.761C82.2339 110.037 82.3885 110.313 82.5366 110.594C82.5911 110.696 82.6433 110.799 82.6956 110.901L82.8611 111.226C82.9373 111.378 83.0092 111.533 83.0788 111.688C83.1006 111.736 83.1268 111.785 83.1485 111.836C83.2422 112.035 83.3315 112.236 83.4164 112.434C83.4403 112.487 83.4621 112.543 83.4839 112.596C83.547 112.744 83.6102 112.894 83.6712 113.038L83.7517 113.243C83.8084 113.387 83.8628 113.53 83.9172 113.685L83.9847 113.871C84.0544 114.061 84.1198 114.253 84.1851 114.443L84.2003 114.492C84.27 114.699 84.3332 114.907 84.3963 115.115L84.4551 115.316C84.4965 115.457 84.5357 115.601 84.5749 115.744C84.5945 115.822 84.6163 115.901 84.6359 115.981C84.6707 116.116 84.7034 116.248 84.7338 116.381C84.7534 116.46 84.7709 116.54 84.7883 116.617C84.8188 116.756 84.8471 116.893 84.8754 117.03C84.8885 117.101 84.9037 117.174 84.9189 117.251C84.9516 117.43 84.9843 117.609 85.0126 117.788L85.0257 117.865C85.0583 118.071 85.0844 118.274 85.1106 118.478C85.1106 118.535 85.1215 118.592 85.128 118.65C85.1454 118.796 85.1607 118.942 85.1716 119.092C85.1716 119.16 85.1846 119.231 85.189 119.299C85.1999 119.436 85.2064 119.573 85.2129 119.71C85.2129 119.777 85.2129 119.843 85.2129 119.907C85.2129 120.102 85.226 120.296 85.2238 120.488V121.334C85.2238 121.538 85.2238 121.734 85.2107 121.929C85.2107 121.984 85.2107 122.037 85.1999 122.09C85.1999 122.225 85.1846 122.357 85.1716 122.488C85.1716 122.563 85.1563 122.636 85.1498 122.709C85.1367 122.819 85.1258 122.93 85.1106 123.034C85.0953 123.137 85.0888 123.193 85.0757 123.27C85.0627 123.347 85.0431 123.467 85.0257 123.564C85.0082 123.661 84.993 123.736 84.9756 123.822L84.9168 124.079C84.8928 124.18 84.8667 124.278 84.8406 124.375C84.8144 124.472 84.7992 124.527 84.7774 124.596C84.7404 124.711 84.7034 124.817 84.6642 124.938C84.6424 124.998 84.6228 125.06 84.601 125.119C84.5292 125.307 84.4551 125.491 84.3724 125.667C84.3092 125.804 84.2439 125.937 84.1742 126.067C84.1045 126.198 84.0283 126.324 83.9564 126.445C83.941 126.47 83.9243 126.495 83.9063 126.518C83.8475 126.609 83.7866 126.697 83.7256 126.783L83.6472 126.885C83.5884 126.964 83.5274 127.039 83.4643 127.106C83.4403 127.134 83.4186 127.163 83.3924 127.19C83.3075 127.289 83.2204 127.382 83.1289 127.473L83.0876 127.51C83.0092 127.585 82.9286 127.66 82.8437 127.731L82.7522 127.806C82.6803 127.864 82.6085 127.921 82.5344 127.974L82.443 128.04C82.3406 128.113 82.2252 128.182 82.1272 128.244L120.497 105.62C120.604 105.556 120.715 105.488 120.813 105.417L120.904 105.348C120.978 105.295 121.05 105.24 121.122 105.181L121.214 105.105C121.296 105.035 121.379 104.962 121.457 104.884L121.499 104.847C121.588 104.759 121.677 104.664 121.762 104.566L121.834 104.482C121.897 104.407 121.958 104.332 122.017 104.261L122.095 104.158C122.156 104.074 122.217 103.985 122.276 103.895L122.326 103.822L122.339 103.8C122.411 103.685 122.481 103.568 122.557 103.444C122.622 103.322 122.688 103.196 122.749 103.066V103.046C122.831 102.872 122.906 102.688 122.977 102.498L122.997 102.452C123.012 102.408 123.025 102.361 123.041 102.317C123.08 102.204 123.117 102.096 123.152 101.975C123.152 101.944 123.173 101.915 123.182 101.884C123.191 101.853 123.206 101.793 123.217 101.749C123.243 101.652 123.269 101.552 123.293 101.453C123.293 101.411 123.315 101.374 123.324 101.332C123.332 101.29 123.341 101.241 123.352 101.195C123.369 101.111 123.387 101.024 123.402 100.936C123.402 100.892 123.422 100.85 123.428 100.803C123.435 100.757 123.443 100.697 123.452 100.642C123.461 100.587 123.476 100.487 123.487 100.408C123.487 100.368 123.5 100.328 123.504 100.289C123.509 100.249 123.517 100.149 123.526 100.081C123.535 100.012 123.541 99.9329 123.548 99.86C123.548 99.829 123.548 99.8003 123.548 99.7716C123.548 99.67 123.561 99.5661 123.568 99.4645C123.568 99.4092 123.568 99.3562 123.568 99.301C123.566 99.2877 123.566 99.2744 123.568 99.2612C123.568 99.0911 123.578 98.9165 123.578 98.7397V97.8559C123.6 97.7145 123.598 97.5532 123.591 97.3897Z" fill="#000D2A"/>
<path d="M32.6297 51.1817C40.8611 56.0051 47.8731 66.1336 50.6104 76.2179C52.1054 76.6379 53.5397 77.2553 54.8764 78.054C61.8165 82.1218 67.7244 90.6661 70.0305 99.1706L74.6253 101.86C80.5049 105.302 85.2478 113.645 85.2282 120.497V121.343C85.2107 128.193 80.4374 130.959 74.5578 127.517L10.6051 90.0607C4.7277 86.6138 -0.0195382 78.2728 6.04661e-05 71.421V70.5748C6.04661e-05 70.2235 0.0174815 69.8854 0.0436131 69.5562C0.0218368 69.1585 6.04661e-05 68.774 6.04661e-05 68.3895C0.0240144 59.8629 5.97112 56.4249 13.2836 60.7092C14.1046 49.5245 22.4601 45.2248 32.6297 51.1817Z" fill="#F6F0E9"/>
<path d="M103.925 47.726C103.925 45.3132 102.257 42.3723 100.188 41.1592L61.8034 18.6706C59.7346 17.4575 58.0513 18.4297 58.0426 20.8448L57.8771 80.1465L57.9163 80.1752C58.0731 80.3011 58.2277 80.4315 58.3823 80.5619L58.6001 80.7386C58.8178 80.9309 59.0487 81.1275 59.2686 81.3286L59.3514 81.4081C59.5452 81.5849 59.7368 81.7661 59.9284 81.9517L60.1462 82.1726C60.2899 82.314 60.4315 82.4554 60.5708 82.5991L60.8147 82.8509C60.9432 82.9857 61.0695 83.1205 61.1958 83.2575L61.431 83.5204C61.5573 83.6596 61.6814 83.801 61.8077 83.9425L62.0255 84.1966C62.1627 84.3578 62.2999 84.5214 62.4349 84.6849L62.6069 84.8904C62.8029 85.129 62.9967 85.372 63.1884 85.6173L63.2776 85.7366C63.4606 85.973 63.6391 86.2116 63.8177 86.4525L64.0485 86.7707L64.2663 87.0844L64.5211 87.4534C64.5951 87.5595 64.667 87.6744 64.7388 87.7738C64.8107 87.8732 64.8564 87.9483 64.913 88.0367C65.0945 88.3078 65.2716 88.5817 65.4444 88.8587C65.477 88.9139 65.5141 88.9669 65.5467 89.0222C65.7449 89.3426 65.9387 89.6629 66.126 89.9877C66.1935 90.1049 66.261 90.2197 66.3263 90.3369C66.3916 90.454 66.4613 90.5711 66.5267 90.6904C66.592 90.8097 66.6682 90.9489 66.7444 91.0793C66.8206 91.2096 66.8751 91.3179 66.9382 91.4372C67.0014 91.5565 67.0428 91.6405 67.0972 91.7421L67.3977 92.3343L67.5589 92.6613C67.6351 92.8182 67.7091 92.9772 67.7766 93.1341C67.8311 93.2534 67.8877 93.3705 67.9421 93.4876C67.9966 93.6048 68.0684 93.7683 68.1294 93.9075C68.1904 94.0467 68.2426 94.1594 68.2971 94.2875L68.4604 94.6742L68.6237 95.0697C68.6782 95.2022 68.7304 95.337 68.7827 95.4696L68.9329 95.8585C68.9852 95.9977 69.0353 96.1369 69.0876 96.2739C69.1398 96.4109 69.1812 96.5302 69.2247 96.6583C69.2683 96.7865 69.3314 96.961 69.3815 97.1113C69.4316 97.2615 69.4643 97.3543 69.5035 97.4759C69.5579 97.6372 69.608 97.8007 69.6581 97.9642C69.6929 98.0769 69.73 98.1851 69.7626 98.3022C69.8192 98.49 69.8715 98.6778 69.9259 98.8657C69.9542 98.9673 69.9847 99.0711 70.0131 99.175L74.6231 101.86C74.7959 101.961 74.9679 102.067 75.1392 102.178L75.174 102.2C75.3417 102.308 75.5072 102.421 75.6727 102.536L75.8426 102.659C75.9536 102.739 76.0603 102.819 76.1736 102.902L76.3739 103.057L76.6701 103.291L76.8878 103.47L77.1666 103.709L77.3843 103.903L77.6565 104.153L77.8743 104.359C77.9658 104.445 78.0572 104.535 78.1465 104.624C78.2358 104.712 78.2815 104.756 78.3468 104.825C78.4122 104.893 78.5319 105.017 78.6256 105.116C78.6866 105.181 78.7475 105.245 78.8063 105.311C78.913 105.426 79.0241 105.543 79.1243 105.662L79.2506 105.806C79.3957 105.975 79.5409 106.148 79.6861 106.323L79.7514 106.407C79.8734 106.557 79.9931 106.707 80.1107 106.849C80.2632 107.043 80.4112 107.242 80.5593 107.443C80.7771 107.728 80.9665 108.02 81.1647 108.316L81.3019 108.524L81.5197 108.853C81.5806 108.952 81.6438 109.049 81.7026 109.149C81.7614 109.248 81.8376 109.37 81.9051 109.485L82.0684 109.761C82.2252 110.037 82.3798 110.313 82.5279 110.594C82.5823 110.696 82.6346 110.799 82.6869 110.901L82.8524 111.226C82.9264 111.378 83.0004 111.533 83.0701 111.688L83.142 111.836C83.2334 112.034 83.3227 112.236 83.4098 112.434C83.4338 112.487 83.4556 112.543 83.4773 112.596C83.5405 112.744 83.6036 112.894 83.6624 113.038C83.6908 113.106 83.7191 113.175 83.7452 113.243C83.8018 113.387 83.8562 113.53 83.9107 113.685L83.9782 113.871C84.0479 114.061 84.1132 114.253 84.1764 114.443C84.1831 114.459 84.1889 114.475 84.1938 114.491C84.2635 114.699 84.3266 114.907 84.3898 115.115C84.4094 115.181 84.429 115.249 84.4464 115.316C84.4878 115.457 84.5291 115.601 84.5662 115.744C84.5879 115.822 84.6075 115.901 84.6293 115.981L84.7273 116.381C84.7447 116.46 84.7643 116.54 84.7817 116.617C84.8122 116.756 84.8405 116.893 84.8689 117.03C84.8819 117.101 84.8972 117.174 84.9124 117.251C84.9385 117.399 84.9647 117.545 84.9886 117.693L92.5363 122.112L103.773 115.484L103.925 47.726Z" fill="white"/>
<path d="M96.4865 50.8059L65.329 32.8667C64.8934 32.617 64.5537 32.8181 64.5515 33.3086C64.566 33.58 64.6434 33.8441 64.7773 34.0794C64.9112 34.3148 65.098 34.5147 65.3224 34.6631L96.4821 52.6089C96.9177 52.8586 97.2552 52.6575 97.2574 52.167C97.2441 51.8944 97.1673 51.629 97.0333 51.3924C96.8993 51.1558 96.7119 50.9548 96.4865 50.8059Z" fill="#C88BF2"/>
<path d="M96.4865 61.867L65.329 43.9212C64.8934 43.6715 64.5537 43.8725 64.5515 44.3631C64.566 44.6344 64.6434 44.8985 64.7773 45.1339C64.9112 45.3692 65.098 45.5692 65.3224 45.7175L96.4887 63.6567C96.9242 63.9064 97.2617 63.7053 97.2639 63.2148C97.2479 62.944 97.1691 62.6808 97.0341 62.4466C96.899 62.2124 96.7114 62.0138 96.4865 61.867Z" fill="#C88BF2"/>
<path d="M96.4865 72.9146L65.329 54.9754C64.8934 54.7257 64.5537 54.9267 64.5515 55.4173C64.566 55.6886 64.6434 55.9527 64.7773 56.1881C64.9112 56.4234 65.098 56.6234 65.3224 56.7717L96.4887 74.7109C96.9242 74.9606 97.2617 74.7595 97.2639 74.269C97.2489 73.997 97.1706 73.7325 97.0355 73.4971C96.9004 73.2617 96.7123 73.062 96.4865 72.9146Z" fill="#C88BF2"/>
<path d="M96.4865 83.9624L65.329 66.0298C64.8934 65.7801 64.5537 65.9812 64.5515 66.4717C64.566 66.7431 64.6434 67.0072 64.7773 67.2425C64.9112 67.4778 65.098 67.6778 65.3224 67.8262L96.4887 85.7654C96.9242 86.0151 97.2617 85.814 97.2639 85.3235C97.2499 85.0503 97.1721 84.7845 97.037 84.5478C96.9018 84.3112 96.7131 84.1105 96.4865 83.9624Z" fill="#C88BF2"/>
<path d="M96.4865 95.0232L65.329 77.084C64.8934 76.8343 64.5537 77.0354 64.5515 77.5259C64.566 77.7973 64.6434 78.0614 64.7773 78.2967C64.9112 78.532 65.098 78.732 65.3224 78.8804L96.4887 96.8196C96.9242 97.0693 97.2617 96.8682 97.2639 96.3777C97.2489 96.1057 97.1706 95.8411 97.0355 95.6057C96.9004 95.3703 96.7123 95.1707 96.4865 95.0232Z" fill="#C88BF2"/>
<path d="M93.8929 51.2612C93.8929 48.8461 92.2249 45.9052 90.1561 44.6922L51.7732 22.2146C49.7023 21.0016 48.019 21.976 48.0124 24.3888L47.9079 69.1054C47.9645 69.2225 48.0211 69.3396 48.0756 69.4589C48.13 69.5782 48.2084 69.7373 48.2716 69.8787C48.3347 70.0201 48.4218 70.2079 48.4893 70.3736C48.5568 70.5394 48.6222 70.6741 48.6875 70.8155C48.7528 70.957 48.8181 71.1249 48.8835 71.2795C48.9488 71.4342 49.012 71.5889 49.0751 71.7458C49.1383 71.9026 49.2036 72.0639 49.2646 72.223C49.3255 72.3821 49.3865 72.5301 49.4453 72.6848C49.5041 72.8395 49.5673 73.0118 49.626 73.1753C49.6848 73.3388 49.7371 73.478 49.7915 73.6305C49.846 73.7829 49.9157 73.9906 49.9766 74.1718C50.0267 74.3154 50.0746 74.4569 50.1225 74.6005C50.1857 74.7949 50.2467 74.9894 50.3076 75.186C50.3468 75.3164 50.3904 75.4489 50.4296 75.5793C50.4993 75.8135 50.5668 76.0477 50.6321 76.2819L50.7236 76.6045C50.8847 76.6465 51.0459 76.6951 51.207 76.7459C51.4052 76.8056 51.6055 76.8719 51.8059 76.9448C51.8625 76.9625 51.9169 76.9846 51.9714 77.0045C52.1173 77.0575 52.2632 77.1127 52.4069 77.1724L52.6246 77.2585C52.7582 77.3145 52.891 77.372 53.0232 77.4309L53.2409 77.5281C53.3846 77.5944 53.5305 77.6651 53.6764 77.7358L53.8485 77.8198C54.051 77.9214 54.2535 78.0275 54.4582 78.1402C54.6629 78.2528 54.811 78.3368 54.9896 78.4406L55.3685 78.6616C55.4926 78.7367 55.6145 78.8119 55.7387 78.8826C55.8628 78.9533 55.9325 79.0085 56.0283 79.0726C56.1241 79.1366 56.2831 79.2405 56.4115 79.3289L56.6968 79.5277C56.8275 79.6205 56.956 79.7133 57.0866 79.8106L57.3632 80.016L57.7747 80.3342L58.0361 80.5419C58.1928 80.6679 58.3475 80.7982 58.5042 80.9286L58.722 81.1053C58.947 81.2983 59.1692 81.495 59.3884 81.6953L59.4711 81.7748C59.6649 81.9516 59.8587 82.1328 60.0482 82.3184L60.266 82.5393L60.7015 82.9658L60.9432 83.2177C61.0717 83.3524 61.198 83.4872 61.3243 83.6242L61.566 83.8871C61.6923 84.0264 61.8186 84.1678 61.9427 84.3092L62.1605 84.5633C62.2999 84.7246 62.4349 84.8881 62.5721 85.0516C62.6287 85.1201 62.6875 85.1864 62.7441 85.2571C62.9401 85.4957 63.1317 85.7387 63.3233 85.984L63.4148 86.1033C63.5955 86.3397 63.7763 86.5784 63.9527 86.8192L64.1835 87.1374C64.2597 87.2412 64.3338 87.3473 64.4013 87.4511L64.6582 87.8201C64.7301 87.9262 64.8041 88.0411 64.876 88.1405C64.9479 88.2399 64.9914 88.3151 65.0502 88.4034C65.2288 88.6759 65.4052 88.9499 65.5794 89.2254L65.6839 89.3889C65.8799 89.7093 66.0737 90.0297 66.2631 90.3545L66.4613 90.7036C66.5288 90.8207 66.5963 90.9378 66.6617 91.0571C66.727 91.1764 66.8032 91.3156 66.8794 91.446L67.071 91.8039C67.1255 91.9055 67.1778 92.0072 67.23 92.1088C67.3324 92.3055 67.4325 92.5021 67.5305 92.701L67.6917 93.028L67.9094 93.5008L68.0749 93.8544L68.2644 94.2742C68.3188 94.4001 68.3754 94.5261 68.4299 94.6542L68.5932 95.0409C68.6476 95.1735 68.7043 95.3038 68.7565 95.4364C68.8088 95.569 68.8632 95.7037 68.9155 95.8363C68.9678 95.9689 69.0178 96.097 69.0658 96.2252C69.1137 96.3533 69.1703 96.5036 69.2204 96.6406C69.2705 96.7776 69.314 96.8969 69.3597 97.025C69.4055 97.1532 69.4643 97.3278 69.5143 97.4669L69.6385 97.8315C69.6907 97.9928 69.7408 98.1563 69.7909 98.3198C69.8279 98.4325 69.8628 98.5408 69.8976 98.6579C69.9521 98.8457 70.0065 99.0335 70.0588 99.2213C70.0871 99.323 70.1197 99.4268 70.148 99.5307L74.745 102.224C74.9192 102.326 75.0913 102.432 75.2633 102.542L75.296 102.564C75.4636 102.673 75.6291 102.785 75.7946 102.9C75.8534 102.94 75.9079 102.982 75.9645 103.024C76.0755 103.103 76.1822 103.183 76.2955 103.267C76.363 103.318 76.4305 103.369 76.4958 103.422L76.792 103.656L77.0098 103.835L77.2907 104.073L77.5084 104.268L77.7785 104.518C77.8503 104.584 77.9244 104.652 77.9962 104.723C78.0681 104.794 78.177 104.9 78.2662 104.988C78.3555 105.077 78.4013 105.121 78.4666 105.189C78.5319 105.258 78.6539 105.382 78.7453 105.481L78.9282 105.675C79.035 105.79 79.146 105.907 79.244 106.027L79.3725 106.17C79.5184 106.34 79.6643 106.513 79.808 106.687C79.8298 106.716 79.8516 106.745 79.8755 106.771L80.2348 107.224C80.3851 107.419 80.5353 107.618 80.6812 107.819C80.8888 108.103 81.0899 108.394 81.2844 108.691L81.4238 108.899L81.6416 109.228L81.8267 109.524C81.8942 109.635 81.9617 109.745 82.027 109.86L82.1903 110.136C82.3493 110.413 82.5017 110.689 82.6498 110.969C82.7043 111.071 82.7565 111.175 82.8088 111.277C82.861 111.378 82.9198 111.497 82.9743 111.601C83.0505 111.754 83.1245 111.908 83.192 112.063C83.216 112.112 83.24 112.16 83.2617 112.211C83.3554 112.41 83.4446 112.611 83.5318 112.81C83.5535 112.863 83.5753 112.918 83.5993 112.971C83.6624 113.119 83.7234 113.27 83.7844 113.413L83.8649 113.619C83.9216 113.762 83.976 113.906 84.0304 114.061L84.1001 114.246C84.1676 114.436 84.2351 114.628 84.2983 114.818C84.3031 114.835 84.309 114.851 84.3157 114.867C84.3832 115.075 84.4485 115.282 84.5095 115.49L84.5683 115.691C84.6097 115.835 84.6489 115.976 84.6881 116.12C84.7099 116.197 84.7295 116.277 84.7491 116.356C84.7839 116.491 84.8166 116.624 84.847 116.756C84.8666 116.836 84.8841 116.915 84.9015 116.993C84.932 117.132 84.9603 117.269 84.9886 117.406C85.0038 117.477 85.0191 117.549 85.0321 117.627C85.067 117.806 85.0975 117.985 85.1258 118.164L85.1388 118.241C85.1715 118.446 85.1998 118.65 85.2238 118.853L85.2434 119.025C85.2586 119.171 85.2739 119.317 85.2869 119.467C85.2869 119.536 85.2978 119.606 85.3022 119.675C85.3131 119.812 85.3196 119.949 85.3261 120.086C85.3261 120.152 85.3261 120.219 85.3261 120.283C85.3261 120.477 85.337 120.671 85.337 120.864V121.745C85.337 121.949 85.337 122.145 85.3218 122.34C85.3218 122.395 85.3218 122.448 85.3109 122.501C85.3109 122.636 85.2956 122.768 85.2826 122.899C85.2826 122.974 85.2695 123.047 85.2608 123.12C85.2608 123.23 85.2368 123.341 85.2216 123.447C85.2064 123.553 85.1998 123.604 85.1868 123.681C85.1737 123.758 85.1563 123.878 85.1367 123.975C85.1171 124.072 85.104 124.147 85.0866 124.233C85.0692 124.319 85.0496 124.406 85.0278 124.49C85.006 124.574 84.9799 124.688 84.9516 124.786C84.9233 124.883 84.9102 124.938 84.8884 125.007C84.8536 125.121 84.8144 125.228 84.7752 125.349C84.7556 125.409 84.7338 125.471 84.712 125.53C84.6423 125.718 84.5661 125.901 84.4834 126.078C84.4202 126.215 84.3549 126.348 84.2852 126.478C84.2504 126.54 84.2134 126.597 84.1785 126.659L84.9058 127.086L93.7231 121.887L93.8929 51.2612Z" fill="#25006B"/>
<path d="M81.5196 108.877L81.7047 109.173C81.7722 109.284 81.8376 109.394 81.9051 109.509L82.0684 109.785C82.2252 110.061 82.3798 110.338 82.5279 110.618C82.5823 110.72 82.6346 110.824 82.6868 110.925L82.8523 111.25C82.9286 111.403 83.0004 111.557 83.0701 111.712C83.0919 111.761 83.118 111.809 83.1398 111.86C83.2334 112.059 83.3227 112.26 83.4076 112.459C83.4316 112.512 83.4534 112.567 83.4751 112.62C83.5383 112.768 83.6014 112.918 83.6624 113.062L83.743 113.267C83.7996 113.411 83.8541 113.555 83.9085 113.709L83.976 113.895C84.0457 114.085 84.111 114.277 84.1763 114.467L84.1916 114.516C84.2613 114.724 84.3244 114.931 84.3876 115.139L84.4464 115.34C84.4877 115.481 84.5269 115.625 84.5661 115.769C84.5857 115.846 84.6075 115.926 84.6271 116.005C84.662 116.14 84.6946 116.272 84.7251 116.405C84.7447 116.485 84.7621 116.564 84.7795 116.641C84.81 116.781 84.8383 116.918 84.8666 117.055C84.8797 117.125 84.895 117.198 84.9102 117.276C84.9429 117.455 84.9755 117.633 85.0038 117.812L85.0169 117.89C85.043 118.064 85.067 118.237 85.0888 118.409L85.2281 57.227C85.2281 54.812 83.5622 51.8733 81.4913 50.6603L43.1171 28.176C41.0462 26.963 39.3629 27.9374 39.3564 30.3502L39.2976 56.4691L39.3977 56.5708L39.6852 56.8691C39.8376 57.0281 39.9901 57.1872 40.1403 57.3507L40.4234 57.6601C40.5737 57.8258 40.7239 57.9937 40.872 58.1638C40.9591 58.2633 41.0484 58.3627 41.1355 58.4643C41.2988 58.6544 41.46 58.8488 41.6233 59.0432L41.8236 59.2841C42.0559 59.5698 42.2867 59.8586 42.5161 60.1502L42.6315 60.3049C42.8493 60.5811 43.0671 60.8639 43.2652 61.1467L43.5352 61.5157C43.6245 61.6417 43.716 61.7676 43.8053 61.8958L44.1058 62.3377C44.1929 62.4658 44.2822 62.594 44.3671 62.7221L44.5849 63.0469C44.8041 63.3783 45.0218 63.7142 45.2381 64.0545L45.3383 64.2113C45.5735 64.5936 45.8043 64.9803 46.0308 65.3669L46.2616 65.7713C46.34 65.9083 46.4184 66.0453 46.4946 66.1845L46.7494 66.6507C46.8235 66.7877 46.8997 66.9269 46.9672 67.0639C47.0347 67.2008 47.0978 67.3157 47.1632 67.4417C47.2808 67.6626 47.3984 67.8991 47.5116 68.1289C47.5769 68.257 47.6401 68.3874 47.7032 68.5177C47.7947 68.7033 47.8818 68.8889 47.9689 69.0745C48.0342 69.2137 48.1017 69.3529 48.1649 69.4943C48.228 69.6358 48.313 69.8236 48.3826 69.9893C48.4523 70.155 48.5155 70.2898 48.5808 70.4312L48.7768 70.8952C48.8399 71.0499 48.9053 71.2045 48.9684 71.3614C49.0316 71.5183 49.0947 71.6796 49.1579 71.8387C49.221 71.9977 49.2798 72.1458 49.3386 72.3005C49.3974 72.4551 49.4606 72.6275 49.5194 72.791C49.5782 72.9545 49.6304 73.0937 49.6849 73.2461C49.7393 73.3986 49.809 73.6063 49.87 73.7875C49.9179 73.9311 49.968 74.0725 50.0137 74.2161C50.079 74.4106 50.14 74.605 50.1988 74.8017C50.2402 74.932 50.2837 75.0646 50.3229 75.1949C50.3926 75.4292 50.4579 75.6634 50.5254 75.8976C50.5537 76.0036 50.5864 76.1185 50.6169 76.2202C50.7759 76.2621 50.937 76.3108 51.1003 76.3616C51.2985 76.4212 51.4988 76.4875 51.6992 76.5604L51.8647 76.6201C52.0106 76.6731 52.1543 76.7284 52.3002 76.788L52.518 76.8742L52.9165 77.0465L53.1342 77.1438C53.2801 77.21 53.426 77.2807 53.5698 77.3514L53.7418 77.4354C53.9443 77.5371 54.149 77.6431 54.3537 77.7558C54.5584 77.8685 54.7065 77.9524 54.885 78.0563C55.0113 78.1314 55.1377 78.211 55.2618 78.2883C55.3859 78.3656 55.51 78.4385 55.6342 78.5093L55.9238 78.6993C56.0523 78.7832 56.1786 78.8672 56.3049 78.9556C56.4312 79.044 56.4965 79.0881 56.5901 79.1544C56.7208 79.2472 56.8514 79.34 56.9821 79.4373L57.2587 79.6427L57.6702 79.9609L57.9316 80.1686C58.0883 80.2946 58.243 80.4249 58.3976 80.5553C58.4673 80.6149 58.5391 80.6724 58.6153 80.732C58.8331 80.9243 59.0639 81.1209 59.2839 81.322L59.3666 81.4015C59.5604 81.5783 59.752 81.7595 59.9437 81.9451L60.1614 82.166L60.597 82.5925L60.8387 82.8444C60.9672 82.9791 61.0935 83.1139 61.2198 83.2509L61.4615 83.5138C61.5878 83.653 61.7119 83.7945 61.8382 83.9359L62.056 84.19C62.1953 84.3513 62.3304 84.5148 62.4654 84.6783L62.6374 84.8838C62.8334 85.1224 63.0272 85.3654 63.2188 85.6107L63.3081 85.73C63.491 85.9664 63.6696 86.2051 63.8482 86.4459L64.079 86.7641C64.1552 86.8679 64.2293 86.974 64.2968 87.0778L64.5537 87.4468C64.6256 87.5529 64.6996 87.6678 64.7715 87.7672L64.9457 88.0301C65.1243 88.3012 65.3007 88.5752 65.4749 88.8521C65.5097 88.9073 65.5445 88.9604 65.5772 89.0156C65.7754 89.336 65.9692 89.6564 66.1565 89.9812C66.224 90.0983 66.2915 90.2132 66.3568 90.3303C66.4221 90.4474 66.4918 90.5645 66.5571 90.6838C66.6225 90.8031 66.6987 90.9423 66.7749 91.0727L66.9665 91.4306C67.021 91.5322 67.0732 91.6339 67.1255 91.7355C67.2257 91.9322 67.328 92.1288 67.426 92.3277L67.5872 92.6547C67.6634 92.8116 67.7374 92.9707 67.8049 93.1275L67.9704 93.4811C68.0336 93.6225 68.0967 93.7617 68.1577 93.9009C68.2187 94.0401 68.2709 94.1528 68.3254 94.2809L68.4887 94.6676L68.652 95.0631C68.7065 95.1957 68.7587 95.3304 68.811 95.463C68.8632 95.5956 68.9133 95.7237 68.9612 95.8519C69.0091 95.98 69.0658 96.1303 69.1159 96.2673L69.2552 96.6517C69.3075 96.802 69.3597 96.9545 69.4098 97.1047C69.4599 97.255 69.4926 97.3477 69.5318 97.4693C69.5862 97.6306 69.6363 97.7941 69.6864 97.9576C69.7212 98.0703 69.7583 98.1785 69.7909 98.2956C69.8475 98.4842 69.902 98.672 69.9542 98.8591C69.9825 98.9607 70.0152 99.0646 70.0414 99.1684L74.6253 101.86C74.7973 101.961 74.9715 102.067 75.1414 102.178L75.1762 102.2C75.3439 102.308 75.5094 102.421 75.6749 102.536L75.8447 102.659C75.9558 102.739 76.0625 102.819 76.1757 102.903C76.2432 102.953 76.3107 103.004 76.3761 103.057L76.6722 103.291L76.89 103.47L77.1709 103.709L77.3887 103.903L77.6609 104.153L77.8786 104.359C77.9701 104.445 78.0616 104.535 78.1508 104.624C78.2401 104.712 78.2859 104.756 78.3512 104.825C78.4165 104.893 78.5363 105.017 78.6299 105.116L78.8128 105.311C78.9195 105.426 79.0306 105.543 79.1286 105.662C79.17 105.711 79.2135 105.757 79.2571 105.806C79.403 105.976 79.5489 106.148 79.6926 106.323C79.7144 106.352 79.7362 106.38 79.7601 106.407C79.8799 106.557 79.9996 106.707 80.1172 106.849C80.2697 107.043 80.4199 107.242 80.5658 107.443C80.7836 107.728 80.9752 108.02 81.1712 108.316L81.3106 108.524L81.5196 108.877Z" fill="#5F33A1"/>
<path d="M85.0822 123.261C85.0822 123.261 85.0822 123.277 85.0822 123.286C85.067 123.385 85.0496 123.482 85.0322 123.579C85.0147 123.677 84.9995 123.752 84.9821 123.838L84.9233 124.094C84.8993 124.196 84.8732 124.293 84.8471 124.39C84.8209 124.488 84.8057 124.543 84.7839 124.611C84.7469 124.726 84.7099 124.832 84.6707 124.954C84.6489 125.013 84.6293 125.075 84.6075 125.135C84.5357 125.323 84.4616 125.506 84.3789 125.683C84.3157 125.82 84.2504 125.952 84.1807 126.083C84.111 126.213 84.0348 126.339 83.9629 126.461C83.9475 126.486 83.9308 126.51 83.9128 126.534C83.8541 126.624 83.7931 126.713 83.7321 126.799L83.6537 126.9C83.5949 126.98 83.5339 127.055 83.4708 127.121C83.4468 127.15 83.4251 127.179 83.3989 127.205C83.314 127.305 83.2269 127.398 83.1354 127.488L83.0941 127.526C83.0157 127.601 82.9351 127.676 82.8502 127.747L82.7587 127.822C82.6868 127.879 82.615 127.937 82.5409 127.99L82.4495 128.056C82.3471 128.129 82.2317 128.197 82.1337 128.259L85.0866 126.52L85.0822 123.261Z" fill="#5F56A1"/>
<path d="M77.7871 60.3203L46.6231 42.3744C46.1876 42.1248 45.85 42.3236 45.8478 42.8163C45.8621 43.0878 45.9394 43.3519 46.0734 43.5873C46.2073 43.8226 46.3942 44.0226 46.6187 44.1708L77.7828 62.1078C78.2183 62.3575 78.558 62.1586 78.558 61.6659C78.5424 61.396 78.4645 61.1336 78.3306 60.8999C78.1967 60.6662 78.0105 60.4676 77.7871 60.3203Z" fill="white"/>
<path d="M77.7871 71.3679L46.6231 53.4286C46.1876 53.179 45.85 53.3778 45.8478 53.8705C45.8621 54.142 45.9394 54.4061 46.0734 54.6415C46.2073 54.8768 46.3942 55.0768 46.6187 55.225L77.7828 73.162C78.2183 73.4117 78.558 73.2128 78.558 72.7201C78.5434 72.4491 78.466 72.1854 78.332 71.9504C78.1981 71.7154 78.0114 71.5159 77.7871 71.3679Z" fill="white"/>
<path d="M77.7871 82.4154L46.6231 64.4828C46.1876 64.2332 45.85 64.432 45.8478 64.9247C45.8621 65.1962 45.9394 65.4603 46.0734 65.6957C46.2073 65.931 46.3942 66.131 46.6187 66.2792L77.7828 84.2162C78.2183 84.4659 78.558 84.267 78.558 83.7743C78.5444 83.5021 78.4674 83.2371 78.3334 83.0009C78.1995 82.7647 78.0122 82.5641 77.7871 82.4154Z" fill="white"/>
<path d="M77.7871 93.4746L46.6231 75.5375C46.1876 75.2878 45.85 75.4867 45.8478 75.9794C45.8621 76.2508 45.9394 76.515 46.0734 76.7504C46.2073 76.9857 46.3942 77.1857 46.6187 77.3339L77.7828 95.2709C78.2183 95.5206 78.558 95.3217 78.558 94.829C78.5437 94.5576 78.4664 94.2935 78.3325 94.0581C78.1985 93.8227 78.0117 93.6228 77.7871 93.4746Z" fill="white"/>
<path d="M77.7871 104.529L46.6231 86.5917C46.1876 86.342 45.85 86.5409 45.8478 87.0336C45.8621 87.305 45.9394 87.5692 46.0734 87.8046C46.2073 88.0399 46.3942 88.2399 46.6187 88.3881L77.7828 106.325C78.2183 106.575 78.558 106.376 78.558 105.883C78.5437 105.612 78.4664 105.348 78.3325 105.112C78.1985 104.877 78.0117 104.677 77.7871 104.529Z" fill="white"/>
<path d="M14.2461 59.4939L14.0284 59.379C13.9718 59.3503 13.9173 59.3193 13.8607 59.2928C13.8041 59.2663 13.6843 59.2066 13.595 59.1647L13.4034 59.0741L13.325 59.0365C13.1464 58.9548 12.97 58.8796 12.7958 58.8156C12.6173 58.7426 12.4387 58.6764 12.2623 58.6123L12.1948 58.5902L12.0032 58.5261L11.7331 58.4355L11.6003 58.4002L11.3651 58.3339L11.1844 58.2831L10.9993 58.2411L10.7663 58.1881L10.6422 58.1615C10.5703 58.1461 10.4984 58.1372 10.4244 58.124L10.1565 58.0798L10.0607 58.0643C9.98669 58.0533 9.91483 58.0489 9.84297 58.0422L9.5577 58.0113H9.47495C9.40962 58.0113 9.34647 58.0113 9.28332 58.0113L8.94578 58.0002H8.85214C8.72802 58.0002 8.60607 58.0002 8.4863 58.0113H8.44057C8.34621 58.0113 8.25475 58.0179 8.16619 58.0312C8.10739 58.0312 8.05078 58.0444 7.99416 58.0511L7.86568 58.0665C7.70889 58.0886 7.55428 58.1129 7.40184 58.1439H7.38878L7.26465 58.1748C7.14053 58.2013 7.01422 58.2322 6.8901 58.2676L6.71371 58.325C6.63532 58.3494 6.55474 58.3714 6.47853 58.4002L6.41973 58.4223C6.30214 58.4665 6.18455 58.5173 6.06913 58.5681C6.01469 58.5924 5.9559 58.6145 5.90146 58.641C5.7316 58.7206 5.5661 58.8067 5.40496 58.9017L3.88062 59.8076C4.03958 59.7126 4.20508 59.6265 4.37494 59.5447L4.54479 59.4718C4.66021 59.421 4.77562 59.3724 4.89321 59.3282L5.18719 59.2287L5.36576 59.1713C5.48771 59.1359 5.61401 59.1072 5.74031 59.0785L5.86226 59.0498C6.01905 59.0166 6.17801 58.9923 6.33916 58.9702L6.46764 58.9548C6.61572 58.9371 6.7638 58.9216 6.91405 58.915H6.95978C7.11222 58.915 7.26465 58.915 7.42144 58.915C7.5325 58.915 7.6392 58.915 7.7568 58.926C7.87439 58.9371 7.93972 58.926 8.03118 58.9415C8.12264 58.957 8.22281 58.9592 8.31862 58.9702L8.6322 59.01C8.72149 59.021 8.81077 59.0387 8.90005 59.0542C8.98933 59.0697 9.11782 59.094 9.23976 59.1183C9.31816 59.1337 9.39437 59.1514 9.47277 59.1713C9.59472 59.2 9.71666 59.2287 9.83861 59.2641L10.0738 59.3282C10.2066 59.3679 10.3416 59.4099 10.4767 59.4563L10.6683 59.5182C11.0646 59.6574 11.4697 59.8231 11.879 60.0109L12.0707 60.1037C12.2144 60.1722 12.3603 60.2429 12.5062 60.3247L12.724 60.4396C12.9156 60.5412 13.1094 60.6473 13.3032 60.7599L14.8384 59.8563C14.6969 59.7745 14.5554 59.6927 14.416 59.6176C14.3528 59.5469 14.3006 59.5226 14.2461 59.4939Z" fill="#25006B"/>
<path d="M86.7568 119.123C86.7568 119.092 86.7568 119.061 86.7568 119.03C86.7568 118.966 86.7568 118.9 86.7568 118.833C86.7568 118.767 86.7568 118.679 86.7568 118.601L86.7438 118.422C86.7438 118.354 86.7329 118.283 86.7263 118.201C86.7198 118.12 86.7263 118.111 86.7263 118.064C86.7263 117.965 86.7046 117.866 86.6937 117.766C86.6937 117.709 86.6828 117.651 86.6762 117.594C86.6753 117.575 86.6753 117.555 86.6762 117.536C86.6523 117.355 86.6283 117.174 86.6 116.993L86.587 116.915C86.5623 116.768 86.5362 116.616 86.5086 116.458C86.5086 116.432 86.4977 116.405 86.4933 116.379C86.4781 116.306 86.4628 116.233 86.4498 116.158C86.4367 116.082 86.4149 115.981 86.3953 115.892L86.3627 115.747C86.3453 115.667 86.3257 115.59 86.3082 115.51C86.2908 115.431 86.2799 115.389 86.2669 115.327C86.2538 115.265 86.2277 115.183 86.2102 115.106C86.1928 115.028 86.1689 114.947 86.1471 114.867C86.1471 114.827 86.1275 114.79 86.1166 114.75C86.0883 114.646 86.0578 114.542 86.0273 114.441L85.9707 114.237L85.9533 114.18C85.8967 113.994 85.8379 113.809 85.7769 113.623C85.7769 113.606 85.766 113.59 85.7616 113.575C85.705 113.409 85.6484 113.243 85.5896 113.08L85.5613 113C85.5395 112.938 85.5156 112.879 85.4938 112.817C85.472 112.755 85.4285 112.638 85.3936 112.549C85.3588 112.461 85.3501 112.439 85.3283 112.381L85.2455 112.176L85.1454 112.024L85.0191 111.725C84.9973 111.672 84.9755 111.619 84.9516 111.566C84.9516 111.546 84.9363 111.529 84.9276 111.509C84.8514 111.334 84.7752 111.162 84.6946 110.987C84.6905 110.98 84.6869 110.973 84.6837 110.965C84.6598 110.917 84.6358 110.868 84.614 110.819C84.5509 110.685 84.4877 110.552 84.4224 110.419L84.3897 110.355C84.3375 110.247 84.2809 110.134 84.2264 110.033L84.0936 109.77L84.0674 109.723C83.9194 109.443 83.7648 109.167 83.608 108.893C83.5927 108.868 83.5818 108.844 83.5688 108.822L83.4446 108.614C83.3771 108.502 83.3118 108.393 83.2421 108.278L83.057 107.982C82.9895 107.872 82.9198 107.761 82.8393 107.655L82.7696 107.547C82.7478 107.512 82.7239 107.479 82.6999 107.445C82.5039 107.151 82.3028 106.856 82.0967 106.562C81.9508 106.36 81.8005 106.162 81.6481 105.965L81.6285 105.938C81.5153 105.793 81.4107 105.651 81.2866 105.51C81.2648 105.483 81.2452 105.455 81.2213 105.428C81.0841 105.262 80.9469 105.101 80.8097 104.94L80.7879 104.915C80.7466 104.867 80.703 104.82 80.6616 104.774L80.396 104.474L80.3437 104.421C80.2849 104.354 80.2218 104.29 80.1608 104.226L79.9604 104.005L79.8842 103.928L79.6839 103.729C79.6273 103.671 79.5706 103.612 79.5118 103.557L79.4117 103.462C79.3398 103.391 79.268 103.325 79.1939 103.256L79.0437 103.115L78.9239 103.006L78.7061 102.814L78.5733 102.695C78.5254 102.653 78.4753 102.615 78.4252 102.573L78.2075 102.394C78.1704 102.366 78.1334 102.333 78.0942 102.304C78.055 102.275 77.9723 102.209 77.9113 102.16L77.7088 102.005C77.6826 101.983 77.6565 101.961 77.6282 101.941L77.3778 101.76L77.2101 101.639L77.1644 101.608C77.0163 101.504 76.8638 101.402 76.7136 101.305L76.6809 101.283C76.5437 101.197 76.4065 101.108 76.2672 101.027L76.1627 100.965L71.5657 98.2714C71.5586 98.2489 71.5528 98.226 71.5483 98.2029C71.5265 98.1233 71.5003 98.0438 71.4786 97.9642C71.4263 97.7772 71.3719 97.5894 71.3152 97.4008C71.31 97.3776 71.3035 97.3548 71.2956 97.3323C71.2695 97.2417 71.239 97.1511 71.2107 97.0605C71.1606 96.897 71.1105 96.7357 71.0561 96.5744C71.0561 96.5413 71.0365 96.5104 71.0256 96.4772C70.9973 96.3889 70.9646 96.2983 70.9342 96.2099C70.8841 96.0574 70.8318 95.9072 70.7795 95.768C70.7643 95.7282 70.7512 95.6884 70.7382 95.6487L70.6402 95.3835L70.4856 94.9681C70.4703 94.9261 70.4551 94.8819 70.4377 94.84C70.405 94.7516 70.368 94.6654 70.3353 94.5792C70.283 94.4445 70.2308 94.3119 70.1763 94.1771L70.1241 94.0445L70.013 93.7838L69.8497 93.3949C69.8301 93.3529 69.8127 93.3088 69.7931 93.2646C69.7582 93.1806 69.719 93.0989 69.682 93.0171C69.621 92.8757 69.5579 92.7365 69.4947 92.5973L69.4316 92.4581C69.3989 92.3852 69.3619 92.3145 69.3292 92.2371C69.2552 92.0803 69.1812 91.9234 69.1115 91.7665C69.0832 91.7113 69.0592 91.656 69.0309 91.6008C69.0026 91.5455 68.9765 91.4925 68.9503 91.4395L68.6498 90.8473C68.615 90.7833 68.5845 90.7192 68.5518 90.6551C68.5192 90.591 68.5105 90.58 68.4909 90.5424C68.4277 90.4209 68.3624 90.3038 68.2971 90.1845C68.2317 90.0652 68.1577 89.9237 68.0793 89.7956C68.0009 89.6674 67.9464 89.5592 67.8789 89.4399C67.8114 89.3205 67.7831 89.2675 67.733 89.1836L67.6786 89.093C67.4892 88.7682 67.2975 88.4456 67.0994 88.1274L66.9948 87.9617C66.8221 87.6862 66.6457 87.413 66.4657 87.1419C66.4374 87.0955 66.409 87.0491 66.3786 87.0027L66.2915 86.8768L66.0737 86.5586C65.9866 86.4349 65.9017 86.3112 65.8146 86.1896C65.7274 86.0681 65.6665 85.9797 65.5968 85.8759L65.4487 85.6682C65.4226 85.6306 65.3921 85.5953 65.3638 85.5555C65.1874 85.3147 65.0067 85.076 64.8259 84.8396L64.754 84.7446L64.7366 84.7225C64.545 84.4765 64.3512 84.2335 64.1552 83.9934L64.1291 83.9602L63.9832 83.7879C63.8482 83.6244 63.711 83.4609 63.5738 83.3018L63.5084 83.2244L63.3517 83.0477C63.2254 82.904 63.1012 82.7626 62.9727 82.6234C62.9401 82.5859 62.9074 82.5461 62.8726 82.5108L62.7332 82.3605C62.6069 82.2235 62.4784 82.0887 62.3521 81.954L62.2149 81.8103L62.1082 81.7043C61.9689 81.5584 61.8251 81.417 61.6836 81.2756L61.5246 81.1165L61.4636 81.0591C61.272 80.8735 61.0782 80.6923 60.8844 80.5133L60.8125 80.4448C60.5948 80.2416 60.377 80.0449 60.144 79.8527L60.0983 79.8129L59.935 79.6759L59.4493 79.2826L59.3535 79.2053L59.188 79.0771L58.7765 78.7568L58.6393 78.6529C58.5935 78.6176 58.5456 78.5844 58.4977 78.5513L58.1079 78.2684C58.0513 78.2287 57.9969 78.1867 57.9381 78.1469L57.8226 78.0696C57.6963 77.9812 57.5679 77.8972 57.4394 77.8133L57.2456 77.6807L57.1519 77.6233L56.7796 77.4023L56.5618 77.2653L56.4028 77.1725C56.2286 77.0709 56.0566 76.9737 55.8867 76.8786H55.8693C55.6668 76.7682 55.4621 76.6577 55.2596 76.5583L55.2247 76.5406L55.0941 76.45C54.9482 76.3771 54.8023 76.3086 54.6586 76.229L54.5758 76.1915C54.5322 76.1694 54.4887 76.1539 54.4451 76.134C54.3123 76.0744 54.1795 76.0169 54.0466 75.9639C54.0074 75.9462 53.9661 75.9263 53.9247 75.9109L53.8332 75.8755C53.6895 75.8181 53.548 75.7628 53.3977 75.712L53.267 75.6612L53.2257 75.6479C53.0253 75.5772 52.8272 75.5109 52.629 75.4491H52.6116C52.4526 75.4005 52.2958 75.3541 52.139 75.3121C52.139 75.2922 52.1281 75.2723 52.1216 75.2524C52.0977 75.1685 52.0715 75.0823 52.0476 74.9961C51.9822 74.7619 51.9147 74.5255 51.8451 74.2891L51.8276 74.2405C51.795 74.1322 51.7579 74.0195 51.7253 73.9157C51.6643 73.719 51.6033 73.5246 51.538 73.3279L51.5053 73.2241C51.4705 73.118 51.4313 73.0031 51.3943 72.9015C51.3333 72.7203 51.2723 72.5391 51.207 72.3579L51.1635 72.2276C51.1243 72.1193 51.0829 72.0066 51.0437 71.905C50.9827 71.7393 50.9239 71.5758 50.8608 71.4123L50.8085 71.2686L50.6822 70.9505L50.4927 70.4732L50.434 70.3252C50.3904 70.2191 50.3447 70.1042 50.2989 70.007C50.2351 69.8523 50.1697 69.6977 50.103 69.543C50.0834 69.4944 50.0638 69.4458 50.042 69.3972C49.9984 69.2955 49.9505 69.1961 49.907 69.0945C49.8329 68.9287 49.7589 68.763 49.6892 68.5973C49.6652 68.5465 49.6435 68.4935 49.6195 68.4404C49.5803 68.3543 49.5368 68.2681 49.4954 68.1797C49.4083 67.9941 49.319 67.8063 49.2297 67.6207L49.1383 67.4329L49.0381 67.234C48.9227 67.0131 48.8073 66.7744 48.6875 66.5447L48.5743 66.3237C48.5481 66.2751 48.5198 66.2265 48.4937 66.1757C48.4196 66.0365 48.3456 65.8973 48.2759 65.7603C48.2062 65.6233 48.1082 65.4487 48.0211 65.2941L47.7903 64.8831L47.6292 64.598L47.5573 64.4787C47.3395 64.0899 47.1022 63.7032 46.8648 63.3231L46.7646 63.1641C46.5469 62.826 46.3291 62.4902 46.1114 62.1565C46.0765 62.1035 46.0438 62.0482 46.009 61.9974L45.8979 61.8317C45.8108 61.7036 45.7237 61.5754 45.6345 61.4495C45.5452 61.3235 45.4363 61.1578 45.3339 61.0076L45.0639 60.6297C45.0095 60.5524 44.955 60.4728 44.8984 60.3955C44.8418 60.3182 44.8287 60.3049 44.7961 60.2585C44.587 59.9757 44.3758 59.6951 44.1624 59.4167L44.0709 59.2952L44.0448 59.262C43.8183 58.9674 43.5875 58.6787 43.3523 58.3959C43.3433 58.3824 43.3331 58.3698 43.3218 58.3583C43.2674 58.2898 43.2086 58.2235 43.152 58.155C42.9908 57.9606 42.8275 57.7662 42.6642 57.5761C42.6402 57.5474 42.6163 57.5165 42.5901 57.4878C42.5292 57.4171 42.4638 57.3464 42.4007 57.2668C42.2526 57.0967 42.1045 56.9288 41.9521 56.763C41.9129 56.7188 41.8759 56.6747 41.8367 56.6327L41.669 56.4537C41.5187 56.2924 41.3685 56.1311 41.2139 55.9698C41.1616 55.9146 41.1093 55.8571 41.0549 55.8019L40.9286 55.6737C40.7609 55.5014 40.5911 55.3335 40.4234 55.1655C40.3602 55.1059 40.2993 55.0418 40.2361 54.9799L40.1599 54.907C39.9421 54.6861 39.7113 54.4784 39.4826 54.2685L39.3912 54.1823L39.3781 54.1713C39.1168 53.9304 38.8511 53.6962 38.5855 53.4686L38.5332 53.4222C38.47 53.3692 38.4047 53.3184 38.3416 53.2631C38.1565 53.1063 37.9692 52.9516 37.7819 52.8013L37.6709 52.7085L37.4749 52.5561L36.9849 52.1783L36.8238 52.0545C36.7693 52.0125 36.7127 51.9728 36.6561 51.933C36.5015 51.8181 36.3469 51.712 36.1922 51.5971L35.9919 51.4535L35.8547 51.3607C35.7045 51.2569 35.552 51.1552 35.3996 51.0558C35.3212 51.005 35.245 50.9497 35.1688 50.9011L35.0577 50.8326C34.9096 50.7376 34.7637 50.647 34.6222 50.5565C34.5351 50.5034 34.4501 50.4482 34.363 50.3974L34.1736 50.2847C33.9863 50.1742 33.7969 50.0637 33.6096 49.9643L33.5617 49.9378L33.4789 49.8936C33.2612 49.7787 33.0586 49.6726 32.8496 49.5622L32.7712 49.5224L32.7385 49.5047C32.5208 49.392 32.2834 49.2838 32.0569 49.1799L31.9916 49.149L31.9067 49.1136C31.6889 49.012 31.4537 48.9126 31.2294 48.822C30.9964 48.7292 30.7634 48.6408 30.5326 48.5568L30.452 48.5259L30.3932 48.506C30.1755 48.4265 29.9446 48.3535 29.7225 48.2851L29.6811 48.2696L29.6093 48.2497C29.3741 48.179 29.1411 48.1127 28.9081 48.0553C28.9001 48.054 28.8921 48.054 28.8841 48.0553C28.6402 47.9934 28.4007 47.9404 28.1611 47.8918L28.0893 47.8763L28.0218 47.863L27.8345 47.8299L27.5863 47.7857L27.399 47.7592L27.2618 47.7371L27.1638 47.726L26.946 47.6995L26.7283 47.6752L26.5105 47.6575H26.3907H26.2971L26.0554 47.6443H25.855H25.4195H25.0994H24.96C24.8076 47.6443 24.6573 47.662 24.5093 47.6752H24.481C24.3198 47.6907 24.1608 47.7084 24.0041 47.7305L23.8625 47.7526C23.7297 47.7724 23.5968 47.7945 23.464 47.821L23.39 47.8343H23.3682C23.1657 47.8763 22.9675 47.9227 22.7715 47.9757L22.6692 48.0044C22.4775 48.0575 22.2881 48.1171 22.1008 48.1834L22.0594 48.1945L21.9658 48.232C21.8852 48.2607 21.8025 48.2917 21.7219 48.3248L21.5695 48.3867L21.3299 48.4905L21.184 48.5568L20.9314 48.6828L20.8116 48.7446C20.6897 48.8087 20.5677 48.8772 20.448 48.9457L18.9128 49.8516C19.0325 49.7809 19.1545 49.7146 19.2764 49.6483L19.3962 49.5887C19.4811 49.5445 19.5639 49.5025 19.6488 49.4627L19.7947 49.3964L20.0342 49.2926L20.1867 49.2285L20.4306 49.1357L20.5677 49.0871C20.7528 49.023 20.9423 48.9634 21.1339 48.9103L21.2385 48.8816C21.4323 48.8286 21.6304 48.78 21.833 48.7402L21.9288 48.7225C22.0616 48.696 22.1944 48.6739 22.3295 48.6518L22.4688 48.6319C22.6256 48.6099 22.7846 48.59 22.9457 48.5745H22.974C23.1221 48.5612 23.2745 48.5502 23.4248 48.5436H23.5642C23.6709 48.5436 23.7819 48.5436 23.8865 48.5436H24.0759H24.3155H24.518L24.7597 48.5568L24.9775 48.5723L25.1952 48.59L25.413 48.6143L25.6307 48.6386L25.8659 48.6717L26.0532 48.7004L26.3015 48.7424L26.4887 48.7778L26.6281 48.8065C26.8676 48.8529 27.1094 48.9081 27.3511 48.9678H27.3816C27.6146 49.0275 27.8476 49.0937 28.0828 49.1644L28.196 49.1976C28.4138 49.2661 28.6315 49.3412 28.8667 49.4185L29.0082 49.4694C29.2391 49.5533 29.4699 49.6395 29.7029 49.7345H29.7138C29.9316 49.8273 30.1646 49.9245 30.3932 50.0262L30.5413 50.0947C30.7591 50.1985 30.9942 50.3156 31.2229 50.4195L31.334 50.4769C31.5517 50.583 31.7521 50.6979 31.9633 50.8061L32.0939 50.879C32.2812 50.9829 32.4707 51.089 32.6601 51.1994L33.0957 51.4712L33.5312 51.7452L33.8731 51.9661C34.0255 52.0656 34.1779 52.1672 34.3282 52.2711L34.6657 52.5075C34.8203 52.6157 34.975 52.7284 35.1296 52.8411L35.4584 53.0864C35.6217 53.2101 35.785 53.3383 35.9484 53.4664L36.2554 53.7095C36.4449 53.8619 36.63 54.0166 36.8151 54.1735L37.0589 54.3767C37.3246 54.5977 37.5903 54.8407 37.8516 55.0794L37.9583 55.1788C38.1761 55.3998 38.4113 55.6008 38.6355 55.8174L38.8969 56.0759L39.4021 56.5819L39.6895 56.8801C39.842 57.0392 39.9922 57.2005 40.1425 57.364C40.2383 57.4657 40.3319 57.5695 40.4277 57.6734C40.578 57.8391 40.7261 58.007 40.8633 58.1749L41.1268 58.4754C41.2901 58.6677 41.4534 58.8599 41.6145 59.0543L41.8149 59.2952C42.0501 59.5824 42.2809 59.8696 42.5074 60.1635L42.625 60.3182C42.8384 60.5951 43.0496 60.8757 43.2587 61.16C43.3479 61.2815 43.4394 61.4053 43.5265 61.529C43.6136 61.6527 43.7072 61.7809 43.7965 61.909C43.8858 62.0372 43.9991 62.1985 44.0992 62.351L44.3605 62.7354L44.5783 63.0602C44.7961 63.3916 45.0138 63.7231 45.2316 64.0656L45.3318 64.2246C45.5691 64.6069 45.7978 64.9913 46.0243 65.3802C46.1026 65.515 46.181 65.6498 46.2573 65.7868C46.3335 65.9238 46.4119 66.0586 46.4881 66.1955L46.745 66.664L46.9628 67.0794L47.1588 67.455C47.2764 67.6759 47.3918 67.9124 47.5072 68.1421C47.5725 68.2725 47.6357 68.4007 47.6988 68.531C47.7881 68.7166 47.8774 68.9022 47.9645 69.09L48.1605 69.5076L48.3783 70.0048C48.4458 70.155 48.5111 70.3031 48.5764 70.4467C48.6418 70.5903 48.7071 70.7538 48.7702 70.9085C48.8334 71.0632 48.9009 71.22 48.964 71.3747C49.0272 71.5294 49.0904 71.6929 49.1535 71.852C49.2167 72.011 49.2755 72.1613 49.3321 72.3137C49.3887 72.4662 49.454 72.643 49.515 72.8065C49.576 72.97 49.6261 73.1092 49.6805 73.2616C49.7349 73.4141 49.8046 73.6218 49.8656 73.803C49.9135 73.9466 49.9636 74.088 50.0115 74.2316C50.0746 74.4261 50.1356 74.6227 50.1966 74.8171C50.2358 74.9497 50.2793 75.0801 50.3185 75.2127C50.3882 75.4469 50.4557 75.6833 50.5232 75.9197C50.5515 76.0258 50.5842 76.1407 50.6125 76.2335C50.7737 76.2777 50.9392 76.3263 51.1025 76.3771C51.3006 76.4367 51.4988 76.503 51.6992 76.5759L51.8734 76.6378C52.0149 76.6908 52.1565 76.7439 52.3089 76.8013L52.5267 76.8897L52.9252 77.062L53.1429 77.1571C53.2888 77.2233 53.4347 77.294 53.5784 77.3647L53.7483 77.4487C53.9486 77.5503 54.1533 77.6564 54.358 77.7691C54.5627 77.8818 54.7108 77.9657 54.8894 78.0696L55.2661 78.2905L55.6385 78.5225L55.9281 78.7104C56.0544 78.7965 56.1829 78.8805 56.3092 78.9689C56.4355 79.0572 56.5008 79.1014 56.5945 79.1677C56.7251 79.2605 56.8558 79.3533 56.9843 79.4483L57.263 79.656C57.3995 79.7591 57.5367 79.8652 57.6746 79.9742L57.9359 80.1819C58.0927 80.3078 58.2473 80.4382 58.4019 80.5686L58.6197 80.7431C58.8374 80.9376 59.0683 81.1342 59.2882 81.3353L59.3688 81.4104C59.5626 81.5894 59.7564 81.7728 59.948 81.9584L60.1658 82.1793C60.3073 82.3207 60.451 82.4621 60.5904 82.6058L60.8343 82.8577C60.9628 82.9924 61.0891 83.1272 61.2154 83.2642L61.4571 83.5249L61.8338 83.9492L62.0516 84.2033C62.1888 84.3646 62.326 84.5259 62.461 84.6894C62.5198 84.7601 62.5764 84.8264 62.633 84.8971C62.829 85.1357 63.0228 85.3787 63.2145 85.624C63.2449 85.6638 63.2733 85.7035 63.3037 85.7411C63.4867 85.9775 63.6652 86.2184 63.8438 86.4592L64.0746 86.7774L64.2924 87.0911L64.5494 87.4623L64.7671 87.7805L64.9435 88.0434C65.1221 88.3145 65.2985 88.5885 65.4727 88.8654C65.5053 88.9206 65.5424 88.9736 65.575 89.0289C65.7732 89.3493 65.967 89.6696 66.1543 89.9944C66.2218 90.1116 66.2893 90.2265 66.3546 90.3436C66.4199 90.4607 66.4896 90.5778 66.5549 90.6971L66.7727 91.086L66.9643 91.4439C67.0188 91.5455 67.071 91.6472 67.1233 91.7488C67.2235 91.9455 67.3258 92.1443 67.4238 92.341L67.585 92.6702C67.6612 92.8271 67.7352 92.984 67.8027 93.1408C67.8593 93.2601 67.9138 93.3772 67.9682 93.4966C68.0227 93.6159 68.0945 93.775 68.1555 93.9164C68.2165 94.0578 68.2687 94.1683 68.3232 94.2942L68.4865 94.6831L68.6498 95.0764C68.7043 95.209 68.7565 95.3437 68.8088 95.4763C68.8611 95.6089 68.9111 95.737 68.9591 95.8674C69.007 95.9978 69.0636 96.1436 69.1137 96.2806L69.253 96.665C69.3053 96.8153 69.3576 96.9677 69.4076 97.118L69.5318 97.4826C69.584 97.6461 69.6341 97.8074 69.6842 97.9709C69.719 98.0836 69.7561 98.1918 69.7909 98.3089C69.8475 98.499 69.8998 98.6868 69.9542 98.8768C69.9825 98.9784 70.013 99.0801 70.0392 99.1817L74.6361 101.875C74.8103 101.977 74.9824 102.083 75.1544 102.193L75.1871 102.213C75.3547 102.321 75.5224 102.434 75.6879 102.551L75.8556 102.673C75.9667 102.752 76.0734 102.832 76.1888 102.916L76.3891 103.07L76.6853 103.307C76.7571 103.367 76.829 103.424 76.903 103.486C76.9771 103.548 77.0903 103.643 77.1818 103.725C77.2732 103.806 77.3299 103.853 77.3995 103.919L77.6717 104.169L77.8895 104.372L78.1617 104.639C78.2292 104.706 78.2967 104.772 78.3621 104.84C78.4274 104.909 78.5472 105.033 78.6408 105.132L78.8215 105.324C78.9282 105.441 79.0393 105.558 79.1395 105.678L79.2658 105.821C79.4109 105.991 79.5561 106.163 79.7013 106.338L79.7645 106.42C79.8864 106.568 80.0084 106.721 80.1259 106.873C80.2762 107.07 80.4243 107.266 80.5615 107.465V107.479C80.7792 107.764 80.9687 108.055 81.1668 108.351L81.304 108.559C81.3759 108.667 81.4456 108.78 81.5218 108.888L81.7069 109.184L81.9072 109.518L82.0706 109.796C82.2274 110.073 82.382 110.349 82.53 110.629C82.5845 110.731 82.6367 110.835 82.689 110.936L82.8545 111.261L83.0723 111.723C83.094 111.772 83.1202 111.82 83.142 111.871C83.2356 112.07 83.3249 112.271 83.4098 112.47C83.4338 112.523 83.4555 112.578 83.4773 112.631C83.5405 112.779 83.6036 112.929 83.6646 113.073L83.7452 113.279C83.8018 113.422 83.8562 113.566 83.9107 113.72L83.9782 113.906C84.0479 114.096 84.1132 114.288 84.1785 114.478C84.1785 114.496 84.1894 114.511 84.1938 114.527C84.2634 114.735 84.3266 114.942 84.3897 115.15C84.4093 115.216 84.4289 115.283 84.4464 115.349C84.4877 115.492 84.5291 115.636 84.5683 115.791C84.5879 115.87 84.6097 115.948 84.6293 116.027C84.6619 116.162 84.6968 116.295 84.7273 116.427C84.7447 116.507 84.7643 116.586 84.7817 116.666C84.8122 116.803 84.8405 116.94 84.8688 117.077C84.8819 117.15 84.8971 117.22 84.9124 117.298C84.945 117.479 84.9777 117.658 85.006 117.837L85.0191 117.912C85.0517 118.117 85.0779 118.321 85.104 118.524C85.104 118.584 85.1149 118.641 85.1214 118.699C85.1388 118.844 85.1541 118.988 85.165 119.14C85.165 119.211 85.178 119.28 85.1824 119.348C85.1933 119.487 85.1998 119.624 85.2064 119.761C85.2064 119.825 85.2064 119.892 85.2064 119.958C85.2064 120.152 85.2194 120.345 85.2172 120.537V121.383C85.2172 121.584 85.2172 121.783 85.2042 121.977C85.2042 122.033 85.2042 122.086 85.1933 122.139C85.1933 122.274 85.178 122.406 85.165 122.536C85.165 122.612 85.1497 122.685 85.1432 122.757C85.1367 122.83 85.1192 122.978 85.104 123.084C85.0888 123.191 85.0822 123.241 85.0692 123.319C85.0561 123.396 85.0365 123.515 85.0191 123.613C85.0017 123.71 84.9864 123.785 84.969 123.871L84.9276 124.11C84.9037 124.209 84.8775 124.306 84.8514 124.404C84.8253 124.501 84.81 124.556 84.7882 124.625C84.7512 124.742 84.7142 124.845 84.675 124.967C84.6532 125.027 84.6336 125.089 84.6119 125.148C84.54 125.338 84.466 125.522 84.3832 125.696C84.3201 125.833 84.2547 125.966 84.185 126.092C84.1132 126.222 84.037 126.348 83.9673 126.469C83.952 126.496 83.9346 126.518 83.9194 126.542C83.8598 126.634 83.7989 126.722 83.7365 126.808L83.6581 126.909C83.5993 126.989 83.5383 127.064 83.4751 127.13C83.4512 127.159 83.4294 127.188 83.4054 127.214C83.3183 127.314 83.2312 127.406 83.1398 127.497L83.1006 127.534C83.02 127.61 82.9394 127.685 82.8567 127.755L82.7631 127.831C82.6934 127.888 82.6193 127.945 82.5453 127.998L82.4538 128.065C82.3515 128.135 82.247 128.206 82.1381 128.268L83.6733 127.364C83.78 127.3 83.8911 127.232 83.9891 127.159L84.0805 127.093C84.1545 127.04 84.2264 126.984 84.2983 126.925L84.3897 126.849C84.4747 126.779 84.5552 126.706 84.6336 126.629L84.675 126.591C84.7643 126.503 84.8536 126.408 84.9385 126.31L85.0104 126.226C85.0735 126.151 85.1345 126.076 85.1933 126.005L85.2717 125.902C85.3326 125.818 85.3936 125.729 85.4546 125.636L85.5025 125.566L85.5156 125.544C85.5896 125.429 85.6622 125.309 85.7333 125.186C85.7987 125.064 85.864 124.938 85.9228 124.808V124.79C86.0055 124.613 86.0796 124.43 86.1514 124.242C86.157 124.226 86.1636 124.209 86.171 124.194C86.1863 124.152 86.1993 124.103 86.2146 124.059C86.2538 123.946 86.2908 123.838 86.3257 123.716C86.3365 123.685 86.3474 123.657 86.3561 123.626C86.3648 123.595 86.3779 123.535 86.391 123.491C86.4171 123.394 86.4432 123.294 86.4672 123.195C86.4672 123.153 86.489 123.115 86.4977 123.073C86.5064 123.031 86.5151 122.983 86.526 122.936C86.5434 122.852 86.5608 122.766 86.5761 122.678L86.6022 122.545C86.6022 122.495 86.6175 122.439 86.6262 122.386C86.6349 122.333 86.6501 122.229 86.661 122.15C86.661 122.11 86.6741 122.07 86.6784 122.031C86.6828 121.991 86.6915 121.891 86.7002 121.823C86.7089 121.754 86.7154 121.675 86.722 121.602C86.722 121.571 86.722 121.542 86.722 121.513C86.722 121.412 86.735 121.308 86.7416 121.206C86.7416 121.151 86.7416 121.098 86.7416 121.043C86.7416 121.03 86.7416 121.016 86.7416 121.003C86.7416 120.831 86.7525 120.658 86.7525 120.482V119.598C86.7634 119.45 86.7612 119.286 86.7568 119.123Z" fill="#25006B"/>
<path d="M32.6297 51.195C40.8611 56.0162 47.8731 66.1469 50.6103 76.2312C52.1054 76.6512 53.5396 77.2686 54.8763 78.0673C61.8164 82.1329 67.7243 90.6816 70.0304 99.1839L74.6274 101.877C80.507 105.32 85.2521 113.663 85.2325 120.515V121.361C85.215 128.211 80.4417 130.977 74.5621 127.534L10.6051 90.074C4.72769 86.6315 -0.0195382 78.2861 6.04661e-05 71.4343V70.5881C6.04661e-05 70.2368 0.0174815 69.8987 0.0414354 69.5717C0.0196591 69.1784 0.00441572 68.7873 0.00659335 68.4028C0.0327249 59.8784 5.97983 56.4382 13.2836 60.7203C14.1046 49.54 22.4601 45.2381 32.6297 51.195Z" fill="white"/>
<path d="M120.131 95.4629C120.099 95.4674 120.066 95.4674 120.033 95.4629C119.997 95.4595 119.961 95.4521 119.927 95.4408C119.886 95.4269 119.846 95.4092 119.809 95.3877L117.374 93.967H117.355L117.331 93.9537L117.307 93.9427L117.283 93.9316H117.259H117.239C117.232 93.9294 117.223 93.9294 117.215 93.9316H117.191H117.167H117.085H117.054H117.019L116.971 93.9537L112.366 96.6339C112.391 96.6187 112.419 96.6082 112.449 96.603C112.48 96.5996 112.512 96.5996 112.544 96.603C112.581 96.6073 112.618 96.6155 112.653 96.6273C112.695 96.6423 112.735 96.6615 112.773 96.6847L115.208 98.1033H115.227L115.251 98.1165L115.273 98.1276H115.297H115.321H115.336H115.36H115.384H115.41H115.493H115.528L115.565 98.1165L115.613 98.0944L120.21 95.3833C120.183 95.3992 120.153 95.4104 120.123 95.4165L120.131 95.4629Z" fill="#5F33A1"/>
<path d="M135 104.97V104.953C135 104.953 135 104.933 135 104.924C135.001 104.914 135.001 104.905 135 104.895C135 104.895 135 104.878 135 104.867C135 104.856 135 104.847 135 104.838C135 104.838 135 104.825 135 104.818C135.001 104.808 135.001 104.797 135 104.787C135 104.776 135 104.767 135 104.756C135.001 104.745 135.001 104.734 135 104.723C135.001 104.713 135.001 104.702 135 104.692C135 104.681 135 104.67 135 104.661V104.643V104.632C135 104.621 135 104.612 135 104.604C134.995 104.594 134.992 104.583 134.989 104.573L134.976 104.544L134.963 104.515L134.95 104.487L134.928 104.447C134.928 104.427 134.906 104.407 134.893 104.387C134.88 104.367 134.869 104.347 134.856 104.327C134.843 104.308 134.837 104.297 134.826 104.281L134.813 104.266C134.808 104.261 134.804 104.256 134.802 104.25L134.78 104.224L134.756 104.197C134.75 104.188 134.743 104.18 134.734 104.173L134.713 104.148L134.689 104.124L134.669 104.107L134.643 104.084L134.617 104.062L134.591 104.042L134.567 104.025L134.541 104.007L134.514 103.992L131.993 102.522C131.952 102.499 131.913 102.471 131.877 102.441C131.84 102.41 131.805 102.376 131.771 102.341C131.736 102.303 131.703 102.263 131.673 102.222C131.644 102.18 131.616 102.136 131.59 102.091C131.566 102.047 131.542 102.001 131.522 101.954C131.501 101.908 131.483 101.86 131.468 101.811C131.454 101.763 131.443 101.714 131.435 101.665C131.431 101.618 131.431 101.571 131.435 101.524L131.472 88.0343V87.9703C131.472 87.9482 131.472 87.9261 131.472 87.9018C131.472 87.8775 131.472 87.8576 131.472 87.8333C131.472 87.809 131.472 87.7891 131.472 87.7648C131.472 87.7405 131.472 87.7184 131.472 87.6963L131.459 87.63L131.446 87.5571C131.446 87.5328 131.446 87.5063 131.429 87.482L131.409 87.4091C131.404 87.3896 131.399 87.3704 131.392 87.3516V87.3383C131.392 87.314 131.377 87.2919 131.37 87.2676C131.363 87.2433 131.353 87.219 131.346 87.1947L131.32 87.1262L131.294 87.0599C131.294 87.0423 131.279 87.0246 131.272 87.0091V86.9981C131.272 86.9738 131.25 86.9517 131.241 86.9296C131.233 86.9075 131.218 86.881 131.207 86.8567C131.196 86.8324 131.178 86.7992 131.163 86.7727C131.148 86.7462 131.13 86.713 131.115 86.6843C131.114 86.6792 131.114 86.674 131.115 86.6689C131.114 86.6622 131.114 86.6556 131.115 86.649C131.083 86.5937 131.048 86.5385 131.013 86.4833L130.926 86.3595L130.865 86.28C130.848 86.2562 130.83 86.2333 130.81 86.2115L130.758 86.1496L130.704 86.09L130.662 86.0458L130.603 85.9861L130.542 85.9309L130.481 85.8756L130.451 85.8513L130.427 85.8314L130.366 85.785L130.307 85.7431C130.288 85.7276 130.268 85.7165 130.248 85.7033L130.192 85.6657H130.177L121.902 80.8048L121.856 80.7804L121.801 80.7517L121.764 80.7341L121.71 80.7097C121.691 80.7021 121.673 80.6955 121.653 80.6899L121.616 80.6766L121.56 80.6611H121.531H121.521H121.503H121.442H121.407H121.246C121.22 80.6611 121.192 80.6611 121.168 80.6744H121.15L121.072 80.6965C121.035 80.7103 120.999 80.7273 120.965 80.7473L116.368 83.4562C116.402 83.4368 116.438 83.4206 116.475 83.4076C116.502 83.3972 116.53 83.389 116.558 83.3833H116.575C116.609 83.3766 116.643 83.3721 116.677 83.37H116.817C116.855 83.3728 116.893 83.3787 116.93 83.3877H116.943C116.984 83.3967 117.024 83.4085 117.063 83.4231L117.194 83.4761C117.239 83.496 117.283 83.5203 117.331 83.5468L125.606 88.3967C125.702 88.4529 125.794 88.5172 125.88 88.5889C125.97 88.6634 126.054 88.7438 126.133 88.8298C126.215 88.9188 126.292 89.0125 126.364 89.1104C126.433 89.2098 126.501 89.3115 126.562 89.4197V89.4352C126.621 89.5405 126.675 89.6489 126.723 89.76C126.77 89.8718 126.812 89.9861 126.847 90.1025C126.879 90.2158 126.906 90.3309 126.925 90.4472C126.943 90.559 126.951 90.672 126.952 90.7852L126.915 104.274V104.301C126.913 104.31 126.913 104.32 126.915 104.33C126.913 104.339 126.913 104.349 126.915 104.358C126.915 104.358 126.915 104.378 126.915 104.387C126.915 104.396 126.915 104.407 126.915 104.416C126.916 104.425 126.916 104.435 126.915 104.445V104.475V104.506C126.916 104.517 126.916 104.527 126.915 104.537V104.562C126.915 104.562 126.915 104.582 126.915 104.593V104.621C126.925 104.65 126.925 104.65 126.936 104.679C126.936 104.679 126.936 104.694 126.947 104.701L126.96 104.73C126.96 104.73 126.96 104.749 126.976 104.761L126.993 104.796L127.013 104.833C127.026 104.858 127.041 104.88 127.056 104.904L127.093 104.957C127.101 104.969 127.11 104.98 127.119 104.99C127.125 105.001 127.133 105.01 127.141 105.019L127.163 105.046L127.185 105.072L127.202 105.092L127.226 105.116L127.252 105.141L127.278 105.163L127.291 105.174L127.315 105.194L127.341 105.211L127.365 105.227L127.391 105.242L129.82 106.665C129.88 106.7 129.936 106.741 129.987 106.789C130.038 106.838 130.086 106.891 130.129 106.948C130.172 107.006 130.21 107.067 130.244 107.131C130.278 107.195 130.307 107.26 130.331 107.328C130.353 107.392 130.369 107.458 130.381 107.525C130.392 107.585 130.396 107.647 130.394 107.708C130.396 107.815 130.357 107.919 130.286 107.997L121.73 116.785C121.711 116.802 121.691 116.817 121.671 116.831L126.268 114.12L126.327 114.074L134.887 105.297C134.903 105.281 134.916 105.262 134.928 105.242C134.937 105.229 134.945 105.215 134.952 105.2L134.965 105.169L134.976 105.136V105.107V105.079C134.975 105.07 134.975 105.061 134.976 105.052C134.976 105.052 134.976 105.035 134.976 105.026V105.006V104.973L135 104.97Z" fill="#5F33A1"/>
<path d="M125.484 88.3239C125.884 88.5874 126.216 88.9432 126.455 89.3621C126.693 89.7811 126.831 90.2513 126.856 90.7345L126.819 104.224C126.829 104.427 126.887 104.626 126.987 104.802C127.087 104.979 127.227 105.129 127.396 105.24L129.824 106.663C130.299 106.939 130.569 107.724 130.292 108.006L121.73 116.785C121.662 116.839 121.579 116.869 121.493 116.869C121.407 116.869 121.324 116.839 121.257 116.785C121.05 116.651 120.887 116.457 120.789 116.228L112.296 97.4669C112.022 96.8593 112.296 96.3953 112.769 96.6737L115.208 98.1033C115.528 98.2889 115.789 98.1386 115.789 97.7652L115.828 84.287C115.828 83.4032 116.449 83.0431 117.209 83.4872L125.484 88.3239Z" fill="white"/>
<path d="M25.6307 2.79079C25.8383 2.92456 26.0014 3.11856 26.0989 3.3476L34.5917 22.1066C34.8682 22.7142 34.5917 23.1804 34.117 22.902L31.6911 21.4813C31.3688 21.2934 31.1096 21.4437 31.1096 21.8171L31.0726 35.3063C31.0726 36.1901 30.4498 36.5503 29.6898 36.1062L21.4148 31.2584C21.0133 30.9954 20.6789 30.6397 20.4389 30.2203C20.199 29.8009 20.0603 29.3298 20.0342 28.8456L20.0734 15.3564C20.0623 15.1528 20.004 14.9546 19.9034 14.778C19.8028 14.6015 19.6626 14.4514 19.4942 14.34L17.0639 12.9171C16.5914 12.6409 16.3192 11.8543 16.5979 11.5693L25.1604 2.79521C25.2268 2.74081 25.3094 2.71078 25.3948 2.70998C25.4802 2.70918 25.5633 2.73765 25.6307 2.79079Z" fill="#5F33A1"/>
</g>
<defs>
<clipPath id="clip0">
<rect width="135" height="149" fill="white"/>
</clipPath>
</defs>
</svg>
