<svg width="161" height="51" viewBox="0 0 161 51" fill="none" xmlns="http://www.w3.org/2000/svg">
<rect x="0.5" y="0.5" width="157" height="50" rx="4.5" fill="#222222" stroke="white"/>
<path d="M17.5508 34.697C17.5508 35.6339 18.2969 36.3986 19.2148 36.3986H21.1172V41.2193C21.1172 42.4405 22.0742 43.4375 23.25 43.4375C24.4297 43.4375 25.3828 42.4445 25.3828 41.2193V36.3946H28.7031V41.2153C28.7031 42.4365 29.6602 43.4335 30.8359 43.4335C32.0156 43.4335 32.9687 42.4405 32.9687 41.2153V36.3946H34.8711C35.7891 36.3946 36.5352 35.6299 36.5352 34.693V18.8695H17.5508V34.697ZM31.5 10.6695L33.2539 8.06699C33.3555 7.91485 33.332 7.71065 33.1953 7.61055C33.0586 7.51446 32.8633 7.5625 32.7617 7.71465L30.9414 10.4213C29.7422 9.93682 28.4062 9.66856 27.0039 9.66856C25.6016 9.66856 24.2656 9.93682 23.0664 10.4213L21.2461 7.71865C21.1445 7.56651 20.9492 7.51446 20.8125 7.61455C20.6758 7.71065 20.6523 7.91084 20.7539 8.071L22.5078 10.6735C19.7187 12.0028 17.7656 14.5213 17.5156 17.4642H36.5C36.2422 14.5173 34.2852 11.9988 31.5 10.6695ZM22.9961 14.7735C22.7883 14.7735 22.5851 14.7104 22.4123 14.592C22.2395 14.4737 22.1048 14.3055 22.0253 14.1087C21.9458 13.9118 21.925 13.6953 21.9655 13.4864C22.006 13.2774 22.1061 13.0855 22.2531 12.9349C22.4 12.7843 22.5873 12.6817 22.7911 12.6401C22.9949 12.5986 23.2062 12.6199 23.3982 12.7014C23.5902 12.7829 23.7543 12.921 23.8698 13.0981C23.9852 13.2752 24.0469 13.4835 24.0469 13.6965C24.0462 13.9819 23.9352 14.2554 23.7383 14.4573C23.5414 14.6591 23.2746 14.7728 22.9961 14.7735ZM31.1367 14.7735C30.9289 14.7735 30.7257 14.7104 30.5529 14.592C30.3801 14.4737 30.2455 14.3055 30.1659 14.1087C30.0864 13.9118 30.0656 13.6953 30.1061 13.4864C30.1467 13.2774 30.2467 13.0855 30.3937 12.9349C30.5407 12.7843 30.7279 12.6817 30.9317 12.6401C31.1356 12.5986 31.3468 12.6199 31.5388 12.7014C31.7308 12.7829 31.8949 12.921 32.0104 13.0981C32.1259 13.2752 32.1875 13.4835 32.1875 13.6965C32.1868 13.9819 32.0758 14.2554 31.8789 14.4573C31.682 14.6591 31.4152 14.7728 31.1367 14.7735ZM39.8633 18.8055C38.6836 18.8055 37.7305 19.7984 37.7305 21.0236V29.6881C37.7305 30.9093 38.6875 31.9062 39.8633 31.9062C41.043 31.9062 41.9961 30.9133 41.9961 29.6881V21.0196C42 19.7944 41.0469 18.8055 39.8633 18.8055ZM14.1367 18.8055C12.957 18.8055 12.0039 19.7984 12.0039 21.0236V29.6881C12.0039 30.9093 12.9609 31.9062 14.1367 31.9062C15.3164 31.9062 16.2695 30.9133 16.2695 29.6881V21.0196C16.2695 19.7944 15.3125 18.8055 14.1367 18.8055Z" fill="white"/>
<path d="M54.8252 20V12.8906H56.832C57.4505 12.8906 57.9974 13.0273 58.4727 13.3008C58.9479 13.5742 59.3141 13.9632 59.5713 14.4678C59.8317 14.9723 59.9635 15.5518 59.9668 16.2061V16.6602C59.9668 17.3307 59.8366 17.9183 59.5762 18.4229C59.319 18.9274 58.9495 19.3148 58.4678 19.585C57.9893 19.8551 57.431 19.9935 56.793 20H54.8252ZM55.7627 13.6621V19.2334H56.749C57.4717 19.2334 58.0332 19.0088 58.4336 18.5596C58.8372 18.1104 59.0391 17.4707 59.0391 16.6406V16.2256C59.0391 15.4183 58.8486 14.7917 58.4678 14.3457C58.0902 13.8965 57.5531 13.6686 56.8564 13.6621H55.7627ZM66.8564 16.6748C66.8564 17.3714 66.7393 17.9801 66.5049 18.501C66.2705 19.0186 65.9385 19.4141 65.5088 19.6875C65.0791 19.9609 64.5778 20.0977 64.0049 20.0977C63.445 20.0977 62.9486 19.9609 62.5156 19.6875C62.0827 19.4108 61.7458 19.0186 61.5049 18.5107C61.2673 17.9997 61.1452 17.4089 61.1387 16.7383V16.2256C61.1387 15.542 61.2575 14.9382 61.4951 14.4141C61.7327 13.89 62.068 13.4896 62.501 13.2129C62.9372 12.9329 63.4352 12.793 63.9951 12.793C64.5648 12.793 65.0661 12.9313 65.499 13.208C65.9352 13.4814 66.2705 13.8802 66.5049 14.4043C66.7393 14.9251 66.8564 15.5322 66.8564 16.2256V16.6748ZM65.9238 16.2158C65.9238 15.3727 65.7546 14.7266 65.416 14.2773C65.0775 13.8249 64.6038 13.5986 63.9951 13.5986C63.4027 13.5986 62.9355 13.8249 62.5938 14.2773C62.2552 14.7266 62.0811 15.3516 62.0713 16.1523V16.6748C62.0713 17.4919 62.2422 18.1348 62.584 18.6035C62.929 19.069 63.4027 19.3018 64.0049 19.3018C64.6104 19.3018 65.0791 19.082 65.4111 18.6426C65.7432 18.1999 65.9141 17.5667 65.9238 16.7432V16.2158ZM69.7959 17.7588L69.9326 18.6963L70.1328 17.8516L71.5391 12.8906H72.3301L73.7021 17.8516L73.8975 18.7109L74.0488 17.7539L75.1523 12.8906H76.0947L74.3711 20H73.5166L72.0518 14.8193L71.9395 14.2773L71.8271 14.8193L70.3086 20H69.4541L67.7354 12.8906H68.6729L69.7959 17.7588ZM82.6035 20H81.6611L78.082 14.5215V20H77.1396V12.8906H78.082L81.6709 18.3936V12.8906H82.6035V20ZM85.2109 19.2334H88.5801V20H84.2686V12.8906H85.2109V19.2334ZM94.7959 16.6748C94.7959 17.3714 94.6787 17.9801 94.4443 18.501C94.21 19.0186 93.8779 19.4141 93.4482 19.6875C93.0186 19.9609 92.5173 20.0977 91.9443 20.0977C91.3844 20.0977 90.888 19.9609 90.4551 19.6875C90.0221 19.4108 89.6852 19.0186 89.4443 18.5107C89.2067 17.9997 89.0846 17.4089 89.0781 16.7383V16.2256C89.0781 15.542 89.1969 14.9382 89.4346 14.4141C89.6722 13.89 90.0075 13.4896 90.4404 13.2129C90.8766 12.9329 91.3747 12.793 91.9346 12.793C92.5042 12.793 93.0055 12.9313 93.4385 13.208C93.8747 13.4814 94.21 13.8802 94.4443 14.4043C94.6787 14.9251 94.7959 15.5322 94.7959 16.2256V16.6748ZM93.8633 16.2158C93.8633 15.3727 93.694 14.7266 93.3555 14.2773C93.0169 13.8249 92.5433 13.5986 91.9346 13.5986C91.3421 13.5986 90.875 13.8249 90.5332 14.2773C90.1947 14.7266 90.0205 15.3516 90.0107 16.1523V16.6748C90.0107 17.4919 90.1816 18.1348 90.5234 18.6035C90.8685 19.069 91.3421 19.3018 91.9443 19.3018C92.5498 19.3018 93.0186 19.082 93.3506 18.6426C93.6826 18.1999 93.8535 17.5667 93.8633 16.7432V16.2158ZM100.021 18.1445H97.042L96.373 20H95.4062L98.1211 12.8906H98.9414L101.661 20H100.699L100.021 18.1445ZM97.3252 17.373H99.7422L98.5312 14.0479L97.3252 17.373ZM102.618 20V12.8906H104.625C105.243 12.8906 105.79 13.0273 106.266 13.3008C106.741 13.5742 107.107 13.9632 107.364 14.4678C107.625 14.9723 107.757 15.5518 107.76 16.2061V16.6602C107.76 17.3307 107.63 17.9183 107.369 18.4229C107.112 18.9274 106.743 19.3148 106.261 19.585C105.782 19.8551 105.224 19.9935 104.586 20H102.618ZM103.556 13.6621V19.2334H104.542C105.265 19.2334 105.826 19.0088 106.227 18.5596C106.63 18.1104 106.832 17.4707 106.832 16.6406V16.2256C106.832 15.4183 106.642 14.7917 106.261 14.3457C105.883 13.8965 105.346 13.6686 104.649 13.6621H103.556ZM115.587 18.1445H112.608L111.939 20H110.973L113.688 12.8906H114.508L117.228 20H116.266L115.587 18.1445ZM112.892 17.373H115.309L114.098 14.0479L112.892 17.373ZM119.122 17.2168V20H118.185V12.8906H120.807C121.585 12.8906 122.193 13.0892 122.633 13.4863C123.076 13.8835 123.297 14.4092 123.297 15.0635C123.297 15.7536 123.08 16.2858 122.647 16.6602C122.218 17.0312 121.601 17.2168 120.797 17.2168H119.122ZM119.122 16.4502H120.807C121.308 16.4502 121.692 16.333 121.959 16.0986C122.226 15.861 122.359 15.5192 122.359 15.0732C122.359 14.6501 122.226 14.3115 121.959 14.0576C121.692 13.8037 121.326 13.6719 120.86 13.6621H119.122V16.4502ZM126.3 16.6943L125.431 17.5977V20H124.493V12.8906H125.431V16.4062L128.59 12.8906H129.723L126.925 16.0303L129.942 20H128.819L126.3 16.6943ZM136.554 12.8857V13.6523H136.388C135.685 13.6654 135.125 13.8737 134.708 14.2773C134.291 14.681 134.05 15.249 133.985 15.9814C134.36 15.5518 134.871 15.3369 135.519 15.3369C136.137 15.3369 136.63 15.555 136.998 15.9912C137.369 16.4274 137.555 16.9906 137.555 17.6807C137.555 18.4131 137.354 18.999 136.954 19.4385C136.557 19.8779 136.023 20.0977 135.353 20.0977C134.672 20.0977 134.12 19.8372 133.697 19.3164C133.274 18.7923 133.062 18.1185 133.062 17.2949V16.9482C133.062 15.6396 133.341 14.6403 133.897 13.9502C134.457 13.2568 135.289 12.902 136.393 12.8857H136.554ZM135.367 16.0889C135.058 16.0889 134.773 16.1816 134.513 16.3672C134.252 16.5527 134.072 16.7855 133.971 17.0654V17.3975C133.971 17.9834 134.103 18.4554 134.366 18.8135C134.63 19.1715 134.959 19.3506 135.353 19.3506C135.759 19.3506 136.078 19.2008 136.31 18.9014C136.544 18.6019 136.661 18.2096 136.661 17.7246C136.661 17.2363 136.542 16.8424 136.305 16.543C136.07 16.2402 135.758 16.0889 135.367 16.0889ZM138.736 19.5264C138.736 19.3701 138.782 19.2399 138.873 19.1357C138.967 19.0316 139.107 18.9795 139.293 18.9795C139.479 18.9795 139.618 19.0316 139.713 19.1357C139.811 19.2399 139.859 19.3701 139.859 19.5264C139.859 19.6761 139.811 19.8014 139.713 19.9023C139.618 20.0033 139.479 20.0537 139.293 20.0537C139.107 20.0537 138.967 20.0033 138.873 19.9023C138.782 19.8014 138.736 19.6761 138.736 19.5264ZM145.719 16.9678C145.719 18.0257 145.538 18.8118 145.177 19.3262C144.815 19.8405 144.251 20.0977 143.482 20.0977C142.724 20.0977 142.162 19.847 141.798 19.3457C141.433 18.8411 141.244 18.0892 141.231 17.0898V15.8838C141.231 14.8389 141.412 14.0625 141.773 13.5547C142.135 13.0469 142.701 12.793 143.473 12.793C144.238 12.793 144.801 13.0387 145.162 13.5303C145.523 14.0186 145.709 14.7738 145.719 15.7959V16.9678ZM144.815 15.7324C144.815 14.9674 144.708 14.4108 144.493 14.0625C144.278 13.7109 143.938 13.5352 143.473 13.5352C143.01 13.5352 142.674 13.7093 142.462 14.0576C142.25 14.4059 142.141 14.9414 142.135 15.6641V17.1094C142.135 17.8776 142.245 18.4456 142.467 18.8135C142.691 19.1781 143.03 19.3604 143.482 19.3604C143.928 19.3604 144.259 19.1878 144.474 18.8428C144.692 18.4977 144.806 17.9541 144.815 17.2119V15.7324ZM149.557 16.1865H151.539V17.041H149.557V19.2871H148.648V17.041H146.666V16.1865H148.648V14.1113H149.557V16.1865Z" fill="white"/>
<path d="M62.4639 37.0205H57.5068L56.4697 40H54.1582L58.9922 27.2031H60.9873L65.8301 40H63.5098L62.4639 37.0205ZM58.1309 35.2275H61.8398L59.9854 29.9189L58.1309 35.2275ZM68.6426 30.4902L68.7041 31.5889C69.4072 30.7393 70.3301 30.3145 71.4727 30.3145C73.4531 30.3145 74.4609 31.4482 74.4961 33.7158V40H72.3604V33.8389C72.3604 33.2354 72.2285 32.79 71.9648 32.5029C71.707 32.21 71.2822 32.0635 70.6904 32.0635C69.8291 32.0635 69.1875 32.4531 68.7656 33.2324V40H66.6299V30.4902H68.6426ZM76.2803 35.1748C76.2803 33.71 76.6201 32.5352 77.2998 31.6504C77.9795 30.7598 78.8906 30.3145 80.0332 30.3145C81.041 30.3145 81.8555 30.666 82.4766 31.3691V26.5H84.6123V40H82.6787L82.5732 39.0156C81.9346 39.7891 81.082 40.1758 80.0156 40.1758C78.9023 40.1758 78 39.7275 77.3086 38.8311C76.623 37.9346 76.2803 36.7158 76.2803 35.1748ZM78.416 35.3594C78.416 36.3262 78.6006 37.082 78.9697 37.627C79.3447 38.166 79.875 38.4355 80.5605 38.4355C81.4336 38.4355 82.0723 38.0459 82.4766 37.2666V33.2061C82.084 32.4443 81.4512 32.0635 80.5781 32.0635C79.8867 32.0635 79.3535 32.3389 78.9785 32.8896C78.6035 33.4346 78.416 34.2578 78.416 35.3594ZM91.8193 32.4414C91.5381 32.3945 91.248 32.3711 90.9492 32.3711C89.9707 32.3711 89.3115 32.7461 88.9717 33.4961V40H86.8359V30.4902H88.875L88.9277 31.5537C89.4434 30.7275 90.1582 30.3145 91.0723 30.3145C91.377 30.3145 91.6289 30.3555 91.8281 30.4375L91.8193 32.4414ZM92.4521 35.1572C92.4521 34.2256 92.6367 33.3877 93.0059 32.6436C93.375 31.8936 93.8936 31.3193 94.5615 30.9209C95.2295 30.5166 95.9971 30.3145 96.8643 30.3145C98.1475 30.3145 99.1875 30.7275 99.9844 31.5537C100.787 32.3799 101.221 33.4756 101.285 34.8408L101.294 35.3418C101.294 36.2793 101.112 37.1172 100.749 37.8555C100.392 38.5938 99.876 39.165 99.2021 39.5693C98.5342 39.9736 97.7607 40.1758 96.8818 40.1758C95.54 40.1758 94.4648 39.7305 93.6562 38.8398C92.8535 37.9434 92.4521 36.751 92.4521 35.2627V35.1572ZM94.5879 35.3418C94.5879 36.3203 94.79 37.0879 95.1943 37.6445C95.5986 38.1953 96.1611 38.4707 96.8818 38.4707C97.6025 38.4707 98.1621 38.1895 98.5605 37.627C98.9648 37.0645 99.167 36.2412 99.167 35.1572C99.167 34.1963 98.959 33.4346 98.543 32.8721C98.1328 32.3096 97.5732 32.0283 96.8643 32.0283C96.167 32.0283 95.6133 32.3066 95.2031 32.8633C94.793 33.4141 94.5879 34.2402 94.5879 35.3418ZM105.372 40H103.236V30.4902H105.372V40ZM103.104 28.0205C103.104 27.6924 103.207 27.4199 103.412 27.2031C103.623 26.9863 103.922 26.8779 104.309 26.8779C104.695 26.8779 104.994 26.9863 105.205 27.2031C105.416 27.4199 105.521 27.6924 105.521 28.0205C105.521 28.3428 105.416 28.6123 105.205 28.8291C104.994 29.04 104.695 29.1455 104.309 29.1455C103.922 29.1455 103.623 29.04 103.412 28.8291C103.207 28.6123 103.104 28.3428 103.104 28.0205ZM107.306 35.1748C107.306 33.71 107.646 32.5352 108.325 31.6504C109.005 30.7598 109.916 30.3145 111.059 30.3145C112.066 30.3145 112.881 30.666 113.502 31.3691V26.5H115.638V40H113.704L113.599 39.0156C112.96 39.7891 112.107 40.1758 111.041 40.1758C109.928 40.1758 109.025 39.7275 108.334 38.8311C107.648 37.9346 107.306 36.7158 107.306 35.1748ZM109.441 35.3594C109.441 36.3262 109.626 37.082 109.995 37.627C110.37 38.166 110.9 38.4355 111.586 38.4355C112.459 38.4355 113.098 38.0459 113.502 37.2666V33.2061C113.109 32.4443 112.477 32.0635 111.604 32.0635C110.912 32.0635 110.379 32.3389 110.004 32.8896C109.629 33.4346 109.441 34.2578 109.441 35.3594Z" fill="white"/>
</svg>
