<svg width="158" height="51" viewBox="0 0 158 51" fill="none" xmlns="http://www.w3.org/2000/svg">
<rect x="0.5" y="0.5" width="157" height="50" rx="4.5" fill="#222222" stroke="white"/>
<path d="M31.2758 25.8332C31.2617 23.4355 32.348 21.6285 34.5418 20.2961C33.3148 18.5383 31.4586 17.5715 29.0117 17.3852C26.6949 17.2023 24.1602 18.7352 23.232 18.7352C22.2512 18.7352 20.0082 17.4484 18.2434 17.4484C14.6012 17.5047 10.7305 20.3523 10.7305 26.1461C10.7305 27.8582 11.0434 29.6266 11.6691 31.4477C12.5059 33.8453 15.5223 39.7199 18.6687 39.625C20.3141 39.5863 21.4777 38.4578 23.6187 38.4578C25.6965 38.4578 26.7723 39.625 28.6074 39.625C31.782 39.5793 34.5102 34.2391 35.3047 31.8344C31.0473 29.827 31.2758 25.9563 31.2758 25.8332ZM27.5809 15.1105C29.3633 12.9941 29.2016 11.0676 29.1488 10.375C27.5738 10.4664 25.7527 11.4473 24.7156 12.6531C23.573 13.9469 22.9016 15.5465 23.0457 17.35C24.7473 17.4801 26.3012 16.6047 27.5809 15.1105Z" fill="white"/>
<path d="M50.8252 20V12.8906H52.832C53.4505 12.8906 53.9974 13.0273 54.4727 13.3008C54.9479 13.5742 55.3141 13.9632 55.5713 14.4678C55.8317 14.9723 55.9635 15.5518 55.9668 16.2061V16.6602C55.9668 17.3307 55.8366 17.9183 55.5762 18.4229C55.319 18.9274 54.9495 19.3148 54.4678 19.585C53.9893 19.8551 53.431 19.9935 52.793 20H50.8252ZM51.7627 13.6621V19.2334H52.749C53.4717 19.2334 54.0332 19.0088 54.4336 18.5596C54.8372 18.1104 55.0391 17.4707 55.0391 16.6406V16.2256C55.0391 15.4183 54.8486 14.7917 54.4678 14.3457C54.0902 13.8965 53.5531 13.6686 52.8564 13.6621H51.7627ZM62.8564 16.6748C62.8564 17.3714 62.7393 17.9801 62.5049 18.501C62.2705 19.0186 61.9385 19.4141 61.5088 19.6875C61.0791 19.9609 60.5778 20.0977 60.0049 20.0977C59.445 20.0977 58.9486 19.9609 58.5156 19.6875C58.0827 19.4108 57.7458 19.0186 57.5049 18.5107C57.2673 17.9997 57.1452 17.4089 57.1387 16.7383V16.2256C57.1387 15.542 57.2575 14.9382 57.4951 14.4141C57.7327 13.89 58.068 13.4896 58.501 13.2129C58.9372 12.9329 59.4352 12.793 59.9951 12.793C60.5648 12.793 61.0661 12.9313 61.499 13.208C61.9352 13.4814 62.2705 13.8802 62.5049 14.4043C62.7393 14.9251 62.8564 15.5322 62.8564 16.2256V16.6748ZM61.9238 16.2158C61.9238 15.3727 61.7546 14.7266 61.416 14.2773C61.0775 13.8249 60.6038 13.5986 59.9951 13.5986C59.4027 13.5986 58.9355 13.8249 58.5938 14.2773C58.2552 14.7266 58.0811 15.3516 58.0713 16.1523V16.6748C58.0713 17.4919 58.2422 18.1348 58.584 18.6035C58.929 19.069 59.4027 19.3018 60.0049 19.3018C60.6104 19.3018 61.0791 19.082 61.4111 18.6426C61.7432 18.1999 61.9141 17.5667 61.9238 16.7432V16.2158ZM65.7959 17.7588L65.9326 18.6963L66.1328 17.8516L67.5391 12.8906H68.3301L69.7021 17.8516L69.8975 18.7109L70.0488 17.7539L71.1523 12.8906H72.0947L70.3711 20H69.5166L68.0518 14.8193L67.9395 14.2773L67.8271 14.8193L66.3086 20H65.4541L63.7354 12.8906H64.6729L65.7959 17.7588ZM78.6035 20H77.6611L74.082 14.5215V20H73.1396V12.8906H74.082L77.6709 18.3936V12.8906H78.6035V20ZM81.2109 19.2334H84.5801V20H80.2686V12.8906H81.2109V19.2334ZM90.7959 16.6748C90.7959 17.3714 90.6787 17.9801 90.4443 18.501C90.21 19.0186 89.8779 19.4141 89.4482 19.6875C89.0186 19.9609 88.5173 20.0977 87.9443 20.0977C87.3844 20.0977 86.888 19.9609 86.4551 19.6875C86.0221 19.4108 85.6852 19.0186 85.4443 18.5107C85.2067 17.9997 85.0846 17.4089 85.0781 16.7383V16.2256C85.0781 15.542 85.1969 14.9382 85.4346 14.4141C85.6722 13.89 86.0075 13.4896 86.4404 13.2129C86.8766 12.9329 87.3747 12.793 87.9346 12.793C88.5042 12.793 89.0055 12.9313 89.4385 13.208C89.8747 13.4814 90.21 13.8802 90.4443 14.4043C90.6787 14.9251 90.7959 15.5322 90.7959 16.2256V16.6748ZM89.8633 16.2158C89.8633 15.3727 89.694 14.7266 89.3555 14.2773C89.0169 13.8249 88.5433 13.5986 87.9346 13.5986C87.3421 13.5986 86.875 13.8249 86.5332 14.2773C86.1947 14.7266 86.0205 15.3516 86.0107 16.1523V16.6748C86.0107 17.4919 86.1816 18.1348 86.5234 18.6035C86.8685 19.069 87.3421 19.3018 87.9443 19.3018C88.5498 19.3018 89.0186 19.082 89.3506 18.6426C89.6826 18.1999 89.8535 17.5667 89.8633 16.7432V16.2158ZM96.0205 18.1445H93.042L92.373 20H91.4062L94.1211 12.8906H94.9414L97.6611 20H96.6992L96.0205 18.1445ZM93.3252 17.373H95.7422L94.5312 14.0479L93.3252 17.373ZM98.6182 20V12.8906H100.625C101.243 12.8906 101.79 13.0273 102.266 13.3008C102.741 13.5742 103.107 13.9632 103.364 14.4678C103.625 14.9723 103.757 15.5518 103.76 16.2061V16.6602C103.76 17.3307 103.63 17.9183 103.369 18.4229C103.112 18.9274 102.743 19.3148 102.261 19.585C101.782 19.8551 101.224 19.9935 100.586 20H98.6182ZM99.5557 13.6621V19.2334H100.542C101.265 19.2334 101.826 19.0088 102.227 18.5596C102.63 18.1104 102.832 17.4707 102.832 16.6406V16.2256C102.832 15.4183 102.642 14.7917 102.261 14.3457C101.883 13.8965 101.346 13.6686 100.649 13.6621H99.5557ZM113.13 16.6748C113.13 17.3714 113.013 17.9801 112.778 18.501C112.544 19.0186 112.212 19.4141 111.782 19.6875C111.353 19.9609 110.851 20.0977 110.278 20.0977C109.718 20.0977 109.222 19.9609 108.789 19.6875C108.356 19.4108 108.019 19.0186 107.778 18.5107C107.541 17.9997 107.419 17.4089 107.412 16.7383V16.2256C107.412 15.542 107.531 14.9382 107.769 14.4141C108.006 13.89 108.341 13.4896 108.774 13.2129C109.211 12.9329 109.709 12.793 110.269 12.793C110.838 12.793 111.34 12.9313 111.772 13.208C112.209 13.4814 112.544 13.8802 112.778 14.4043C113.013 14.9251 113.13 15.5322 113.13 16.2256V16.6748ZM112.197 16.2158C112.197 15.3727 112.028 14.7266 111.689 14.2773C111.351 13.8249 110.877 13.5986 110.269 13.5986C109.676 13.5986 109.209 13.8249 108.867 14.2773C108.529 14.7266 108.354 15.3516 108.345 16.1523V16.6748C108.345 17.4919 108.516 18.1348 108.857 18.6035C109.202 19.069 109.676 19.3018 110.278 19.3018C110.884 19.3018 111.353 19.082 111.685 18.6426C112.017 18.1999 112.188 17.5667 112.197 16.7432V16.2158ZM120 20H119.058L115.479 14.5215V20H114.536V12.8906H115.479L119.067 18.3936V12.8906H120V20ZM128.862 13.6621H126.577V20H125.645V13.6621H123.364V12.8906H128.862V13.6621ZM135.381 20H134.438V16.7139H130.854V20H129.917V12.8906H130.854V15.9473H134.438V12.8906H135.381V20ZM141.064 16.7139H137.983V19.2334H141.562V20H137.046V12.8906H141.514V13.6621H137.983V15.9473H141.064V16.7139Z" fill="white"/>
<path d="M58.4639 37.0205H53.5068L52.4697 40H50.1582L54.9922 27.2031H56.9873L61.8301 40H59.5098L58.4639 37.0205ZM54.1309 35.2275H57.8398L55.9854 29.9189L54.1309 35.2275ZM70.9883 35.3418C70.9883 36.8125 70.6543 37.9873 69.9863 38.8662C69.3184 39.7393 68.4219 40.1758 67.2969 40.1758C66.2539 40.1758 65.4189 39.833 64.792 39.1475V43.6562H62.6562V30.4902H64.625L64.7129 31.457C65.3398 30.6953 66.1924 30.3145 67.2705 30.3145C68.4307 30.3145 69.3389 30.748 69.9951 31.6152C70.6572 32.4766 70.9883 33.6748 70.9883 35.21V35.3418ZM68.8613 35.1572C68.8613 34.208 68.6709 33.4551 68.29 32.8984C67.915 32.3418 67.376 32.0635 66.6729 32.0635C65.7998 32.0635 65.1729 32.4238 64.792 33.1445V37.3633C65.1787 38.1016 65.8115 38.4707 66.6904 38.4707C67.3701 38.4707 67.9004 38.1982 68.2812 37.6533C68.668 37.1025 68.8613 36.2705 68.8613 35.1572ZM81.1309 35.3418C81.1309 36.8125 80.7969 37.9873 80.1289 38.8662C79.4609 39.7393 78.5645 40.1758 77.4395 40.1758C76.3965 40.1758 75.5615 39.833 74.9346 39.1475V43.6562H72.7988V30.4902H74.7676L74.8555 31.457C75.4824 30.6953 76.335 30.3145 77.4131 30.3145C78.5732 30.3145 79.4814 30.748 80.1377 31.6152C80.7998 32.4766 81.1309 33.6748 81.1309 35.21V35.3418ZM79.0039 35.1572C79.0039 34.208 78.8135 33.4551 78.4326 32.8984C78.0576 32.3418 77.5186 32.0635 76.8154 32.0635C75.9424 32.0635 75.3154 32.4238 74.9346 33.1445V37.3633C75.3213 38.1016 75.9541 38.4707 76.833 38.4707C77.5127 38.4707 78.043 38.1982 78.4238 37.6533C78.8105 37.1025 79.0039 36.2705 79.0039 35.1572ZM85.2178 40H83.082V26.5H85.2178V40ZM91.7393 40.1758C90.3857 40.1758 89.2871 39.751 88.4434 38.9014C87.6055 38.0459 87.1865 36.9092 87.1865 35.4912V35.2275C87.1865 34.2783 87.3682 33.4316 87.7314 32.6875C88.1006 31.9375 88.6162 31.3545 89.2783 30.9385C89.9404 30.5225 90.6787 30.3145 91.4932 30.3145C92.7881 30.3145 93.7871 30.7275 94.4902 31.5537C95.1992 32.3799 95.5537 33.5488 95.5537 35.0605V35.9219H89.3398C89.4043 36.707 89.665 37.3281 90.1221 37.7852C90.585 38.2422 91.165 38.4707 91.8623 38.4707C92.8408 38.4707 93.6377 38.0752 94.2529 37.2842L95.4043 38.3828C95.0234 38.9512 94.5137 39.3936 93.875 39.71C93.2422 40.0205 92.5303 40.1758 91.7393 40.1758ZM91.4844 32.0283C90.8984 32.0283 90.4238 32.2334 90.0605 32.6436C89.7031 33.0537 89.4746 33.625 89.375 34.3574H93.4443V34.1992C93.3975 33.4844 93.207 32.9453 92.873 32.582C92.5391 32.2129 92.0762 32.0283 91.4844 32.0283ZM108.597 36.7041C108.597 36.1416 108.397 35.708 107.999 35.4033C107.606 35.0986 106.895 34.791 105.863 34.4805C104.832 34.1699 104.012 33.8242 103.402 33.4434C102.236 32.7109 101.653 31.7559 101.653 30.5781C101.653 29.5469 102.072 28.6973 102.91 28.0293C103.754 27.3613 104.847 27.0273 106.188 27.0273C107.079 27.0273 107.873 27.1914 108.57 27.5195C109.268 27.8477 109.815 28.3164 110.214 28.9258C110.612 29.5293 110.812 30.2002 110.812 30.9385H108.597C108.597 30.2705 108.386 29.749 107.964 29.374C107.548 28.9932 106.95 28.8027 106.171 28.8027C105.444 28.8027 104.879 28.958 104.475 29.2686C104.076 29.5791 103.877 30.0127 103.877 30.5693C103.877 31.0381 104.094 31.4307 104.527 31.7471C104.961 32.0576 105.676 32.3623 106.672 32.6611C107.668 32.9541 108.468 33.291 109.071 33.6719C109.675 34.0469 110.117 34.4805 110.398 34.9727C110.68 35.459 110.82 36.0303 110.82 36.6865C110.82 37.7529 110.41 38.6025 109.59 39.2354C108.775 39.8623 107.668 40.1758 106.268 40.1758C105.342 40.1758 104.489 40.0059 103.71 39.666C102.937 39.3203 102.333 38.8457 101.899 38.2422C101.472 37.6387 101.258 36.9355 101.258 36.1328H103.481C103.481 36.8594 103.722 37.4219 104.202 37.8203C104.683 38.2188 105.371 38.418 106.268 38.418C107.041 38.418 107.621 38.2627 108.008 37.9521C108.4 37.6357 108.597 37.2197 108.597 36.7041ZM115.241 28.1787V30.4902H116.92V32.0723H115.241V37.3809C115.241 37.7441 115.312 38.0078 115.452 38.1719C115.599 38.3301 115.856 38.4092 116.226 38.4092C116.472 38.4092 116.721 38.3799 116.973 38.3213V39.9736C116.486 40.1084 116.018 40.1758 115.566 40.1758C113.926 40.1758 113.105 39.2705 113.105 37.46V32.0723H111.541V30.4902H113.105V28.1787H115.241ZM117.896 35.1572C117.896 34.2256 118.08 33.3877 118.449 32.6436C118.818 31.8936 119.337 31.3193 120.005 30.9209C120.673 30.5166 121.44 30.3145 122.308 30.3145C123.591 30.3145 124.631 30.7275 125.428 31.5537C126.23 32.3799 126.664 33.4756 126.729 34.8408L126.737 35.3418C126.737 36.2793 126.556 37.1172 126.192 37.8555C125.835 38.5938 125.319 39.165 124.646 39.5693C123.978 39.9736 123.204 40.1758 122.325 40.1758C120.983 40.1758 119.908 39.7305 119.1 38.8398C118.297 37.9434 117.896 36.751 117.896 35.2627V35.1572ZM120.031 35.3418C120.031 36.3203 120.233 37.0879 120.638 37.6445C121.042 38.1953 121.604 38.4707 122.325 38.4707C123.046 38.4707 123.605 38.1895 124.004 37.627C124.408 37.0645 124.61 36.2412 124.61 35.1572C124.61 34.1963 124.402 33.4346 123.986 32.8721C123.576 32.3096 123.017 32.0283 122.308 32.0283C121.61 32.0283 121.057 32.3066 120.646 32.8633C120.236 33.4141 120.031 34.2402 120.031 35.3418ZM133.522 32.4414C133.241 32.3945 132.951 32.3711 132.652 32.3711C131.674 32.3711 131.015 32.7461 130.675 33.4961V40H128.539V30.4902H130.578L130.631 31.5537C131.146 30.7275 131.861 30.3145 132.775 30.3145C133.08 30.3145 133.332 30.3555 133.531 30.4375L133.522 32.4414ZM138.884 40.1758C137.53 40.1758 136.432 39.751 135.588 38.9014C134.75 38.0459 134.331 36.9092 134.331 35.4912V35.2275C134.331 34.2783 134.513 33.4316 134.876 32.6875C135.245 31.9375 135.761 31.3545 136.423 30.9385C137.085 30.5225 137.823 30.3145 138.638 30.3145C139.933 30.3145 140.932 30.7275 141.635 31.5537C142.344 32.3799 142.698 33.5488 142.698 35.0605V35.9219H136.484C136.549 36.707 136.81 37.3281 137.267 37.7852C137.729 38.2422 138.31 38.4707 139.007 38.4707C139.985 38.4707 140.782 38.0752 141.397 37.2842L142.549 38.3828C142.168 38.9512 141.658 39.3936 141.02 39.71C140.387 40.0205 139.675 40.1758 138.884 40.1758ZM138.629 32.0283C138.043 32.0283 137.568 32.2334 137.205 32.6436C136.848 33.0537 136.619 33.625 136.52 34.3574H140.589V34.1992C140.542 33.4844 140.352 32.9453 140.018 32.582C139.684 32.2129 139.221 32.0283 138.629 32.0283Z" fill="white"/>
</svg>
