<svg width="158" height="51" viewBox="0 0 158 51" fill="none" xmlns="http://www.w3.org/2000/svg">
<rect x="0.5" y="0.5" width="157" height="50" rx="4.5" fill="#222222" stroke="white"/>
<path d="M36.6016 31.1962C40.6591 28.9846 43.735 27.2993 44.0001 27.1683C44.8482 26.7206 45.7241 25.5355 44.0001 24.6151C43.4435 24.3256 40.4466 22.6928 36.6016 20.5872L31.2714 25.931L36.6016 31.196V31.1962Z" fill="#FFD900"/>
<path d="M31.2714 25.931L14.2993 42.9115C14.6976 42.9639 15.1474 42.859 15.6776 42.5697C16.7909 41.9647 28.5924 35.5669 36.6016 31.1974L31.2714 25.931Z" fill="#F43249"/>
<path d="M31.2714 25.931L36.6016 20.6135C36.6016 20.6135 16.8714 9.92445 15.6776 9.29347C15.2279 9.02904 14.7239 8.95049 14.2729 9.02904L31.2714 25.931Z" fill="#00EE76"/>
<path d="M31.2714 25.9319L14.2729 9.02989C13.583 9.18823 13 9.79328 13 11.0307V40.9116C13 42.0441 13.4511 42.8599 14.2993 42.9386L31.2714 25.9319Z" fill="#00D3FF"/>
<path d="M60.0742 19.0674C59.8333 19.4124 59.4964 19.6712 59.0635 19.8438C58.6338 20.013 58.1325 20.0977 57.5596 20.0977C56.9801 20.0977 56.4658 19.9626 56.0166 19.6924C55.5674 19.4189 55.2191 19.0316 54.9717 18.5303C54.7275 18.029 54.6022 17.4479 54.5957 16.7871V16.167C54.5957 15.096 54.8447 14.266 55.3428 13.6768C55.8441 13.0876 56.5472 12.793 57.4521 12.793C58.1943 12.793 58.7917 12.9834 59.2441 13.3643C59.6966 13.7419 59.9733 14.279 60.0742 14.9756H59.1367C58.9609 14.0348 58.401 13.5645 57.457 13.5645C56.8288 13.5645 56.3519 13.7858 56.0264 14.2285C55.7041 14.668 55.5413 15.306 55.5381 16.1426V16.7236C55.5381 17.5212 55.7204 18.1559 56.085 18.6279C56.4495 19.0967 56.9427 19.3311 57.5645 19.3311C57.916 19.3311 58.2236 19.292 58.4873 19.2139C58.751 19.1357 58.9691 19.0039 59.1416 18.8184V17.2217H57.4961V16.46H60.0742V19.0674ZM65.6602 16.7139H62.5791V19.2334H66.1582V20H61.6416V12.8906H66.1094V13.6621H62.5791V15.9473H65.6602V16.7139ZM72.335 13.6621H70.0498V20H69.1172V13.6621H66.8369V12.8906H72.335V13.6621ZM76.6807 20H75.7432V12.8906H76.6807V20ZM83.165 13.6621H80.8799V20H79.9473V13.6621H77.667V12.8906H83.165V13.6621ZM91.9736 16.6748C91.9736 17.3714 91.8564 17.9801 91.6221 18.501C91.3877 19.0186 91.0557 19.4141 90.626 19.6875C90.1963 19.9609 89.695 20.0977 89.1221 20.0977C88.5622 20.0977 88.0658 19.9609 87.6328 19.6875C87.1999 19.4108 86.863 19.0186 86.6221 18.5107C86.3844 17.9997 86.2624 17.4089 86.2559 16.7383V16.2256C86.2559 15.542 86.3747 14.9382 86.6123 14.4141C86.8499 13.89 87.1852 13.4896 87.6182 13.2129C88.0544 12.9329 88.5524 12.793 89.1123 12.793C89.682 12.793 90.1833 12.9313 90.6162 13.208C91.0524 13.4814 91.3877 13.8802 91.6221 14.4043C91.8564 14.9251 91.9736 15.5322 91.9736 16.2256V16.6748ZM91.041 16.2158C91.041 15.3727 90.8717 14.7266 90.5332 14.2773C90.1947 13.8249 89.721 13.5986 89.1123 13.5986C88.5199 13.5986 88.0527 13.8249 87.7109 14.2773C87.3724 14.7266 87.1982 15.3516 87.1885 16.1523V16.6748C87.1885 17.4919 87.3594 18.1348 87.7012 18.6035C88.0462 19.069 88.5199 19.3018 89.1221 19.3018C89.7275 19.3018 90.1963 19.082 90.5283 18.6426C90.8604 18.1999 91.0312 17.5667 91.041 16.7432V16.2158ZM98.8438 20H97.9014L94.3223 14.5215V20H93.3799V12.8906H94.3223L97.9111 18.3936V12.8906H98.8438V20Z" fill="white"/>
<path d="M65.1094 38.3389C64.6465 38.9424 64.0049 39.3994 63.1846 39.71C62.3643 40.0205 61.4326 40.1758 60.3896 40.1758C59.3174 40.1758 58.3682 39.9326 57.542 39.4463C56.7158 38.96 56.0771 38.2656 55.626 37.3633C55.1807 36.4551 54.9492 35.3975 54.9316 34.1904V33.1885C54.9316 31.2549 55.3945 29.7461 56.3203 28.6621C57.2461 27.5723 58.5381 27.0273 60.1963 27.0273C61.6201 27.0273 62.751 27.3789 63.5889 28.082C64.4268 28.7852 64.9307 29.7988 65.1006 31.123H62.9209C62.6748 29.582 61.7812 28.8115 60.2402 28.8115C59.2441 28.8115 58.4854 29.1719 57.9639 29.8926C57.4482 30.6074 57.1816 31.6592 57.1641 33.0479V34.0322C57.1641 35.415 57.4541 36.4902 58.0342 37.2578C58.6201 38.0195 59.4316 38.4004 60.4688 38.4004C61.6055 38.4004 62.4141 38.1426 62.8945 37.627V35.1221H60.2578V33.4346H65.1094V38.3389ZM66.9463 35.1572C66.9463 34.2256 67.1309 33.3877 67.5 32.6436C67.8691 31.8936 68.3877 31.3193 69.0557 30.9209C69.7236 30.5166 70.4912 30.3145 71.3584 30.3145C72.6416 30.3145 73.6816 30.7275 74.4785 31.5537C75.2812 32.3799 75.7148 33.4756 75.7793 34.8408L75.7881 35.3418C75.7881 36.2793 75.6064 37.1172 75.2432 37.8555C74.8857 38.5938 74.3701 39.165 73.6963 39.5693C73.0283 39.9736 72.2549 40.1758 71.376 40.1758C70.0342 40.1758 68.959 39.7305 68.1504 38.8398C67.3477 37.9434 66.9463 36.751 66.9463 35.2627V35.1572ZM69.082 35.3418C69.082 36.3203 69.2842 37.0879 69.6885 37.6445C70.0928 38.1953 70.6553 38.4707 71.376 38.4707C72.0967 38.4707 72.6562 38.1895 73.0547 37.627C73.459 37.0645 73.6611 36.2412 73.6611 35.1572C73.6611 34.1963 73.4531 33.4346 73.0371 32.8721C72.627 32.3096 72.0674 32.0283 71.3584 32.0283C70.6611 32.0283 70.1074 32.3066 69.6973 32.8633C69.2871 33.4141 69.082 34.2402 69.082 35.3418ZM77.1943 35.1572C77.1943 34.2256 77.3789 33.3877 77.748 32.6436C78.1172 31.8936 78.6357 31.3193 79.3037 30.9209C79.9717 30.5166 80.7393 30.3145 81.6064 30.3145C82.8896 30.3145 83.9297 30.7275 84.7266 31.5537C85.5293 32.3799 85.9629 33.4756 86.0273 34.8408L86.0361 35.3418C86.0361 36.2793 85.8545 37.1172 85.4912 37.8555C85.1338 38.5938 84.6182 39.165 83.9443 39.5693C83.2764 39.9736 82.5029 40.1758 81.624 40.1758C80.2822 40.1758 79.207 39.7305 78.3984 38.8398C77.5957 37.9434 77.1943 36.751 77.1943 35.2627V35.1572ZM79.3301 35.3418C79.3301 36.3203 79.5322 37.0879 79.9365 37.6445C80.3408 38.1953 80.9033 38.4707 81.624 38.4707C82.3447 38.4707 82.9043 38.1895 83.3027 37.627C83.707 37.0645 83.9092 36.2412 83.9092 35.1572C83.9092 34.1963 83.7012 33.4346 83.2852 32.8721C82.875 32.3096 82.3154 32.0283 81.6064 32.0283C80.9092 32.0283 80.3555 32.3066 79.9453 32.8633C79.5352 33.4141 79.3301 34.2402 79.3301 35.3418ZM87.4688 35.1748C87.4688 33.6982 87.8145 32.5205 88.5059 31.6416C89.2031 30.7568 90.126 30.3145 91.2744 30.3145C92.3584 30.3145 93.2109 30.6924 93.832 31.4482L93.9287 30.4902H95.8535V39.71C95.8535 40.958 95.4639 41.9424 94.6846 42.6631C93.9111 43.3838 92.8652 43.7441 91.5469 43.7441C90.8496 43.7441 90.167 43.5977 89.499 43.3047C88.8369 43.0176 88.333 42.6396 87.9873 42.1709L88.998 40.8877C89.6543 41.667 90.4629 42.0566 91.4238 42.0566C92.1328 42.0566 92.6924 41.8633 93.1025 41.4766C93.5127 41.0957 93.7178 40.5332 93.7178 39.7891V39.1475C93.1025 39.833 92.2822 40.1758 91.2568 40.1758C90.1436 40.1758 89.2324 39.7334 88.5234 38.8486C87.8203 37.9639 87.4688 36.7393 87.4688 35.1748ZM89.5957 35.3594C89.5957 36.3145 89.7891 37.0674 90.1758 37.6182C90.5684 38.1631 91.1104 38.4355 91.8018 38.4355C92.6631 38.4355 93.3018 38.0664 93.7178 37.3281V33.1445C93.3135 32.4238 92.6807 32.0635 91.8193 32.0635C91.1162 32.0635 90.5684 32.3418 90.1758 32.8984C89.7891 33.4551 89.5957 34.2754 89.5957 35.3594ZM100.327 40H98.1914V26.5H100.327V40ZM106.849 40.1758C105.495 40.1758 104.396 39.751 103.553 38.9014C102.715 38.0459 102.296 36.9092 102.296 35.4912V35.2275C102.296 34.2783 102.478 33.4316 102.841 32.6875C103.21 31.9375 103.726 31.3545 104.388 30.9385C105.05 30.5225 105.788 30.3145 106.603 30.3145C107.897 30.3145 108.896 30.7275 109.6 31.5537C110.309 32.3799 110.663 33.5488 110.663 35.0605V35.9219H104.449C104.514 36.707 104.774 37.3281 105.231 37.7852C105.694 38.2422 106.274 38.4707 106.972 38.4707C107.95 38.4707 108.747 38.0752 109.362 37.2842L110.514 38.3828C110.133 38.9512 109.623 39.3936 108.984 39.71C108.352 40.0205 107.64 40.1758 106.849 40.1758ZM106.594 32.0283C106.008 32.0283 105.533 32.2334 105.17 32.6436C104.812 33.0537 104.584 33.625 104.484 34.3574H108.554V34.1992C108.507 33.4844 108.316 32.9453 107.982 32.582C107.648 32.2129 107.186 32.0283 106.594 32.0283ZM119.241 35.2451V40H117.018V27.2031H121.913C123.343 27.2031 124.477 27.5752 125.314 28.3193C126.158 29.0635 126.58 30.0479 126.58 31.2725C126.58 32.5264 126.167 33.502 125.341 34.1992C124.521 34.8965 123.369 35.2451 121.887 35.2451H119.241ZM119.241 33.4609H121.913C122.704 33.4609 123.308 33.2764 123.724 32.9072C124.14 32.5322 124.348 31.9932 124.348 31.29C124.348 30.5986 124.137 30.0479 123.715 29.6377C123.293 29.2217 122.713 29.0078 121.975 28.9961H119.241V33.4609ZM130.597 40H128.461V26.5H130.597V40ZM138.612 40C138.519 39.8184 138.437 39.5225 138.366 39.1123C137.687 39.8213 136.854 40.1758 135.87 40.1758C134.915 40.1758 134.136 39.9033 133.532 39.3584C132.929 38.8135 132.627 38.1396 132.627 37.3369C132.627 36.3232 133.002 35.5469 133.752 35.0078C134.508 34.4629 135.586 34.1904 136.986 34.1904H138.296V33.5664C138.296 33.0742 138.158 32.6816 137.883 32.3887C137.607 32.0898 137.188 31.9404 136.626 31.9404C136.14 31.9404 135.741 32.0635 135.431 32.3096C135.12 32.5498 134.965 32.8574 134.965 33.2324H132.829C132.829 32.7109 133.002 32.2246 133.348 31.7734C133.693 31.3164 134.162 30.959 134.754 30.7012C135.352 30.4434 136.017 30.3145 136.749 30.3145C137.862 30.3145 138.75 30.5957 139.412 31.1582C140.074 31.7148 140.414 32.5 140.432 33.5137V37.8027C140.432 38.6582 140.552 39.3408 140.792 39.8506V40H138.612ZM136.266 38.4619C136.688 38.4619 137.083 38.3594 137.452 38.1543C137.827 37.9492 138.108 37.6738 138.296 37.3281V35.5352H137.145C136.354 35.5352 135.759 35.6729 135.36 35.9482C134.962 36.2236 134.763 36.6133 134.763 37.1172C134.763 37.5273 134.897 37.8555 135.167 38.1016C135.442 38.3418 135.809 38.4619 136.266 38.4619ZM145.854 36.9414L147.788 30.4902H150.064L146.285 41.4414C145.705 43.041 144.721 43.8408 143.332 43.8408C143.021 43.8408 142.679 43.7881 142.304 43.6826V42.0303L142.708 42.0566C143.247 42.0566 143.651 41.957 143.921 41.7578C144.196 41.5645 144.413 41.2363 144.571 40.7734L144.879 39.9561L141.539 30.4902H143.842L145.854 36.9414Z" fill="white"/>
</svg>
