<svg width="140" height="68" viewBox="0 0 140 68" fill="none" xmlns="http://www.w3.org/2000/svg">
<path d="M67.2398 61.8798V62.0765C67.8668 62.1354 67.9226 62.201 67.8668 63.1449L67.7972 64.6C67.7554 65.2751 67.6996 65.6946 67.6578 65.9044C67.616 66.1731 67.4627 66.2452 67.1004 66.2714V66.4746H68.8284V66.2714C68.3406 66.2321 68.1874 66.1731 68.1595 65.9044C68.1316 65.6946 68.1316 65.3079 68.1456 64.6721L68.1874 62.8368H68.2152L69.8178 66.3894H70.0268L71.6851 62.6991H71.713L71.7409 65.4128C71.7548 66.2059 71.7269 66.219 71.1556 66.2714V66.4746H73.1901V66.2714C72.6049 66.219 72.577 66.2059 72.5491 65.4128L72.4794 62.9417C72.4655 62.1617 72.4934 62.1354 73.0926 62.0765V61.8798H71.713L70.1941 65.2489L68.5775 61.8798" fill="#8C8C8C"/>
<path d="M75.4476 61.8798V62.0765C76.019 62.1223 76.0747 62.1748 76.0747 62.9417V65.4128C76.0747 66.1731 76.019 66.2321 75.4476 66.2714V66.4746H77.5101V66.2714C76.9527 66.2321 76.8969 66.1731 76.8969 65.4128V62.9417C76.8969 62.1748 76.9527 62.1223 77.5101 62.0765V61.8798" fill="#8C8C8C"/>
<path d="M79.6979 61.8798V62.0765C80.2972 62.1224 80.4504 62.2862 80.4504 63.1056V64.4952C80.4504 65.3014 80.4226 65.6947 80.3808 65.9044C80.3529 66.16 80.1578 66.2584 79.7955 66.2715V66.4747H81.5792V66.2715C81.1054 66.2452 80.9103 66.16 80.8685 65.9044C80.8406 65.6947 80.7988 65.3014 80.7988 64.4952V62.9679H80.8128L83.8089 66.5271H84.1433V63.8593C84.1433 63.0531 84.1851 62.6533 84.213 62.4435C84.2548 62.1879 84.4359 62.0896 84.7983 62.0765V61.8798H83.0285V62.0765C83.4883 62.1027 83.6974 62.1879 83.7392 62.4435C83.767 62.6533 83.7949 63.0531 83.7949 63.8593V65.2031H83.781L80.8824 61.8798" fill="#8C8C8C"/>
<path d="M87.014 61.8798V62.0765C87.5714 62.1223 87.6272 62.1748 87.6272 62.9417V65.4128C87.6272 66.1731 87.5714 66.2321 86.9443 66.2714V66.4746H90.4978C90.5536 66.2714 90.7069 65.5504 90.7347 65.3144L90.5257 65.2686C90.4003 65.6094 90.2749 65.8519 90.1495 65.983C89.9962 66.16 89.6617 66.1862 89.2994 66.1862C88.9928 66.1862 88.7281 66.1797 88.6026 66.0944C88.4633 66.0027 88.4354 65.806 88.4354 65.3997V64.2395H89.0625C89.6896 64.2395 89.7035 64.2657 89.7732 64.8228H90.0101V63.3284H89.7732C89.7035 63.8724 89.6896 63.9117 89.0625 63.9117H88.4354V62.4173C88.4354 62.1617 88.4494 62.1617 88.7281 62.1617H89.0904C89.5502 62.1617 89.7732 62.201 89.8986 62.3255C90.0101 62.4304 90.0937 62.627 90.1773 62.9679L90.3864 62.9548C90.3446 62.5156 90.3167 61.9912 90.3027 61.8798" fill="#8C8C8C"/>
<path fill-rule="evenodd" clip-rule="evenodd" d="M94.3022 62.404C94.3022 62.1746 94.3162 62.1484 94.6645 62.1484C95.1244 62.1484 95.654 62.404 95.654 63.1382C95.654 63.4725 95.5564 63.8133 95.2638 64.0427C95.0687 64.1804 94.8736 64.2262 94.5809 64.2262H94.3022V62.404ZM92.8947 61.8797V62.0763C93.4382 62.1222 93.5079 62.1746 93.5079 62.9415V65.4126C93.5079 66.173 93.4382 66.232 92.8669 66.2713V66.4745H94.9154V66.2713C94.358 66.232 94.3022 66.173 94.3022 65.4126V64.4622H94.5391C94.7482 64.4622 94.8457 64.5343 94.9572 64.731C95.1662 65.098 95.4031 65.5503 95.64 65.878C95.9187 66.2713 96.1696 66.4745 96.9639 66.5269L97.2705 66.54L97.2983 66.3565C97.0893 66.3106 96.9778 66.2058 96.7967 66.0353C96.6573 65.8911 96.4761 65.6355 96.1974 65.2488C95.9605 64.9341 95.6818 64.436 95.5564 64.2394C96.1556 64.0296 96.5319 63.6101 96.5319 63.0136C96.5319 62.6007 96.3368 62.3057 96.0441 62.1222C95.7515 61.9321 95.3752 61.8797 94.8457 61.8797" fill="#8C8C8C"/>
<path fill-rule="evenodd" clip-rule="evenodd" d="M101.284 61.8798L99.8066 65.5504C99.5558 66.1862 99.4722 66.219 99.0262 66.2714V66.4746H100.643V66.2714L100.434 66.2518C100.113 66.219 100.057 66.1272 100.183 65.7536C100.294 65.4521 100.42 65.0588 100.517 64.8491H101.855C102.008 65.2161 102.19 65.6553 102.259 65.865C102.343 66.1338 102.329 66.2059 102.05 66.2452L101.855 66.2714V66.4746H103.764V66.2714C103.346 66.2321 103.235 66.1797 102.998 65.5504C102.719 64.8491 102.399 63.9707 102.064 63.1055L101.562 61.7946L101.284 61.8798ZM101.158 62.9679H101.186L101.744 64.5213H100.587" fill="#8C8C8C"/>
<path d="M105.813 61.8798V62.0765C106.398 62.1223 106.454 62.1748 106.454 62.9417V65.4128C106.454 66.1731 106.398 66.2321 105.785 66.2714V66.4746H109.185C109.255 66.2583 109.408 65.5373 109.45 65.3144L109.227 65.2686C109.101 65.6094 108.99 65.8519 108.865 65.983C108.711 66.16 108.363 66.1862 108.028 66.1862C107.792 66.1862 107.555 66.1731 107.429 66.0879C107.304 66.0027 107.262 65.806 107.262 65.3997V62.9417C107.262 62.1748 107.318 62.1223 107.903 62.0765V61.8798" fill="#8C8C8C"/>
<path d="M114.397 62.9153C114.313 62.522 114.271 62.214 114.244 61.9649C114.16 61.9256 114.062 61.9124 113.937 61.8731C113.742 61.801 113.477 61.7748 113.282 61.7748C112.307 61.7748 111.735 62.3778 111.735 63.1251C111.735 63.8133 112.334 64.1869 112.822 64.4294L113.059 64.5409C113.63 64.8161 113.826 65.098 113.826 65.4978C113.826 65.937 113.533 66.2975 113.059 66.2975C112.307 66.2975 111.916 65.5109 111.777 65.1439L111.554 65.216C111.624 65.642 111.707 66.1271 111.777 66.3106C111.861 66.3368 111.986 66.3958 112.195 66.4548C112.39 66.5204 112.641 66.5793 112.92 66.5793C113.909 66.5793 114.578 65.9829 114.578 65.1439C114.578 64.4098 114.062 64.0361 113.491 63.7871L113.296 63.7019C112.739 63.4528 112.446 63.1906 112.446 62.7973C112.446 62.3975 112.711 62.0566 113.185 62.0566C113.798 62.0566 114.021 62.5482 114.16 62.9612" fill="#8C8C8C"/>
<path d="M120.278 61.8798V62.0765C120.863 62.1223 120.919 62.1748 120.919 62.9417V65.4128C120.919 66.1731 120.863 66.2321 120.25 66.2714V66.4746H123.664C123.72 66.2583 123.887 65.5373 123.929 65.3144L123.692 65.2686C123.58 65.6094 123.455 65.8519 123.33 65.983C123.176 66.16 122.828 66.1862 122.493 66.1862C122.27 66.1862 122.02 66.1731 121.908 66.0879C121.783 66.0027 121.741 65.806 121.741 65.3997V62.9417C121.741 62.1748 121.797 62.1223 122.382 62.0765V61.8798" fill="#8C8C8C"/>
<path d="M125.35 62.9941C125.434 62.6532 125.517 62.4697 125.615 62.3714C125.726 62.2469 125.921 62.1616 126.535 62.1616H126.785V65.4128C126.785 66.1731 126.73 66.2321 126.089 66.2714V66.4746H128.332V66.2714C127.663 66.2321 127.608 66.1731 127.608 65.4128V62.1616H127.984C128.43 62.1616 128.667 62.201 128.792 62.3386C128.904 62.4435 128.987 62.627 129.057 62.9941L129.28 62.981C129.238 62.5287 129.21 61.9912 129.182 61.6963H129.071C128.959 61.8339 128.918 61.8798 128.722 61.8798H125.726C125.517 61.8798 125.448 61.8667 125.35 61.6963H125.211C125.197 62.0633 125.155 62.5287 125.127 62.9941" fill="#8C8C8C"/>
<path fill-rule="evenodd" clip-rule="evenodd" d="M131.51 61.8798V62.0765C132.053 62.1223 132.109 62.1748 132.109 62.9417V65.4128C132.109 66.1731 132.053 66.2321 131.454 66.2714V66.4746H133.238C134.938 66.4746 136.317 65.7077 136.317 63.9707C136.317 63.3481 136.052 62.8237 135.718 62.5025C135.23 62.0502 134.492 61.8798 133.67 61.8798H131.51ZM132.931 62.5549C132.931 62.3714 132.931 62.2469 132.973 62.2141C133.015 62.1748 133.196 62.1486 133.447 62.1486C134.603 62.1486 135.398 62.6729 135.398 64.1805C135.398 65.3538 134.77 66.1797 133.558 66.1797C133.001 66.1797 132.931 66.0486 132.931 65.3997" fill="#8C8C8C"/>
<path d="M138.937 66.5596C139.23 66.5596 139.439 66.3564 139.439 66.0483C139.439 65.7664 139.23 65.5501 138.937 65.5501C138.658 65.5501 138.435 65.7664 138.435 66.0483C138.435 66.3564 138.658 66.5596 138.937 66.5596Z" fill="#8C8C8C"/>
<path d="M0.559174 46.4959V47.0137C1.89697 47.1252 2.05025 47.2694 2.05025 49.2685V55.7511C2.05025 57.7503 1.89697 57.901 0.559174 58.0125V58.5303H5.91034V58.0125C4.22417 57.901 4.08481 57.7503 4.08481 55.7511V52.8605H5.91034C7.4711 52.8605 7.49897 52.9391 7.69406 54.3287H8.26541V50.5336H7.69406C7.49897 51.9035 7.4711 52.0084 5.91034 52.0084H4.08481V47.8986C4.08481 47.2366 4.12662 47.2366 4.80945 47.2366H5.75705C6.88582 47.2366 7.4711 47.348 7.77768 47.6626C8.05638 47.9379 8.26541 48.4558 8.44657 49.3079L9.00399 49.2358C8.8925 48.1608 8.80889 46.7909 8.78102 46.4959" fill="#8C8C8C"/>
<path d="M9.7565 46.4959V47.0137C11.164 47.1252 11.3173 47.2694 11.3173 49.2685V55.7511C11.3173 57.7503 11.164 57.901 9.7565 58.0125V58.5303H14.8847V58.0125C13.4912 57.901 13.3518 57.7503 13.3518 55.7511V49.2685C13.3518 47.2694 13.4912 47.1252 14.8847 47.0137V46.4959" fill="#8C8C8C"/>
<path fill-rule="evenodd" clip-rule="evenodd" d="M19.2744 47.8657C19.2744 47.2692 19.3022 47.1971 20.1801 47.1971C21.3368 47.1971 22.6467 47.8657 22.6467 49.7927C22.6467 50.6776 22.3959 51.569 21.6712 52.159C21.1974 52.5326 20.6818 52.644 19.9572 52.644H19.2744V47.8657ZM15.7348 46.4957V47.0135C17.1144 47.125 17.2677 47.2692 17.2677 49.2683V55.7509C17.2677 57.7501 17.1144 57.9008 15.6651 58.0123V58.5301H20.7933V58.0123C19.4137 57.9008 19.2744 57.7501 19.2744 55.7509V53.2733H19.8457C20.3892 53.2733 20.6121 53.4568 20.9048 53.9746C21.4343 54.9381 22.0335 56.1245 22.6188 56.9766C23.3295 58.0123 23.9427 58.5301 25.9215 58.6743L26.6879 58.7136L26.7576 58.2351C26.242 58.104 25.9494 57.8222 25.5034 57.383C25.169 57.0094 24.6952 56.3408 23.9984 55.3249C23.4131 54.4924 22.7024 53.1946 22.4098 52.6768C23.8869 52.1196 24.8345 51.0316 24.8345 49.4715C24.8345 48.3835 24.3468 47.6035 23.6361 47.125C22.9115 46.6399 21.9639 46.4957 20.6261 46.4957" fill="#8C8C8C"/>
<path d="M33.9204 49.2162C33.7392 48.1806 33.6277 47.3612 33.5581 46.7189C33.3351 46.6206 33.0843 46.5878 32.7916 46.4763C32.2899 46.2928 31.635 46.2142 31.1333 46.2142C28.6946 46.2142 27.2593 47.8069 27.2593 49.7537C27.2593 51.5693 28.7922 52.546 29.9906 53.1752L30.5759 53.4767C32.0112 54.1977 32.499 54.9384 32.499 55.9741C32.499 57.1211 31.7743 58.065 30.5898 58.065C28.7225 58.065 27.7331 56.0134 27.3708 55.0498L26.8273 55.2334C27.0085 56.3608 27.2314 57.6193 27.3708 58.1043C27.5937 58.1764 27.9143 58.3272 28.4299 58.491C28.9037 58.6615 29.5586 58.8057 30.2415 58.8057C32.708 58.8057 34.3942 57.2522 34.3942 55.0498C34.3942 53.1228 33.0843 52.1396 31.6629 51.4907L31.1891 51.2744C29.7955 50.6254 29.0709 49.9372 29.0709 48.9016C29.0709 47.8463 29.7259 46.9548 30.9243 46.9548C32.4432 46.9548 33.0146 48.2527 33.3351 49.3276" fill="#8C8C8C"/>
<path d="M35.509 49.4193C35.732 48.5279 35.9549 48.0494 36.164 47.7872C36.4566 47.4595 36.9304 47.2366 38.4912 47.2366H39.1182V55.7511C39.1182 57.7503 38.965 57.901 37.3624 58.0125V58.5303H42.9644V58.0125C41.2922 57.901 41.1528 57.7503 41.1528 55.7511V47.2366H42.1004C43.2292 47.2366 43.8145 47.348 44.121 47.6954C44.3858 47.9773 44.6088 48.4558 44.7899 49.4193L45.3334 49.38C45.2219 48.2001 45.1522 46.7909 45.1244 46.0109H44.8317C44.5391 46.3845 44.4276 46.4959 43.9538 46.4959H36.4566C35.9549 46.4959 35.7598 46.4566 35.509 46.0109H35.1885C35.1467 46.9744 35.0352 48.2001 34.9655 49.4193" fill="#8C8C8C"/>
<path fill-rule="evenodd" clip-rule="evenodd" d="M63.728 62.2861C62.1255 61.565 58.6695 59.3627 57.4153 58.4909C59.8819 57.6978 61.6099 55.4364 61.6099 52.2902C61.6099 48.6786 59.0179 46.214 55.8685 46.214C51.5904 46.214 49.5001 49.6814 49.5001 52.7163C49.5001 55.9346 51.66 58.563 54.9488 58.7859C57.262 60.4901 58.6416 61.0669 59.1712 61.198C59.5892 61.3422 62.6132 62.6203 63.6305 62.6597L63.728 62.2861ZM55.1021 57.9731C53.0118 57.5077 51.8691 55.1218 51.8691 52.1198C51.8691 48.8424 53.3044 46.9547 55.339 46.9547C57.7916 46.9547 59.2548 49.1243 59.2548 52.9719C59.2548 55.9739 58.1818 57.5864 56.6349 57.9534C56.4677 57.8617 56.3562 57.7896 56.2448 57.7175" fill="#8C8C8C"/>
<path d="M62.2648 46.496V47.0138C63.7141 47.1253 63.8535 47.2367 63.8535 49.2359V53.5095C63.8535 55.6988 64.2576 57.0294 65.2191 57.8225C66.1389 58.5828 67.3373 58.8057 68.466 58.8057C69.7342 58.8057 71.0301 58.3075 71.8245 57.4161C72.8278 56.328 73.1623 54.7877 73.1623 52.9917V51.6807C73.1623 49.5701 73.2459 48.528 73.3155 47.9774C73.4131 47.3088 73.8869 47.0466 74.7927 47.0138V46.496H70.3473V47.0138C71.5179 47.0859 72.0335 47.3088 72.1171 47.9774C72.1868 48.528 72.2843 49.5701 72.2843 51.6807V52.7885C72.2843 56.0265 71.1974 57.7307 68.9956 57.7307C66.8496 57.7307 65.9019 56.0855 65.9019 53.1424V49.2359C65.9019 47.2367 66.0413 47.1253 67.393 47.0138V46.496" fill="#8C8C8C"/>
<path fill-rule="evenodd" clip-rule="evenodd" d="M78.9454 46.4959L75.2665 56.1247C74.6394 57.7896 74.4304 57.8617 73.3016 58.0125V58.5303H77.3429V58.0125L76.8412 57.9535C76.033 57.8617 75.8936 57.6192 76.2141 56.6425C76.465 55.8625 76.7994 54.8269 77.0363 54.2697H80.3947C80.7849 55.2333 81.2169 56.3803 81.3981 56.9375C81.621 57.6388 81.5792 57.8224 80.8964 57.9338L80.3808 58.0125V58.5303H85.1745V58.0125C84.1155 57.901 83.8646 57.7699 83.2375 56.1247C82.5547 54.2697 81.7464 51.9756 80.9243 49.7143L79.6701 46.2731L78.9454 46.4959ZM78.6528 49.3472H78.7085L80.1299 53.4176H77.2314" fill="#8C8C8C"/>
<path d="M84.9934 46.496V47.0138C86.4845 47.1252 86.8886 47.571 86.8886 49.7143V53.3456C86.8886 55.4562 86.7911 56.4919 86.7214 57.049C86.6378 57.7176 86.164 57.9732 85.2442 58.0125V58.5304H89.6896V58.0125C88.519 57.9339 88.0174 57.7176 87.9198 57.049C87.8502 56.4919 87.7526 55.4562 87.7526 53.3456V49.3473H87.7944L95.2916 58.6746H96.1277V51.6807C96.1277 49.5701 96.2253 48.5279 96.295 47.9774C96.3786 47.3088 96.8524 47.0466 97.7721 47.0138V46.496H93.3267V47.0138C94.4973 47.0859 94.999 47.3088 95.0965 47.9774C95.1662 48.5279 95.2498 49.5701 95.2498 51.6807V55.194H95.2219L87.9616 46.496" fill="#8C8C8C"/>
<path d="M98.5943 49.4193C98.8033 48.5279 99.0263 48.0494 99.2492 47.7872C99.5419 47.4595 100.016 47.2366 101.576 47.2366H102.19V55.7511C102.19 57.7503 102.05 57.901 100.448 58.0125V58.5303H106.05V58.0125C104.377 57.901 104.224 57.7503 104.224 55.7511V47.2366H105.172C106.301 47.2366 106.886 47.348 107.192 47.6954C107.471 47.9773 107.694 48.4558 107.875 49.4193L108.419 49.38C108.307 48.2001 108.238 46.7909 108.196 46.0109H107.903C107.61 46.3845 107.499 46.4959 107.039 46.4959H99.5419C99.0263 46.4959 98.8451 46.4566 98.5943 46.0109H98.2598C98.2319 46.9744 98.1205 48.2001 98.0508 49.4193" fill="#8C8C8C"/>
<path d="M108.767 46.496V47.0138C110.216 47.1253 110.37 47.2367 110.37 49.2359V53.5095C110.37 55.6988 110.76 57.0294 111.735 57.8225C112.641 58.5828 113.84 58.8057 114.968 58.8057C116.236 58.8057 117.532 58.3075 118.341 57.4161C119.33 56.328 119.665 54.7877 119.665 52.9917V51.6807C119.665 49.5701 119.748 48.528 119.832 47.9774C119.915 47.3088 120.389 47.0466 121.295 47.0138V46.496H116.864V47.0138C118.02 47.0859 118.536 47.3088 118.619 47.9774C118.703 48.528 118.787 49.5701 118.787 51.6807V52.7885C118.787 56.0265 117.7 57.7307 115.498 57.7307C113.352 57.7307 112.404 56.0855 112.404 53.1424V49.2359C112.404 47.2367 112.544 47.1253 113.895 47.0138V46.496" fill="#8C8C8C"/>
<path d="M121.755 46.4959V47.0137C123.329 47.1579 123.455 47.348 123.329 49.806L123.12 53.6208C123.037 55.3971 122.884 56.4918 122.8 57.0489C122.675 57.7503 122.298 57.9338 121.392 58.0125V58.5303H125.712V58.0125C124.5 57.901 124.124 57.7503 124.054 57.0489C123.984 56.4918 123.957 55.4758 123.998 53.8109L124.124 49.0129H124.193L128.179 58.3074H128.722L132.861 48.6393H132.931L133.001 55.7511C133.015 57.8224 132.973 57.8617 131.551 58.0125V58.5303H136.624V58.0125C135.147 57.8617 135.091 57.8224 135.035 55.7511L134.854 49.2685C134.826 47.2366 134.896 47.1579 136.373 47.0137V46.4959H132.931L129.127 55.325L125.113 46.4959" fill="#8C8C8C"/>
<path d="M76.7019 24.4064L81.5374 19.4773L77.7609 15.6297L80.3808 12.962L86.7632 19.4708L76.674 29.7157L72.8557 25.8091L68.9538 29.7812L66.3479 27.1201L72.8696 20.4802" fill="#8C8C8C"/>
<path d="M73.859 11.6643L69.0513 6.74173L65.2609 10.6024L62.655 7.94779L69.0513 1.41934L79.0708 11.6774L75.2246 15.5905L79.1126 19.5495L76.5067 22.2173L69.9989 15.5905" fill="#8C8C8C"/>
<path d="M61.4148 14.5158L56.5792 19.4449L60.3557 23.2925L57.7498 25.9602L51.3674 19.4514L61.4427 9.20649L65.2749 13.1131L69.1628 9.14095L71.7687 11.8021L65.261 18.442" fill="#8C8C8C"/>
<path d="M64.2018 27.2645L69.0235 32.1805L72.8139 28.3198L75.4198 30.981L69.0235 37.5029L59.004 27.2514L62.8362 23.3383L58.9622 19.3727L61.5681 16.7115L68.0619 23.3317" fill="#8C8C8C"/>
</svg>
