<svg width="173" height="173" viewBox="0 0 173 173" fill="none" xmlns="http://www.w3.org/2000/svg">
<path fill-rule="evenodd" clip-rule="evenodd" d="M37.1757 78.8415V76.7979H51.3374V78.8415H45.474V94.853H43.0409V78.8415H37.1757ZM66.6202 84.511V86.5547H57.1551V92.8085H67.8857V94.853H54.722V76.7979H67.594V78.8415H57.1551V84.511H66.6202ZM86.6481 88.8676C86.6064 89.2779 86.5332 89.6845 86.4291 90.0837C86.3069 90.5622 86.1358 91.0269 85.9184 91.4703C85.4643 92.4432 84.7023 93.3318 83.6307 94.135C82.56 94.9383 80.9947 95.3395 78.9349 95.3395C78.6755 95.3395 78.1361 95.2991 77.3167 95.2183C76.4973 95.1367 75.6339 94.8773 74.7247 94.4393C73.6217 93.9205 72.6165 93.0284 71.7082 91.7638C70.7999 90.4983 70.3449 88.6243 70.3449 86.1418C70.3449 85.8178 70.3772 85.1932 70.4427 84.2687C70.5073 83.3443 70.7344 82.3624 71.1239 81.3249C71.6104 80.0594 72.4379 78.9034 73.6064 77.8578C74.7741 76.8104 76.526 76.2881 78.8613 76.2881C81.0844 76.2881 82.7269 76.7063 83.7886 77.541C84.8504 78.3757 85.5693 79.3046 85.9418 80.3269C86.0719 80.6832 86.1688 81.0368 86.2335 81.385C86.299 81.7342 86.3474 82.0626 86.3797 82.3714H83.899C83.8814 82.1672 83.853 81.9641 83.8138 81.7629C83.7719 81.5469 83.7106 81.3351 83.6307 81.1301C83.3713 80.4328 82.8768 79.7919 82.1462 79.2077C81.4165 78.6234 80.3216 78.3308 78.8613 78.3308C76.7522 78.3308 75.2363 79.0605 74.311 80.5207C73.3865 81.981 72.9243 83.8218 72.9243 86.0449C72.9243 87.8947 73.4278 89.5694 74.433 91.07C75.4391 92.5707 76.9721 93.321 79.0327 93.321C80.6222 93.321 81.8473 92.8669 82.7071 91.9577C83.567 91.0485 84.0453 90.02 84.1423 88.8685H86.6481V88.8676ZM93.0985 94.853H90.6662V76.7979H93.0985V84.3163H102.176V76.7979H104.609V94.853H102.176V86.3608H93.0985V94.853ZM112.276 94.853H109.843V76.7979H112.52L122.131 91.105V76.7979H124.564V94.853H121.888L112.276 80.545V94.853ZM132.232 76.7979V94.853H129.798V76.7979H132.232ZM148.828 76.7979H152.089L144.571 84.2185L152.575 94.853H149.363L142.77 85.8492L139.899 88.6719V94.853H137.464V76.7979H139.899V85.7514L148.828 76.7979ZM163.113 95.388C160.325 95.3718 158.191 94.5084 156.715 92.7959C155.237 91.0844 154.499 88.7608 154.499 85.8241C154.499 82.9207 155.249 80.6006 156.752 78.8648C158.252 77.1299 160.373 76.262 163.113 76.262C165.872 76.262 167.996 77.1299 169.489 78.8648C170.981 80.6006 171.727 82.9207 171.727 85.8241C171.727 88.7599 170.986 91.0835 169.502 92.7959C168.017 94.5084 165.889 95.3628 163.114 95.3628V95.388H163.113ZM163.113 93.3443C165.175 93.3443 166.694 92.6425 167.676 91.2388C168.658 89.8351 169.149 88.0311 169.149 85.825C169.149 83.4565 168.723 81.7368 167.871 80.6661C167.019 79.5954 166.074 78.898 165.036 78.5731C164.714 78.4765 164.385 78.4074 164.051 78.3667C163.74 78.3276 163.427 78.3072 163.113 78.3057C162.71 78.3142 162.307 78.3508 161.909 78.4152C161.371 78.5014 160.85 78.6694 160.364 78.9133C159.537 79.3028 158.783 80.0208 158.101 81.0673C157.42 82.1138 157.079 83.6997 157.079 85.8241C157.078 86.2545 157.094 86.6848 157.129 87.1138C157.266 88.6468 157.788 90.1202 158.648 91.3967C159.516 92.6945 161.005 93.3443 163.113 93.3443ZM16.5321 71.2405C24.9364 71.2405 31.7915 78.0957 31.7915 86.4999C31.7915 94.9042 24.9364 101.76 16.5321 101.76C8.12783 101.76 1.27266 94.9042 1.27266 86.4999C1.27266 78.0957 8.12783 71.2405 16.5321 71.2405ZM5.83738 77.191C6.13626 77.602 6.45308 77.9951 6.78785 78.3694C5.7695 79.5854 4.98805 80.9815 4.48394 82.4854C4.00748 82.3405 3.52401 82.2198 3.03536 82.1237C3.62782 80.3076 4.58087 78.6298 5.83738 77.191ZM29.9624 81.919C29.4599 81.9712 28.9603 82.0482 28.4654 82.1497C27.9595 80.7732 27.2199 79.4943 26.279 78.3694C26.6129 77.9951 26.9297 77.602 27.2286 77.1919C28.4366 78.5762 29.365 80.1815 29.9624 81.919ZM18.6807 99.0184C18.8378 99.495 19.0191 99.9671 19.2255 100.432C17.004 100.862 14.7117 100.754 12.5409 100.115C12.7338 99.6538 12.9017 99.1853 13.0462 98.7132C14.8774 99.2383 16.8035 99.3426 18.6807 99.0184ZM27.3515 82.4243C26.9073 81.2537 26.2763 80.1629 25.4829 79.1942C23.0713 81.5053 19.9435 82.9045 16.5321 82.9045C13.1216 82.9045 9.99374 81.5053 7.58124 79.1933C6.68929 80.2822 6.00344 81.5246 5.55736 82.8596C8.23104 83.9142 10.517 85.7667 11.997 88.3291C13.6448 91.184 14.0298 94.4653 13.3343 97.6111C14.9683 98.0833 16.6866 98.1875 18.3657 97.9162C17.5759 94.678 17.9304 91.2774 19.6321 88.3291C21.3427 85.3664 24.1304 83.3533 27.3515 82.4243Z" fill="#979797"/>
</svg>
