<svg width="243" height="37" viewBox="0 0 243 37" fill="none" xmlns="http://www.w3.org/2000/svg">
<path d="M65.2938 25.0609V19.1076C65.2938 16.0269 62.8114 13.5351 59.7077 13.5351H59.4661C58.2593 13.5351 57.0523 13.9503 56.4662 14.6773V7.61623C56.4662 6.75043 55.8109 6.30103 55.1556 6.30103C54.5003 6.30103 53.8453 6.75072 53.8453 7.61623V29.3873C53.8453 30.2181 54.5006 30.6334 55.1556 30.6334C55.742 30.6334 56.3281 30.287 56.4316 29.5957C56.9142 30.0798 57.9142 30.6334 59.3969 30.6334H59.7074C62.7765 30.6334 65.2938 28.1416 65.2938 25.0609ZM62.6733 25.0609C62.6733 26.6877 61.363 28.0032 59.7077 28.0032H59.3972C57.8456 28.0032 56.4664 26.9647 56.4664 25.2686V18.8306C56.4664 17.2382 57.8459 16.1655 59.3972 16.1655H59.7077C61.363 16.1655 62.6733 17.481 62.6733 19.1076V25.0609ZM76.2941 29.3179C76.2941 28.6604 75.8801 28.0032 74.9838 28.0032C73.9145 27.9682 73.0871 27.1377 73.0871 26.0644V7.61623C73.0871 6.75043 72.4321 6.30103 71.7766 6.30103C71.1216 6.30103 70.4663 6.75072 70.4663 7.61623V26.0644C70.4663 28.591 72.4665 30.6334 74.9838 30.6334C75.8801 30.6334 76.2941 29.9756 76.2941 29.3179ZM91.328 25.0609V19.1076C91.328 16.0269 88.8456 13.5351 85.7764 13.5351H85.4316C82.3625 13.5351 79.8798 16.0269 79.8798 19.1076V25.0609C79.8798 28.1416 82.3625 30.6334 85.4316 30.6334H85.7764C88.8453 30.6334 91.328 28.1416 91.328 25.0609ZM88.7075 25.0609C88.7075 26.6877 87.3972 28.0032 85.7764 28.0032H85.466C83.8109 28.0032 82.5006 26.6877 82.5006 25.0609V19.1076C82.5006 17.481 83.8109 16.1655 85.4316 16.1655H85.7764C87.3972 16.1655 88.7075 17.481 88.7075 19.1076V25.0609ZM107.224 25.0609C107.224 24.1612 106.569 23.7112 105.914 23.7112C105.294 23.7112 104.638 24.1612 104.604 25.0609C104.535 26.6877 103.293 28.0032 101.673 28.0032H101.362C99.7071 28.0032 98.3968 26.6877 98.3968 25.0609V19.1076C98.3968 17.481 99.7071 16.1655 101.328 16.1655H101.672C103.293 16.1655 104.535 17.3768 104.603 19.142C104.638 20.0078 105.293 20.4231 105.914 20.4231C106.569 20.4231 107.224 19.9728 107.224 19.1076C107.224 16.0269 104.707 13.5351 101.672 13.5351H101.328C98.2931 13.5351 95.7757 15.9925 95.7757 19.1076V25.0609C95.7757 28.1416 98.2585 30.6334 101.328 30.6334H101.672C104.741 30.6334 107.224 28.1416 107.224 25.0609ZM123.741 29.3179C123.741 29.1104 123.707 28.8685 123.569 28.6604L118.845 20.3533L123.12 15.7847C123.397 15.5078 123.5 15.1964 123.5 14.8847C123.5 14.192 122.913 13.5348 122.155 13.5348C121.845 13.5348 121.5 13.6728 121.224 13.9848L114.672 20.9764V7.61623C114.672 6.75043 114.017 6.30103 113.362 6.30103C112.707 6.30103 112.051 6.75072 112.051 7.61623V29.3179C112.051 30.1834 112.707 30.6334 113.362 30.6334C114.017 30.6334 114.672 30.1834 114.672 29.3179V24.8525L116.982 22.3607L121.293 29.9406C121.569 30.4259 121.982 30.6334 122.396 30.6334C123.19 30.6334 123.741 30.0101 123.741 29.3179ZM138.637 25.0609C138.637 24.1612 137.982 23.7112 137.327 23.7112C136.706 23.7112 136.051 24.1612 136.016 25.0609C135.947 26.6877 134.706 28.0032 133.086 28.0032H132.775C131.12 28.0032 129.809 26.6877 129.809 25.0609V19.1076C129.809 17.481 131.12 16.1655 132.741 16.1655H133.086C134.706 16.1655 135.947 17.3768 136.016 19.142C136.051 20.0078 136.707 20.4231 137.327 20.4231C137.982 20.4231 138.637 19.9728 138.637 19.1076C138.637 16.0269 136.12 13.5351 133.086 13.5351H132.741C129.706 13.5351 127.189 15.9925 127.189 19.1076V25.0609C127.189 28.1416 129.672 30.6334 132.741 30.6334H133.086C136.155 30.6334 138.637 28.1416 138.637 25.0609ZM154.913 29.3179V19.1076C154.913 16.0269 152.43 13.5351 149.361 13.5351H149.085C147.878 13.5351 146.671 13.9503 146.084 14.5734V7.61623C146.084 6.75043 145.43 6.30103 144.775 6.30103C144.12 6.30103 143.465 6.75072 143.465 7.61623V29.3179C143.465 30.1834 144.12 30.6334 144.775 30.6334C145.43 30.6334 146.084 30.1834 146.084 29.3179V18.9345C146.084 17.1343 147.637 16.1655 149.224 16.1655C150.74 16.1655 152.292 17.1002 152.292 19.1076V29.3179C152.292 30.1834 152.947 30.6334 153.602 30.6334C154.258 30.6334 154.913 30.1834 154.913 29.3179ZM172.154 29.2843C172.154 28.7299 171.809 28.176 171.05 28.0377C170.43 27.9341 170.154 27.518 170.154 26.8952V18.8648C170.154 15.8883 167.809 13.5348 164.74 13.5348H164.499C162.671 13.5348 160.464 14.2617 159.361 16.7538C159.257 16.9613 159.223 17.1688 159.223 17.3768C159.223 18.1037 159.878 18.5882 160.533 18.5882C160.982 18.5882 161.43 18.3807 161.706 17.8957C162.361 16.7535 163.085 16.1652 164.499 16.1652H164.74C166.258 16.1652 167.533 16.9269 167.533 18.9684C167.533 19.1417 167.533 19.4187 167.43 19.557C166.603 20.7342 158.948 19.7645 158.706 25.2334V25.6486C158.706 28.8682 161.465 30.6331 164.258 30.6331H164.568C165.982 30.6331 167.292 30.1139 168.292 29.2493C168.741 29.9067 169.465 30.4259 170.637 30.5986C170.706 30.6331 170.809 30.6331 170.879 30.6331C171.706 30.6334 172.154 29.9756 172.154 29.2843ZM167.533 25.0609C167.533 26.6877 166.188 28.0032 164.568 28.0032H164.257C162.499 28.0032 161.326 27.0686 161.326 25.58V25.3028C161.43 22.8799 164.982 23.0188 167.533 22.3266V25.0609ZM178.912 29.3179V14.8503C178.912 13.9848 178.257 13.5351 177.602 13.5351C176.947 13.5351 176.292 13.9851 176.292 14.8503V29.3179C176.292 30.1834 176.947 30.6334 177.602 30.6334C178.257 30.6334 178.912 30.1834 178.912 29.3179ZM195.877 29.3179V19.1076C195.877 15.3 193.291 13.5351 190.36 13.5351H190.05C188.842 13.5351 187.705 13.9503 187.084 14.5734C186.947 13.8806 186.36 13.5351 185.774 13.5351C185.084 13.5351 184.429 14.0195 184.429 14.8503V29.3179C184.429 30.1834 185.084 30.6334 185.74 30.6334C186.395 30.6334 187.05 30.1834 187.05 29.3179V19.1076C187.05 17.481 188.395 16.1655 190.015 16.1655H190.326C191.981 16.1655 193.291 17.481 193.291 19.1076V29.3179C193.291 30.1834 193.947 30.6334 194.602 30.6334C195.257 30.6334 195.877 30.1834 195.877 29.3179ZM209.409 29.3179V14.8503C209.409 13.9848 208.754 13.5351 208.098 13.5351C207.444 13.5351 206.789 13.9851 206.789 14.8503V29.3179C206.789 30.1834 207.444 30.6334 208.098 30.6334C208.754 30.6334 209.409 30.1834 209.409 29.3179ZM225.995 25.0609V19.1076C225.995 16.0269 223.512 13.5351 220.443 13.5351H220.098C217.029 13.5351 214.547 16.0269 214.547 19.1076V25.0609C214.547 28.1416 217.029 30.6334 220.098 30.6334H220.443C223.512 30.6334 225.995 28.1416 225.995 25.0609ZM223.374 25.0609C223.374 26.6877 222.064 28.0032 220.443 28.0032H220.133C218.477 28.0032 217.167 26.6877 217.167 25.0609V19.1076C217.167 17.481 218.477 16.1655 220.098 16.1655H220.443C222.064 16.1655 223.374 17.481 223.374 19.1076V25.0609Z" fill="#979797"/>
<path d="M27.8795 17.6223C27.0811 17.6223 26.4317 18.2744 26.4317 19.0756C26.4317 19.8768 27.0813 20.5285 27.8795 20.5285C28.6777 20.5285 29.3276 19.8768 29.3276 19.0756C29.3276 18.2744 28.678 17.6223 27.8795 17.6223Z" fill="#979797"/>
<path d="M34.5738 13.5901C33.7753 13.5901 33.1266 14.2421 33.1266 15.0433C33.1266 15.8448 33.7756 16.4963 34.5738 16.4963C35.372 16.4963 36.0222 15.8445 36.0222 15.0433C36.0225 14.2421 35.3723 13.5901 34.5738 13.5901Z" fill="#979797"/>
<path d="M41.2683 9.55859C40.4702 9.55859 39.8206 10.2104 39.8206 11.0116C39.8206 11.813 40.4702 12.4657 41.2683 12.4657C42.0671 12.4657 42.7161 11.8133 42.7161 11.0116C42.7161 10.2104 42.0671 9.55859 41.2683 9.55859Z" fill="#979797"/>
<path d="M21.1847 5.52637C20.3865 5.52637 19.7369 6.17842 19.7369 6.9799C19.7369 7.78109 20.3865 8.43286 21.1847 8.43286C21.9831 8.43286 22.6327 7.78109 22.6327 6.9799C22.6327 6.17842 21.9834 5.52637 21.1847 5.52637Z" fill="#979797"/>
<path d="M27.8795 1.49463C27.0811 1.49463 26.4317 2.14697 26.4317 2.94816C26.4317 3.74964 27.0813 4.40169 27.8795 4.40169C28.6777 4.40169 29.3276 3.74964 29.3276 2.94816C29.3276 2.14697 28.678 1.49463 27.8795 1.49463Z" fill="#979797"/>
<path d="M27.8795 9.55859C27.0811 9.55859 26.4317 10.2104 26.4317 11.0116C26.4317 11.813 27.0813 12.4657 27.8795 12.4657C28.6777 12.4657 29.3276 11.8133 29.3276 11.0116C29.3276 10.2104 28.678 9.55859 27.8795 9.55859Z" fill="#979797"/>
<path d="M34.5738 5.52637C33.7753 5.52637 33.1266 6.17842 33.1266 6.9799C33.1266 7.78109 33.7756 8.43286 34.5738 8.43286C35.372 8.43286 36.0222 7.78109 36.0222 6.9799C36.0225 6.17842 35.3723 5.52637 34.5738 5.52637Z" fill="#979797"/>
<path d="M34.5738 21.6541C33.7753 21.6541 33.1266 22.3058 33.1266 23.1067C33.1266 23.9082 33.7756 24.56 34.5738 24.56C35.372 24.56 36.0222 23.9082 36.0222 23.1067C36.0225 22.3058 35.3723 21.6541 34.5738 21.6541Z" fill="#979797"/>
<path d="M41.2683 17.6223C40.4702 17.6223 39.8206 18.2744 39.8206 19.0756C39.8206 19.8768 40.4702 20.5285 41.2683 20.5285C42.0671 20.5285 42.7161 19.8768 42.7161 19.0756C42.7161 18.2744 42.0671 17.6223 41.2683 17.6223Z" fill="#979797"/>
<path d="M34.5738 29.7175C33.7753 29.7175 33.1266 30.3693 33.1266 31.1708C33.1266 31.972 33.7756 32.6237 34.5738 32.6237C35.372 32.6237 36.0222 31.972 36.0222 31.1708C36.0225 30.3693 35.3723 29.7175 34.5738 29.7175Z" fill="#979797"/>
<path d="M41.2683 25.6858C40.4702 25.6858 39.8206 26.3376 39.8206 27.139C39.8206 27.9402 40.4702 28.592 41.2683 28.592C42.0671 28.592 42.7161 27.9402 42.7161 27.139C42.7161 26.3376 42.0671 25.6858 41.2683 25.6858Z" fill="#979797"/>
<path d="M27.8795 33.7495C27.0811 33.7495 26.4317 34.4016 26.4317 35.2028C26.4317 36.0037 27.0813 36.6557 27.8795 36.6557C28.6777 36.6557 29.3276 36.0037 29.3276 35.2028C29.3276 34.4016 28.678 33.7495 27.8795 33.7495Z" fill="#979797"/>
<path d="M27.8795 25.6858C27.0811 25.6858 26.4317 26.3376 26.4317 27.139C26.4317 27.9402 27.0813 28.592 27.8795 28.592C28.6777 28.592 29.3276 27.9402 29.3276 27.139C29.3276 26.3376 28.678 25.6858 27.8795 25.6858Z" fill="#979797"/>
<path d="M21.1847 13.5901C20.3865 13.5901 19.7369 14.2421 19.7369 15.0433C19.7369 15.8448 20.3865 16.4963 21.1847 16.4963C21.9831 16.4963 22.6327 15.8445 22.6327 15.0433C22.6327 14.2421 21.9834 13.5901 21.1847 13.5901Z" fill="#979797"/>
<path d="M21.1847 29.7175C20.3865 29.7175 19.7369 30.3693 19.7369 31.1708C19.7369 31.972 20.3865 32.6237 21.1847 32.6237C21.9831 32.6237 22.6327 31.972 22.6327 31.1708C22.6327 30.3693 21.9834 29.7175 21.1847 29.7175Z" fill="#979797"/>
<path d="M21.1847 21.6541C20.3865 21.6541 19.7369 22.3058 19.7369 23.1067C19.7369 23.9082 20.3865 24.56 21.1847 24.56C21.9831 24.56 22.6327 23.9082 22.6327 23.1067C22.6327 22.3058 21.9834 21.6541 21.1847 21.6541Z" fill="#979797"/>
<path d="M14.4904 9.55859C13.6919 9.55859 13.0429 10.2104 13.0429 11.0116C13.0429 11.813 13.6922 12.4657 14.4904 12.4657C15.2886 12.4657 15.9385 11.8133 15.9385 11.0116C15.9385 10.2104 15.2886 9.55859 14.4904 9.55859Z" fill="#979797"/>
<path d="M14.4904 25.6858C13.6919 25.6858 13.0429 26.3376 13.0429 27.139C13.0429 27.9402 13.6922 28.592 14.4904 28.592C15.2886 28.592 15.9385 27.9402 15.9385 27.139C15.9385 26.3376 15.2886 25.6858 14.4904 25.6858Z" fill="#979797"/>
<path d="M14.4904 17.6223C13.6919 17.6223 13.0429 18.2744 13.0429 19.0756C13.0429 19.8768 13.6922 20.5285 14.4904 20.5285C15.2886 20.5285 15.9385 19.8768 15.9385 19.0756C15.9385 18.2744 15.2886 17.6223 14.4904 17.6223Z" fill="#979797"/>
<path d="M177.581 6.22852C176.854 6.22852 176.263 6.82137 176.263 7.55055C176.263 8.27974 176.854 8.87288 177.581 8.87288C178.307 8.87288 178.898 8.27974 178.898 7.55055C178.898 6.82137 178.307 6.22852 177.581 6.22852Z" fill="#979797"/>
<path d="M208.087 6.22852C207.361 6.22852 206.77 6.82137 206.77 7.55055C206.77 8.27974 207.361 8.87288 208.087 8.87288C208.814 8.87288 209.405 8.27974 209.405 7.55055C209.405 6.82137 208.814 6.22852 208.087 6.22852Z" fill="#979797"/>
<path d="M201.177 28.0977C200.454 28.0977 199.866 28.6874 199.866 29.4126C199.866 30.1378 200.454 30.7281 201.177 30.7281C201.899 30.7281 202.487 30.1378 202.487 29.4126C202.487 28.6874 201.899 28.0977 201.177 28.0977Z" fill="#979797"/>
</svg>
