<svg width="175" height="174" viewBox="0 0 175 174" fill="none" xmlns="http://www.w3.org/2000/svg">
<path fill-rule="evenodd" clip-rule="evenodd" d="M40.0468 95.7038V95.8311C39.7481 95.9593 39.5765 96.129 39.4911 96.425C39.4494 96.6796 39.3631 97.2311 39.3631 98.1654V98.8867C38.9643 99.1868 38.5166 99.4164 38.0394 99.5655C37.5786 99.7535 37.0866 99.8542 36.5886 99.8625C36.1192 99.8625 35.6925 99.7343 35.3085 99.5655C34.9245 99.4382 34.5404 99.1413 34.2417 98.7594C33.9857 98.3342 33.7297 97.9109 33.6017 97.4433C33.4652 96.9598 33.3934 96.4605 33.3883 95.9583C33.3883 95.4907 33.3883 94.9392 33.5163 94.5574C33.6444 94.1331 33.9004 93.6664 34.1137 93.327C34.4551 92.9451 34.8818 92.5633 35.3085 92.3087C35.7352 92.0542 36.2473 91.9269 36.7593 91.9269C37.1433 91.9269 37.6554 91.9693 38.0394 92.0966C38.4235 92.2239 38.8928 92.5642 39.3631 92.9027L38.8084 94.8977H38.6795C38.5515 94.134 38.339 93.4118 38.0821 93.0309C37.8261 92.6066 37.4003 92.3521 37.058 92.3521C36.4606 92.3521 35.9912 92.6915 35.7352 93.3279C35.4365 94.0067 35.2658 94.9401 35.2658 96.0017C35.2658 97.0623 35.3939 97.9533 35.6072 98.5049C35.8641 99.0555 36.2473 99.3958 36.674 99.3958C37.0153 99.3958 37.2714 99.2676 37.3994 99.014C37.5274 98.7594 37.6554 98.3342 37.6554 97.8251C37.6554 97.1039 37.6127 96.5956 37.4847 96.3402C37.3567 96.0847 37.1433 95.8735 36.93 95.8311V95.7038C37.1424 95.7038 37.3994 95.7462 37.6554 95.7462H39.1489C39.3631 95.7453 39.7481 95.7038 40.0468 95.7038ZM40.7712 95.1513C40.7712 94.6837 40.7712 94.3877 40.6859 94.2604C40.6441 94.1331 40.4299 94.0058 40.3019 94.0058V93.8361C40.6432 93.8361 40.9846 93.7088 41.326 93.6664C41.6673 93.5815 42.0514 93.4543 42.3501 93.4118V94.7704C42.4626 94.3838 42.6511 94.0233 42.9048 93.7097C43.1172 93.54 43.4595 93.4118 43.7155 93.4118H43.8862L44.0142 93.4543L43.5448 95.6614C43.4595 95.5332 43.3315 95.3644 43.2888 95.2786C43.2566 95.2284 43.2126 95.1867 43.1605 95.1571C43.1085 95.1275 43.05 95.111 42.9901 95.1089C42.7768 95.1089 42.6061 95.2786 42.5207 95.6605C42.438 96.3362 42.3952 97.0162 42.3927 97.6969C42.3927 98.3333 42.4781 98.8009 42.5207 99.0546C42.6061 99.3092 42.7768 99.5222 42.9901 99.5637V99.7334H42.2647C42.094 99.7334 41.838 99.6495 41.582 99.6495H40.8993C40.6859 99.6495 40.4299 99.7334 40.2592 99.7334V99.5637C40.4299 99.5213 40.6432 99.3092 40.6859 99.0546C40.7712 98.8009 40.7712 98.1645 40.7712 97.2302V95.1513ZM47.3443 96.2129C46.8323 96.2129 46.4047 96.4241 46.1495 96.6796C45.9371 96.9342 45.8082 97.4433 45.8082 98.0806C45.8082 98.4191 45.8935 98.7594 45.9789 98.9282C46.1069 99.1404 46.2776 99.2676 46.4909 99.2676C46.7043 99.2676 46.9603 99.0555 47.0883 98.7594C47.2172 98.4191 47.3443 97.9109 47.3443 97.2311V96.2129ZM47.3443 95.2786C47.3443 94.8119 47.2163 94.431 47.0883 94.1755C46.9603 93.921 46.7043 93.7088 46.4909 93.7088C46.2349 93.7088 45.9371 93.9201 45.7655 94.2595C45.5095 94.5565 45.2108 95.1504 45.0828 95.7453H44.8694L44.5707 94.0049C44.8694 93.8352 45.2108 93.6655 45.6375 93.5806C45.9789 93.4525 46.3629 93.4109 46.7043 93.4109C47.4297 93.4109 48.1133 93.6655 48.3693 94.0473C48.7098 94.4301 48.8805 95.2353 48.8805 96.128V98.4182C48.8805 98.6737 48.9231 98.9273 48.9231 99.0546C48.9231 99.1819 49.1365 99.3949 49.2645 99.5222L49.1792 99.6504H47.5577L47.4297 98.8858C47.3016 99.1653 47.0939 99.4013 46.8323 99.5646C46.5738 99.7567 46.2598 99.8609 45.9371 99.8616C45.6908 99.8609 45.4471 99.8118 45.2199 99.7171C44.9928 99.6225 44.7867 99.4841 44.6134 99.3101C44.3147 99.014 44.144 98.504 44.144 97.9524C44.144 97.316 44.3991 96.722 44.8268 96.425C45.2961 96.0856 46.0215 95.8744 46.9176 95.8744H47.3443V95.2786ZM52.679 99.1819C53.0204 99.1819 53.3191 98.9282 53.4898 98.5464C53.7031 98.1645 53.8312 97.5281 53.8312 96.722C53.8312 95.8311 53.7022 95.1522 53.5751 94.6846C53.3618 94.2604 53.0631 94.0058 52.679 94.0058C52.3377 94.0058 51.9963 94.2604 51.8674 94.6431C51.6932 95.2791 51.6071 95.9357 51.6114 96.5947C51.6114 97.4424 51.7394 98.1645 51.8247 98.5464C51.9963 98.9282 52.3377 99.1819 52.679 99.1819ZM51.655 99.3101V99.5646C51.655 100.499 51.7394 101.092 51.783 101.347C51.8674 101.602 52.1661 101.772 52.423 101.857V101.984H51.655C51.3989 101.984 51.1429 101.899 50.9286 101.899H50.2459C49.9899 101.899 49.7339 101.984 49.5205 101.984V101.857C49.6494 101.771 49.8619 101.602 49.9472 101.347C50.0752 101.093 50.1179 100.5 50.1179 99.5646V95.3644C50.1179 94.8968 50.0752 94.5574 49.9899 94.431C49.9472 94.3028 49.7339 94.1764 49.6059 94.1764V94.0482C49.9472 94.0058 50.3313 93.837 50.5873 93.837C50.9286 93.7946 51.27 93.6673 51.6114 93.5824V94.5158C51.7394 94.1764 51.9518 93.837 52.2088 93.7097C52.4648 93.54 52.8062 93.4118 53.1475 93.4118C53.7449 93.4118 54.385 93.7097 54.769 94.3028C55.2384 94.8968 55.4944 95.7038 55.4944 96.5947C55.4944 97.5281 55.2384 98.2918 54.769 98.8858C54.385 99.5222 53.7449 99.8616 53.1475 99.8616C52.8062 99.8616 52.5501 99.7768 52.2941 99.6504C51.9954 99.5222 51.7821 99.1819 51.654 98.8858V99.3101H51.655ZM56.3923 92.9018C56.3923 92.436 56.3069 92.0957 56.2634 91.9693C56.2216 91.8411 56.05 91.7148 55.922 91.7148V91.5866C56.2216 91.5866 56.6047 91.4593 56.9034 91.4593C57.2448 91.3745 57.6715 91.2481 58.0138 91.1199V94.5149C58.1418 94.1755 58.3125 93.8361 58.4831 93.7088C58.7392 93.5391 59.0805 93.4109 59.3366 93.4109C59.9766 93.4109 60.4896 93.6655 60.702 94.1331C60.958 94.5574 61.1714 95.3635 61.1714 96.2969V96.9333C61.1714 97.9515 61.2141 98.7576 61.2141 99.0131C61.2994 99.2667 61.4274 99.5213 61.6843 99.5637V99.7334H61.0434C60.8309 99.7334 60.6167 99.6495 60.3606 99.6495H59.7197C59.549 99.6495 59.293 99.7334 59.1223 99.7334L59.0796 99.5637C59.2076 99.5213 59.3356 99.3092 59.421 99.0546C59.4637 98.8009 59.549 98.2909 59.549 97.6545V96.4241C59.549 95.6605 59.4637 95.0241 59.3357 94.6837C59.2076 94.3019 59.0796 94.1331 58.8245 94.1331C58.5249 94.1331 58.3978 94.3028 58.2698 94.6837C58.0993 95.2483 58.0131 95.8347 58.0138 96.4241V96.9333C58.0138 98.0364 58.0564 98.7576 58.0564 99.0131C58.1418 99.2667 58.3125 99.5213 58.4405 99.5637V99.7334H57.8004C57.6715 99.7334 57.3737 99.6495 57.203 99.6495H56.5203C56.2643 99.6495 56.0509 99.7334 55.8376 99.7334L55.7949 99.5637C56.0509 99.5213 56.2216 99.3092 56.2643 99.0546C56.3069 98.8009 56.3932 98.1645 56.3932 97.2302V92.9018H56.3923ZM62.3244 95.1513C62.3244 94.6837 62.2391 94.3877 62.1955 94.2604C62.1528 94.1331 61.9395 94.0058 61.8114 94.0058V93.8361C62.1528 93.8361 62.4951 93.7088 62.8355 93.6664C63.1769 93.5815 63.5609 93.4543 63.9014 93.4118V97.316C63.9014 98.207 63.9876 98.8018 63.9876 99.0555C64.0303 99.3101 64.2437 99.5231 64.4143 99.5646L64.3717 99.7343H63.7316C63.5609 99.7343 63.3049 99.6504 63.0489 99.6504H62.4515C62.1955 99.6504 61.9395 99.7343 61.7688 99.7343L61.6834 99.5646C61.8106 99.5415 61.9277 99.4804 62.019 99.3894C62.1103 99.2985 62.1716 99.182 62.1946 99.0555C62.2372 98.8018 62.3235 98.1654 62.3235 97.2311V95.1513H62.3244ZM62.3244 91.9693C62.3244 91.7996 62.3671 91.5017 62.4951 91.3754C62.6222 91.2056 62.8782 91.0784 63.0489 91.0784C63.3049 91.0784 63.5609 91.2056 63.6463 91.3329C63.7743 91.5026 63.9014 91.8005 63.9014 92.0542C63.9014 92.3087 63.7734 92.5633 63.6463 92.6906C63.5609 92.8188 63.3049 92.9451 63.0489 92.9451C62.8782 92.9451 62.7075 92.8179 62.5795 92.6906C62.4193 92.5164 62.3283 92.2902 62.3235 92.0542V91.9693H62.3244ZM68.8539 95.8735C68.7686 95.1513 68.4699 94.5574 68.3419 94.2604C68.1712 93.921 67.8725 93.7097 67.6165 93.7097C67.2742 93.7097 66.9337 94.0058 66.763 94.5158C66.5497 95.025 66.379 95.7462 66.379 96.5532C66.379 97.4433 66.5497 98.1654 66.6777 98.5473C66.9337 98.9291 67.3178 99.1828 67.7454 99.1828C68.0005 99.1828 68.3001 99.0555 68.4708 98.8867C68.7695 98.6755 68.9828 98.2927 69.1108 97.9109L69.4095 98.0806C69.2388 98.6312 68.8975 99.1413 68.5561 99.3958C68.1721 99.6504 67.7454 99.8625 67.2751 99.8625C66.5506 99.8625 65.867 99.5231 65.4829 98.9291C64.9709 98.2927 64.7149 97.4433 64.7149 96.5532C64.7149 95.6623 64.9709 94.8977 65.4829 94.3037C65.9523 93.7106 66.6359 93.4127 67.404 93.4127C67.8307 93.4127 68.1721 93.4552 68.4708 93.5824C68.8121 93.7106 69.1535 93.9219 69.4095 94.134L68.9828 95.8744H68.8539V95.8735ZM75.0847 92.5633V97.6554C75.0847 98.3342 75.1274 98.8858 75.2136 99.014C75.299 99.1828 75.5123 99.3101 75.7683 99.3101C76.2377 99.3101 76.7498 99.014 76.964 98.504C77.2191 97.91 77.4325 96.9766 77.4325 95.8735C77.4325 94.7695 77.2191 93.8361 76.964 93.327C76.7498 92.8188 76.2377 92.4784 75.683 92.4784H75.4696C75.3407 92.4775 75.2127 92.5633 75.0847 92.5633ZM72.7369 99.7768V99.5646C72.9076 99.4373 73.121 99.1403 73.2063 98.8009C73.2916 98.5039 73.3352 97.7827 73.3352 96.7211V93.1997C73.3352 92.9018 73.2925 92.6057 73.2925 92.5633C73.2499 92.436 73.1219 92.3087 72.9939 92.3087V92.0966H73.7192C73.9762 92.0966 74.2313 92.1824 74.4882 92.1824H75.299C75.555 92.1824 75.8101 92.0966 75.8964 92.0966C76.964 92.0966 77.8592 92.4369 78.4139 93.03C79.054 93.6664 79.31 94.5574 79.31 95.7038C79.31 96.9766 79.054 98.0373 78.4566 98.6746C77.9019 99.3101 77.0485 99.7343 76.0235 99.7343H75.3407C74.9567 99.7343 74.6589 99.6504 74.4873 99.6504H73.9753C73.7183 99.6504 73.2925 99.7343 72.7369 99.7343V99.7768ZM81.6142 95.4907H83.2357C83.2357 94.9392 83.1503 94.4301 83.0223 94.1755C82.8943 93.921 82.681 93.7088 82.4249 93.7088C82.1689 93.7088 81.9547 93.9201 81.7849 94.1755C81.6174 94.5941 81.5305 95.0403 81.5289 95.4907H81.6142ZM81.5289 95.9583V96.2978C81.5289 97.2302 81.6569 98.0373 81.9556 98.504C82.1689 98.9282 82.5956 99.1819 83.1086 99.1819C83.4073 99.1819 83.7486 99.0131 84.0047 98.6746C84.3034 98.2918 84.5167 97.6978 84.6447 97.0614L84.9434 97.316C84.8154 98.0806 84.4314 98.7594 84.09 99.1404C83.6206 99.5646 83.0232 99.8616 82.4259 99.8616C81.6569 99.8616 81.0604 99.5222 80.6328 98.9282C80.1207 98.3342 79.9074 97.5281 79.9074 96.5523C79.9074 95.6614 80.1207 94.8968 80.6328 94.3028C81.1448 93.7097 81.7422 93.4118 82.4676 93.4118C83.2357 93.4118 83.8331 93.6664 84.2171 94.134C84.6447 94.5583 84.9425 95.2371 84.9425 95.9583H81.5289ZM85.3701 99.1404L85.7968 97.1887L85.9248 97.316C86.0528 97.9524 86.2235 98.504 86.5222 98.8018C86.7356 99.1828 87.0343 99.3958 87.333 99.3958C87.5899 99.3958 87.9303 99.2676 88.0148 99.1413C88.1864 98.9291 88.3144 98.6321 88.3144 98.2927C88.3144 98.0382 88.2717 97.8251 88.1437 97.6987C87.8909 97.4587 87.6029 97.2584 87.2894 97.1048C86.6067 96.9351 86.0955 96.6805 85.9666 96.4259C85.7971 96.1131 85.7091 95.763 85.7106 95.4077C85.7106 94.8137 85.8395 94.3037 86.2226 94.0067C86.6067 93.5824 87.2467 93.4127 87.8441 93.4127C88.0575 93.4127 88.4415 93.4552 88.7411 93.5409C88.9962 93.6682 89.3811 93.7955 89.6789 93.9228L89.2513 95.535H89.1233C89.0806 95.0268 88.8682 94.5167 88.7402 94.2622C88.6104 93.9228 88.2699 93.7115 87.9712 93.7115C87.8005 93.7115 87.5881 93.8388 87.4601 94.0076C87.3202 94.2066 87.2457 94.4437 87.2467 94.6864C87.2467 94.941 87.2894 95.2804 87.3321 95.4086C87.4601 95.5359 87.8014 95.7056 88.1855 95.748C88.8255 95.9602 89.3385 96.2156 89.4656 96.4693C89.7634 96.7238 89.8914 97.1914 89.8914 97.6572C89.8914 98.2936 89.6363 98.8876 89.2087 99.2694C88.7402 99.6522 88.1428 99.8634 87.4165 99.8634C87.1178 99.8634 86.7338 99.7786 86.3924 99.7352C85.9657 99.5655 85.6243 99.3967 85.3256 99.1422H85.3701V99.1404ZM90.8329 95.1513C90.8329 94.6837 90.7475 94.3877 90.6622 94.2604C90.6177 94.1331 90.4052 94.0058 90.2772 94.0058V93.8361C90.6177 93.8361 90.96 93.7088 91.3022 93.6664C91.6854 93.5815 92.0276 93.4543 92.4108 93.4118V97.316C92.4108 98.207 92.4552 98.8018 92.4552 99.0555C92.4961 99.3101 92.7104 99.5231 92.9237 99.5646L92.8384 99.7343H92.241C92.0285 99.7343 91.7725 99.6504 91.5583 99.6504H90.9609C90.6631 99.6504 90.4061 99.7343 90.2355 99.7343L90.1928 99.5646C90.4052 99.5222 90.6186 99.3101 90.6631 99.0555C90.7484 98.8018 90.8338 98.1654 90.8338 97.2311V95.1513H90.8329ZM90.8329 91.9693C90.8329 91.7996 90.8755 91.5017 90.9609 91.3754C91.0338 91.2868 91.1247 91.2146 91.2276 91.1634C91.3306 91.1122 91.4433 91.0832 91.5583 91.0784C91.7725 91.0784 92.0285 91.2056 92.1556 91.3329C92.2836 91.5026 92.4108 91.8005 92.4108 92.0542C92.4108 92.3087 92.2827 92.5633 92.1556 92.6906C91.9927 92.8425 91.7813 92.9326 91.5583 92.9451C91.3458 92.9451 91.1751 92.8179 91.0462 92.6906C90.9609 92.5633 90.8338 92.3087 90.8338 92.0542V91.9693H90.8329ZM97.021 93.7097C97.3614 93.921 97.6184 94.2604 97.7464 94.5574C97.9588 94.8968 98.0887 95.2786 98.0887 95.6614C98.0887 96.129 97.8744 96.6796 97.6184 96.9766C97.4041 97.4009 96.893 97.6554 96.4236 97.6978C96.2956 97.6978 95.996 97.7836 95.7409 97.7836C95.3986 97.7836 95.2706 97.9109 95.2706 98.0373C95.2706 98.1654 95.483 98.3342 95.868 98.3342C96.2084 98.3342 96.5507 98.504 96.8076 98.504C97.2761 98.6312 97.7028 98.8009 97.9588 99.0546C98.2158 99.3092 98.3438 99.7767 98.3438 100.243C98.3484 100.512 98.2843 100.777 98.1575 101.015C98.0306 101.253 97.8451 101.454 97.6184 101.601C97.1481 101.983 96.4236 102.195 95.5257 102.195C94.715 102.195 94.0749 101.983 93.6482 101.727C93.426 101.608 93.241 101.43 93.1131 101.213C92.9853 100.997 92.9194 100.749 92.9228 100.498C92.9228 100.115 93.0508 99.7758 93.2651 99.5637C93.5202 99.394 93.9051 99.181 94.3754 99.1394C94.1185 99.0537 93.9051 98.9273 93.8207 98.8849C93.6927 98.7576 93.6491 98.5455 93.6491 98.4173C93.6491 98.2061 93.6936 98.0354 93.8207 97.9091C93.906 97.7818 94.2465 97.6545 94.6314 97.5697C94.2038 97.4 93.8207 97.0605 93.6491 96.8051C93.4367 96.5514 93.3087 96.0838 93.3087 95.702C93.3087 95.0231 93.5638 94.4292 93.906 94.0464C94.3318 93.6646 94.9292 93.41 95.6564 93.41H96.1249C96.2965 93.41 96.5525 93.5382 96.6796 93.5797C96.8094 93.2828 96.9366 92.9433 97.1917 92.8161C97.4913 92.6879 97.7464 92.5615 98.0887 92.5615C98.0887 92.5615 98.2167 92.6039 98.3438 92.6039L97.9588 94.1737C97.8735 94.0455 97.7464 93.8343 97.6184 93.7919C97.533 93.6637 97.4041 93.5797 97.2761 93.5797H97.1481L97.021 93.7097ZM94.4608 100.626C94.4608 100.881 94.5888 101.219 94.7159 101.39C94.9728 101.602 95.3133 101.729 95.6129 101.729C95.9106 101.729 96.2084 101.602 96.4654 101.39C96.7205 101.22 96.8503 100.882 96.8503 100.626C96.8503 100.287 96.7205 99.9898 96.4654 99.7777C96.2084 99.5655 95.9106 99.4382 95.6129 99.4382C95.3133 99.4382 94.9728 99.5655 94.8003 99.7777C94.6904 99.8899 94.6038 100.023 94.5455 100.168C94.4873 100.314 94.4585 100.47 94.4608 100.626ZM95.6555 97.316C95.9106 97.316 96.124 97.1887 96.2084 96.9342C96.3383 96.6796 96.4654 96.1281 96.4654 95.6614C96.4654 95.1522 96.4227 94.6431 96.2947 94.3886C96.1231 94.134 95.9097 93.921 95.6546 93.921C95.3977 93.921 95.2697 94.1331 95.1426 94.3886C94.9719 94.6431 94.9283 95.1522 94.9283 95.6614C94.9283 96.129 94.9728 96.5947 95.1426 96.8484C95.2715 97.103 95.3986 97.316 95.6555 97.316ZM100.563 94.5149C100.734 94.1755 100.99 93.8361 101.162 93.7088C101.374 93.5391 101.715 93.4109 102.057 93.4109C102.654 93.4109 103.125 93.6655 103.38 94.1331C103.592 94.5574 103.807 95.3635 103.807 96.2969V96.9333C103.807 97.9515 103.85 98.7576 103.85 99.0131C103.935 99.2667 104.148 99.5213 104.362 99.5637V99.7334H103.678C103.507 99.7334 103.252 99.6495 102.995 99.6495H102.397C102.185 99.6495 101.972 99.7334 101.8 99.7334L101.715 99.5637C101.845 99.5213 102.057 99.3092 102.057 99.0546C102.142 98.8009 102.185 98.2909 102.185 97.6545V96.4241C102.185 95.6605 102.142 95.0241 102.057 94.6837C101.929 94.3019 101.715 94.1331 101.46 94.1331C101.245 94.1331 101.032 94.3028 100.905 94.6837C100.735 95.2485 100.649 95.8348 100.65 96.4241V96.9333C100.65 98.0364 100.735 98.7576 100.735 99.0131C100.778 99.2667 100.99 99.5213 101.118 99.5637V99.7334H100.478C100.308 99.7334 100.052 99.6495 99.8382 99.6495H99.1554C98.943 99.6495 98.6851 99.7334 98.5154 99.7334L98.43 99.5637C98.5574 99.5408 98.6746 99.4797 98.7661 99.3888C98.8576 99.2978 98.919 99.1812 98.9421 99.0546C99.0274 98.8009 99.0701 98.1645 99.0701 97.2302V95.3644C99.0701 94.8968 99.0274 94.5574 98.9421 94.431C98.8994 94.3028 98.6851 94.1764 98.5571 94.1764V94.0482C98.8994 94.0482 99.2399 93.921 99.5821 93.837C99.9226 93.7946 100.308 93.6673 100.563 93.5824V94.5149ZM110.038 95.1089C110.162 94.9395 110.263 94.7539 110.336 94.5574C110.379 94.3028 110.464 94.0058 110.464 93.6664C110.464 93.4118 110.379 93.0724 110.336 92.9451C110.208 92.7754 110.038 92.6057 109.908 92.6057C109.78 92.6057 109.653 92.7754 109.611 92.9018C109.525 93.03 109.483 93.2846 109.483 93.5391C109.483 93.7088 109.525 94.0058 109.611 94.2604C109.653 94.5149 109.866 94.8968 110.038 95.1513V95.1089ZM110.892 98.8858C110.677 98.6312 110.337 98.207 110.124 97.8242C109.867 97.4424 109.484 96.9342 109.227 96.4666C109.184 96.5947 109.099 96.7211 109.099 96.8484C109.099 96.9766 109.056 97.1887 109.056 97.316C109.056 97.8242 109.184 98.2918 109.354 98.6312C109.611 99.014 109.908 99.1819 110.208 99.1819C110.336 99.1819 110.463 99.1404 110.508 99.1404C110.578 99.1372 110.646 99.1159 110.706 99.0788C110.766 99.0416 110.814 98.9897 110.848 98.9282L110.892 98.8858ZM110.933 95.8735V95.7038H112.896C112.896 96.0856 112.768 96.4675 112.684 96.8493C112.554 97.2311 112.384 97.6978 112.214 98.0806C112.47 98.5049 112.811 98.8867 113.024 99.014C113.239 99.1828 113.495 99.3958 113.751 99.3958V99.6504H111.446L111.189 99.3101C110.934 99.4382 110.721 99.6504 110.464 99.7343C110.209 99.7777 109.867 99.8625 109.526 99.8625C108.971 99.8625 108.501 99.6513 108.118 99.311C107.754 98.9014 107.556 98.3717 107.563 97.8251C107.563 97.4433 107.691 97.0614 107.904 96.8069C108.032 96.4675 108.459 96.129 108.843 95.8744C108.703 95.6468 108.588 95.4046 108.501 95.1522C108.459 94.8977 108.373 94.5158 108.373 94.2613C108.373 93.6673 108.586 93.1582 108.801 92.7754C109.099 92.3512 109.526 92.1824 109.994 92.1824C110.379 92.1824 110.848 92.3521 111.061 92.6066C111.404 92.9027 111.573 93.3279 111.573 93.7946C111.573 94.134 111.445 94.431 111.276 94.6846C111.061 94.9392 110.721 95.3644 110.251 95.6189C110.251 95.6189 110.379 95.7038 110.463 95.8302C110.933 96.5947 111.445 97.1887 111.701 97.5281C111.701 97.4424 111.743 97.316 111.743 97.2302C111.743 97.1887 111.83 97.0605 111.83 96.9766C111.83 96.722 111.743 96.425 111.616 96.2978C111.532 96.1281 111.189 95.9583 110.933 95.8735ZM118.103 99.7768V99.5646C118.275 99.4373 118.488 99.1403 118.531 98.8858C118.659 98.5464 118.743 97.8242 118.743 96.8484V93.0291C118.743 92.9009 118.658 92.7745 118.658 92.7745C118.658 92.6897 118.53 92.6048 118.53 92.6048C118.275 92.6048 117.975 92.817 117.677 93.0715C117.378 93.3261 116.994 93.7937 116.695 94.3019H116.567L116.907 92.0957H122.243L122.671 94.3019H122.499C122.158 93.7937 121.816 93.3261 121.476 93.0715C121.219 92.8179 120.878 92.6048 120.621 92.6048L120.579 92.6897C120.579 92.7745 120.493 92.9009 120.493 93.0291V96.8475C120.493 97.8233 120.579 98.5455 120.621 98.8C120.707 99.1394 120.878 99.4364 121.135 99.5637V99.7334H120.408C120.153 99.7334 119.811 99.6495 119.597 99.6495H118.787C118.53 99.6495 118.275 99.7334 118.102 99.7334V99.7768H118.103ZM125.529 95.1089C125.529 94.9392 125.572 94.8119 125.572 94.7695C125.572 94.6422 125.657 94.5149 125.657 94.4301C125.657 94.2604 125.572 94.0473 125.529 94.0049C125.401 93.8352 125.189 93.7088 125.059 93.7088V93.5806H127.15V93.7088C126.936 93.8361 126.68 94.1331 126.467 94.3876C126.337 94.6422 126.125 95.0241 125.997 95.3635L124.76 98.7585C124.332 99.9889 123.907 100.881 123.565 101.262C123.223 101.643 122.797 101.898 122.37 101.898H122.114L122.669 99.7758L122.797 99.8607C122.797 100.115 122.925 100.286 122.925 100.37C122.967 100.412 123.18 100.498 123.31 100.498C123.438 100.498 123.522 100.412 123.65 100.286C123.718 100.22 123.773 100.141 123.81 100.053C123.846 99.9656 123.865 99.8716 123.864 99.7768V99.5222C123.864 99.3949 123.693 99.1819 123.65 99.0546L122.115 94.6837C121.987 94.3877 121.902 94.1331 121.815 94.0049C121.687 93.8352 121.56 93.7088 121.432 93.7088V93.5806H124.206V93.7088C124.035 93.7937 123.865 93.9201 123.865 94.0049C123.778 94.1331 123.694 94.3019 123.694 94.4301V94.6837C123.694 94.8119 123.865 95.0241 123.865 95.1513L124.76 97.4424L125.529 95.1089ZM129.84 99.1819C130.097 99.1819 130.437 98.9282 130.651 98.5464C130.822 98.1645 130.908 97.5281 130.908 96.722C130.908 95.8311 130.822 95.1522 130.695 94.6846C130.524 94.2604 130.183 94.0058 129.841 94.0058C129.456 94.0058 129.158 94.2604 129.03 94.6431C128.816 95.1098 128.688 95.7462 128.688 96.5947C128.688 97.4424 128.816 98.1645 128.945 98.5464C129.157 98.9282 129.455 99.1819 129.84 99.1819ZM128.774 99.3101V99.5646C128.774 100.499 128.815 101.092 128.902 101.347C129.03 101.602 129.285 101.772 129.5 101.857V101.984H128.774C128.56 101.984 128.304 101.899 128.004 101.899H127.364C127.152 101.899 126.852 101.984 126.596 101.984V101.857C126.809 101.771 126.981 101.602 127.066 101.347C127.152 101.093 127.237 100.5 127.237 99.5646V95.3644C127.237 94.8968 127.152 94.5574 127.152 94.431C127.066 94.3028 126.852 94.1764 126.724 94.1764V94.0482C127.066 94.0058 127.407 93.837 127.749 93.837C128.067 93.772 128.38 93.687 128.687 93.5824V94.5158C128.815 94.1764 129.072 93.837 129.37 93.7097C129.584 93.54 129.967 93.4118 130.224 93.4118C130.56 93.4132 130.89 93.4949 131.187 93.65C131.484 93.8051 131.739 94.029 131.93 94.3028C132.315 94.8968 132.57 95.7038 132.57 96.5947C132.57 97.5281 132.315 98.2918 131.93 98.8858C131.504 99.5222 130.864 99.8616 130.224 99.8616C129.928 99.8515 129.637 99.7796 129.37 99.6504C129.157 99.5222 128.901 99.1819 128.774 98.8858V99.3101ZM134.876 95.4907H136.498C136.498 94.9392 136.411 94.4301 136.284 94.1755C136.157 93.921 135.944 93.7088 135.687 93.7088C135.432 93.7088 135.218 93.9201 135.089 94.1755C134.923 94.5943 134.836 95.0404 134.834 95.4907H134.876ZM134.833 95.9583V96.2978C134.833 97.2302 134.961 98.0373 135.218 98.504C135.431 98.9282 135.858 99.1819 136.371 99.1819C136.669 99.1819 137.054 99.0131 137.309 98.6746C137.587 98.1689 137.788 97.6254 137.907 97.0614L138.204 97.316C138.076 98.0806 137.694 98.7594 137.352 99.1404C136.882 99.5646 136.284 99.8616 135.687 99.8616C134.961 99.8616 134.321 99.5222 133.896 98.9282C133.384 98.3342 133.128 97.5281 133.128 96.5523C133.128 95.6614 133.383 94.8968 133.896 94.3028C134.406 93.7097 135.004 93.4118 135.73 93.4118C136.499 93.4118 137.097 93.6664 137.48 94.134C137.908 94.5583 138.205 95.2371 138.205 95.9583H134.833ZM138.631 99.1404L139.059 97.1887L139.187 97.316C139.315 97.9524 139.529 98.504 139.741 98.8018C139.997 99.1828 140.296 99.3958 140.594 99.3958C140.851 99.3958 141.149 99.2676 141.277 99.1413C141.491 98.9291 141.619 98.6321 141.619 98.2927C141.619 98.0382 141.534 97.8251 141.405 97.6987C141.153 97.4587 140.865 97.2583 140.552 97.1048C139.869 96.9351 139.399 96.6805 139.272 96.4259C139.059 96.1279 138.94 95.7733 138.932 95.4077C138.932 94.8137 139.102 94.3037 139.529 94.0067C139.869 93.5824 140.467 93.4127 141.107 93.4127C141.319 93.4127 141.747 93.4552 141.961 93.5409C142.259 93.6682 142.644 93.7955 142.942 93.9228L142.514 95.535H142.386C142.343 95.0268 142.131 94.5167 142.003 94.2622C141.938 94.1002 141.826 93.9613 141.682 93.8631C141.537 93.765 141.366 93.7122 141.19 93.7115C141.062 93.7115 140.85 93.8388 140.72 94.0076C140.592 94.1773 140.465 94.4328 140.465 94.6864C140.465 94.941 140.55 95.2804 140.593 95.4086C140.721 95.5359 141.063 95.7056 141.49 95.748C142.087 95.9602 142.599 96.2156 142.77 96.4693C143.025 96.7238 143.153 97.1914 143.153 97.6572C143.153 98.2936 142.898 98.8876 142.471 99.2694C142.002 99.6522 141.403 99.8634 140.677 99.8634C140.38 99.8634 139.995 99.7786 139.654 99.7352C139.269 99.5655 138.886 99.3967 138.587 99.1422H138.631V99.1404ZM145.418 95.4907H147.038C147.038 94.9392 146.995 94.4301 146.826 94.1755C146.698 93.921 146.441 93.7088 146.228 93.7088C145.973 93.7088 145.716 93.9201 145.588 94.1755C145.503 94.5149 145.376 94.9392 145.376 95.4907H145.418ZM145.375 95.9583V96.2978C145.375 97.2302 145.503 98.0373 145.715 98.504C145.972 98.9282 146.4 99.1819 146.91 99.1819C147.21 99.1819 147.593 99.0131 147.807 98.6746C148.062 98.2918 148.319 97.6978 148.445 97.0614L148.745 97.316C148.617 98.0806 148.276 98.7594 147.85 99.1404C147.465 99.5646 146.825 99.8616 146.227 99.8616C145.502 99.8616 144.862 99.5222 144.434 98.9282C143.966 98.3342 143.709 97.5281 143.709 96.5523C143.709 95.6614 143.966 94.8968 144.434 94.3028C144.905 93.7097 145.545 93.4118 146.312 93.4118C147.037 93.4118 147.635 93.6664 147.977 94.134C148.445 94.5583 148.745 95.2371 148.745 95.9583H145.375ZM151.434 96.806C151.434 97.8242 151.479 98.6303 151.521 98.8858C151.649 99.1819 151.819 99.4373 152.074 99.5646V99.7343H152.161C151.691 99.7343 151.008 99.6504 150.154 99.6504C150.026 99.5646 149.856 99.3958 149.856 99.2676C149.814 99.0555 149.728 98.6746 149.728 98.207V97.6554C149.728 97.4009 149.814 97.1887 149.814 97.1039V94.1764H149.131L149.216 93.837C149.601 93.5824 150.027 93.2855 150.369 93.03C150.752 92.6906 151.009 92.223 151.222 91.8005H151.434V93.6664H152.204L152.074 94.1755H151.434V96.806ZM154.592 96.806C154.592 97.8242 154.679 98.6303 154.722 98.8858C154.85 99.1819 155.062 99.4373 155.276 99.5646V99.7343H155.319C154.934 99.7343 154.251 99.6504 153.354 99.6504C153.226 99.5646 153.056 99.3958 153.056 99.2676C152.971 99.0555 152.971 98.6746 152.971 98.207V97.6554V94.1764H152.288L152.374 93.837C152.844 93.5824 153.226 93.2855 153.569 93.03C153.909 92.6906 154.251 92.223 154.421 91.8005H154.592V93.6664H155.404L155.276 94.1755H154.592V96.806ZM156.087 95.1513C156.087 94.6837 156.002 94.3877 155.959 94.2604C155.916 94.1331 155.702 94.0058 155.574 94.0058V93.8361C155.916 93.8361 156.257 93.7088 156.599 93.6664C156.939 93.5815 157.324 93.4543 157.665 93.4118V97.316C157.665 98.207 157.752 98.8018 157.752 99.0555C157.795 99.3101 158.007 99.5231 158.178 99.5646L158.135 99.7343H157.495C157.325 99.7343 157.069 99.6504 156.812 99.6504H156.215C155.96 99.6504 155.703 99.7343 155.532 99.7343L155.447 99.5646C155.574 99.5417 155.692 99.4806 155.783 99.3897C155.875 99.2987 155.936 99.1821 155.959 99.0555C156.002 98.8018 156.087 98.1654 156.087 97.2311V95.1513ZM156.087 91.9693C156.087 91.7996 156.13 91.5017 156.258 91.3754C156.386 91.2056 156.643 91.0784 156.812 91.0784C157.069 91.0784 157.324 91.2056 157.41 91.3329C157.538 91.5026 157.665 91.8005 157.665 92.0542C157.665 92.3087 157.537 92.5633 157.41 92.6906C157.324 92.8188 157.069 92.9451 156.812 92.9451C156.642 92.9451 156.47 92.8179 156.342 92.6906C156.182 92.5163 156.091 92.2901 156.087 92.0542V91.9693ZM160.398 94.5149C160.526 94.1755 160.783 93.8361 160.952 93.7088C161.165 93.5391 161.507 93.4109 161.848 93.4109C162.445 93.4109 162.915 93.6655 163.17 94.1331C163.383 94.5574 163.598 95.3635 163.598 96.2969V96.9333C163.598 97.9515 163.683 98.7576 163.683 99.0131C163.726 99.2667 163.938 99.5213 164.154 99.5637V99.7334H163.471C163.299 99.7334 163.043 99.6495 162.788 99.6495H162.189C161.976 99.6495 161.763 99.7334 161.593 99.7334L161.508 99.5637C161.636 99.5213 161.848 99.3092 161.848 99.0546C161.934 98.8009 161.976 98.2909 161.976 97.6545V96.4241C161.976 95.6605 161.934 95.0241 161.848 94.6837C161.72 94.3019 161.508 94.1331 161.251 94.1331C161.039 94.1331 160.823 94.3028 160.696 94.6837C160.527 95.2485 160.441 95.8348 160.441 96.4241V96.9333C160.441 98.0364 160.527 98.7576 160.527 99.0131C160.569 99.2667 160.783 99.5213 160.91 99.5637V99.7334H160.314C160.1 99.7334 159.844 99.6495 159.63 99.6495H158.947C158.734 99.6495 158.478 99.7334 158.307 99.7334L158.221 99.5637C158.349 99.541 158.466 99.4801 158.558 99.389C158.649 99.298 158.711 99.1813 158.733 99.0546C158.819 98.8009 158.861 98.1645 158.861 97.2302V95.3644C158.861 94.8968 158.819 94.5574 158.733 94.431C158.691 94.3028 158.478 94.1764 158.349 94.1764V94.0482C158.691 94.0482 159.033 93.921 159.374 93.837C159.716 93.7946 160.099 93.6673 160.399 93.5824V94.5149H160.398ZM168.249 93.7097C168.506 93.921 168.846 94.2604 168.974 94.5574C169.189 94.8968 169.274 95.2786 169.274 95.6614C169.274 96.129 169.103 96.6796 168.846 96.9766C168.591 97.4009 168.121 97.6554 167.609 97.6978C167.481 97.6978 167.183 97.7836 166.969 97.7836C166.628 97.7836 166.416 97.9109 166.416 98.0373C166.416 98.1654 166.671 98.3342 167.054 98.3342C167.439 98.3342 167.739 98.504 167.994 98.504C168.464 98.6312 168.889 98.8009 169.189 99.0546C169.401 99.3092 169.572 99.7767 169.572 100.243C169.572 100.752 169.317 101.262 168.846 101.601C168.378 101.983 167.609 102.195 166.756 102.195C165.945 102.195 165.261 101.983 164.835 101.727C164.602 101.617 164.406 101.443 164.27 101.225C164.134 101.007 164.063 100.755 164.067 100.498C164.067 100.115 164.195 99.7758 164.45 99.5637C164.75 99.394 165.09 99.181 165.561 99.1394C165.373 99.0612 165.188 98.9762 165.006 98.8849C164.878 98.7576 164.835 98.5455 164.835 98.4173C164.835 98.2061 164.878 98.0354 165.006 97.9091C165.134 97.7827 165.476 97.6545 165.817 97.5697C165.391 97.4 165.006 97.0605 164.836 96.8051C164.666 96.5514 164.537 96.0838 164.537 95.702C164.537 95.0231 164.794 94.4292 165.134 94.0464C165.519 93.6646 166.159 93.41 166.884 93.41H167.355C167.483 93.41 167.74 93.5382 167.825 93.5797C167.996 93.2828 168.165 92.9433 168.422 92.8161C168.635 92.6879 168.975 92.5615 169.275 92.5615C169.275 92.5615 169.403 92.6039 169.53 92.6039L169.19 94.1737C169.104 94.0455 168.975 93.8343 168.847 93.7919C168.719 93.6637 168.592 93.5797 168.464 93.5797H168.379L168.249 93.7097ZM165.603 100.626C165.603 100.881 165.774 101.219 165.946 101.39C166.201 101.602 166.499 101.729 166.841 101.729C167.096 101.729 167.438 101.602 167.693 101.39C167.908 101.22 168.036 100.882 168.036 100.626C168.036 100.287 167.908 99.9898 167.693 99.7777C167.438 99.5655 167.096 99.4382 166.841 99.4382C166.499 99.4382 166.201 99.5655 166.03 99.7777C165.774 99.9898 165.603 100.287 165.603 100.626ZM166.884 97.316C167.096 97.316 167.311 97.1887 167.438 96.9342C167.565 96.6796 167.693 96.1281 167.693 95.6614C167.693 95.1522 167.608 94.6431 167.481 94.3886C167.354 94.134 167.096 93.921 166.884 93.921C166.628 93.921 166.415 94.1331 166.286 94.3886C166.201 94.6431 166.158 95.1522 166.158 95.6614C166.158 96.129 166.201 96.5947 166.286 96.8484C166.416 97.103 166.628 97.316 166.884 97.316Z" fill="#BBBCBF"/>
<path fill-rule="evenodd" clip-rule="evenodd" d="M34.7538 78.6744H28.9115L26.7326 73.465H32.5286L34.7538 78.6744ZM38.3245 78.6744H36.6549L38.8338 73.465H40.5034L38.3245 78.6744ZM46.7642 78.6744H41.4776V73.465H46.7642V78.6744ZM59.8867 78.6744H49.5459C49.407 78.3052 49.3607 77.8909 49.3607 77.4296C49.3607 75.9537 49.9172 74.8479 50.9368 74.1104C51.911 73.5101 53.1629 73.1879 54.8325 73.1879C56.0382 73.1879 57.1967 73.3729 58.0782 73.7412C58.9589 74.1104 59.6543 74.6177 60.0256 75.2171C59.6543 75.7705 59.0052 76.2317 58.2634 76.4159C57.8467 75.8156 57.3365 75.3552 56.8725 75.079C56.2905 74.8125 55.6585 74.671 55.0177 74.6638C54.5075 74.6638 54.0908 74.8488 53.7658 74.9409C53.5333 75.1711 53.3481 75.4943 53.3481 75.7705C53.3481 76.0007 53.5333 76.3699 53.951 76.6C54.0899 76.6461 54.6927 76.8302 55.5743 77.0144C56.7799 77.3366 57.8467 77.6598 58.4958 77.9369C59.0061 78.1211 59.5154 78.4433 59.8867 78.6744ZM68.9283 78.6744H63.6889V73.465H68.9283V78.6744ZM76.58 78.6744H71.1082C71.4813 77.3575 72.2016 76.1635 73.1945 75.2162C74.539 73.9254 76.2086 73.187 78.2024 73.187H78.2959C80.2896 73.187 82.0981 74.0165 83.4427 75.4924C84.2665 76.4052 84.8693 77.4934 85.2049 78.6735H79.8257C79.8257 77.0595 79.6404 75.9528 79.5015 75.5845C79.27 75.0312 78.8061 74.662 78.2033 74.662C77.5078 74.662 76.9513 75.0312 76.7661 75.6306C76.7198 75.8147 76.6272 76.0918 76.6272 76.276C76.6263 76.5991 76.58 77.3836 76.58 78.6744ZM94.7567 78.6744H87.0125V73.465H88.7275L94.7567 78.6744ZM99.8109 78.6744H98.3283V73.465H99.8109V78.6744ZM107.045 78.6744H101.573C101.941 77.4744 102.575 76.3717 103.428 75.4473C104.123 74.7558 104.866 74.2025 105.653 73.8793C106.626 73.465 107.648 73.1879 108.714 73.1879C110.059 73.1879 111.357 73.6031 112.516 74.2946C113.729 75.0297 114.697 76.1042 115.299 77.3836C115.484 77.8449 115.67 78.2601 115.809 78.6744H110.384V76.6921C110.384 76.2778 110.198 75.9546 110.152 75.6775C109.966 75.0321 109.409 74.6629 108.621 74.6629C107.878 74.6629 107.277 75.0781 107.137 75.8156C107.076 76.1505 107.045 76.49 107.044 76.8302L107.045 78.6744ZM122.949 78.6744H117.617V73.465H122.949V78.6744ZM131.065 78.6744H129.58V73.465H131.065V78.6744ZM138.436 78.6744H133.15V73.465H144.233L144.651 74.94H138.436V76.4159H144.882L144.233 78.1671C143.723 78.0751 143.075 77.9369 142.378 77.9369H138.436V78.6744ZM156.892 78.6744H146.552C146.413 78.3052 146.413 77.8909 146.413 77.4296C146.413 75.9537 146.923 74.8479 147.943 74.1104C148.916 73.5101 150.17 73.1879 151.839 73.1879C153.045 73.1879 154.204 73.3729 155.084 73.7412C155.965 74.1104 156.662 74.6177 157.078 75.2171C156.662 75.7705 156.059 76.2317 155.316 76.4159C154.931 75.8634 154.423 75.4061 153.832 75.079C153.415 74.8488 152.72 74.6638 152.025 74.6638C151.469 74.6638 151.096 74.8488 150.819 74.9409C150.541 75.1711 150.309 75.4943 150.309 75.7705C150.309 76.0007 150.542 76.3699 150.912 76.6C151.096 76.6461 151.653 76.8302 152.581 77.0144C153.786 77.3366 154.808 77.6598 155.503 77.9369C156.011 78.1211 156.521 78.4433 156.892 78.6744ZM168.206 78.6744H162.921V74.94H158.654V73.465H172.427V74.94H168.207V78.6744H168.206ZM162.921 79.8272H168.206V88.4028H162.921V79.8272ZM147.109 79.8272H158.052C158.69 80.7492 159.029 81.843 159.025 82.9622C159.025 84.7144 158.422 86.1894 157.17 87.158C156.557 87.6738 155.848 88.0652 155.083 88.3098C154.249 88.5869 153.228 88.679 152.162 88.679C150.169 88.679 148.545 88.3098 147.34 87.4802C146.182 86.6967 145.579 85.59 145.579 84.3912C145.579 83.4696 146.042 82.501 146.831 81.7174C147.202 81.8095 147.665 82.0397 148.083 82.2247C148.546 82.5019 149.056 82.8702 149.381 83.1933C148.825 83.4705 148.408 83.7927 148.314 83.9308C148.176 84.1159 147.99 84.4381 147.99 84.7153C147.99 85.4067 148.362 86.0061 149.057 86.5134C149.706 86.9278 150.726 87.2509 151.885 87.2509C153.091 87.2509 154.157 87.0208 154.808 86.6985C155.085 86.5134 155.409 86.1912 155.549 85.961C155.735 85.6839 155.919 85.3616 155.919 85.0393C155.919 84.3939 155.502 83.7945 154.76 83.3793C154.343 83.1022 153.461 82.7799 152.256 82.4576C151.289 82.2281 150.343 81.9199 149.428 81.536C148.917 81.3518 148.408 81.0287 147.99 80.7524C147.618 80.4717 147.34 80.1955 147.109 79.8272ZM133.15 79.8272H138.436V86.9269H144.557V88.4028H133.15V79.8272ZM129.581 79.8272H131.066V83.4696C131.066 84.7144 130.971 85.6821 130.742 86.1433C130.323 87.065 129.674 87.7574 128.793 88.0805C127.912 88.4949 126.475 88.6799 124.621 88.6799C123.229 88.6799 122.069 88.5869 121.235 88.4028C119.751 88.0336 118.638 87.2961 118.128 86.2814C117.804 85.7741 117.618 84.8064 117.618 83.6077V79.8272H122.95V83.9769C122.95 84.6683 122.996 85.1756 123.045 85.5448C123.137 85.8671 123.321 86.1903 123.554 86.4205C124.064 86.9278 124.992 87.25 126.151 87.25C127.495 87.25 128.563 86.8357 129.118 86.0982C129.258 85.868 129.489 85.5448 129.489 85.2686C129.537 84.9455 129.583 84.347 129.583 83.6546V79.8272H129.581ZM110.43 79.8272H116.041C116.087 80.1964 116.134 80.6107 116.134 81.026C116.134 83.4696 115.207 85.5439 113.397 87.0199C114.047 87.4811 114.697 87.7574 115.392 87.7574C115.576 87.7574 115.995 87.6644 116.458 87.6192V87.5723C116.32 88.0336 116.134 88.4939 115.855 88.7711C115.206 89.4165 114.233 89.7857 113.027 89.7857C112.378 89.7857 111.775 89.7388 111.358 89.5546C110.988 89.4165 110.431 89.0933 109.874 88.679H108.947C106.954 88.679 105.191 88.0327 103.799 86.7418C103.005 86.0047 102.372 85.1123 101.942 84.1206C101.511 83.1289 101.291 82.0593 101.295 80.979C101.295 80.6098 101.295 80.1955 101.342 79.8263H107C107 80.0565 107.046 80.2876 107.046 80.5638V85.2659C107.046 85.5882 107.092 86.0034 107.23 86.2805C107.463 86.8799 107.879 87.2952 108.622 87.2952C108.389 86.926 108.251 86.5107 108.251 86.1424C108.251 85.7741 108.389 85.451 108.622 85.1747C108.874 84.9407 109.204 84.809 109.549 84.8055C109.733 84.8055 110.012 84.9437 110.29 85.0357H110.384C110.384 84.6674 110.43 82.8702 110.43 79.8272ZM98.3283 79.8272H99.8109V88.4028H97.9561L88.5441 80.3345V88.4028H87.0134V79.8272H96.0096L98.3292 81.7635V79.8272H98.3283ZM79.8257 79.8272H85.4364C85.4827 80.2415 85.529 80.7037 85.529 81.1641C85.529 82.3168 85.2975 83.5156 84.6946 84.6223C84.0812 86.0147 83.0213 87.166 81.6805 87.8964C80.5956 88.4156 79.4064 88.6834 78.2024 88.6799C77.0135 88.6828 75.8399 88.4148 74.7715 87.8964C73.4269 87.25 72.4527 86.0982 71.7573 84.6683C71.2008 83.4696 70.8757 82.1327 70.8757 80.8878V79.8272H76.5328V85.2677C76.5328 85.5448 76.6263 85.775 76.6263 86.0973C76.7189 86.4196 76.905 86.7427 77.1828 86.8808C77.4615 87.065 77.7856 87.2491 78.1107 87.2491C78.6209 87.2491 79.0376 87.065 79.2237 86.8348C79.5015 86.5116 79.6877 86.0973 79.7803 85.451C79.7803 85.2668 79.8266 83.6528 79.8266 80.6559V79.8272H79.8257ZM63.6889 79.8272H68.9283V88.4028H63.6889V79.8272ZM50.1025 79.8272H61.0461C61.6952 80.7037 62.0202 81.7635 62.0202 82.9622C62.0202 84.7144 61.4174 86.1894 60.1654 87.158C59.6089 87.6653 58.8209 88.0796 58.0791 88.3098C57.2439 88.5869 56.2706 88.679 55.1576 88.679C53.1638 88.679 51.5868 88.3098 50.3349 87.4802C49.1755 86.6967 48.5727 85.59 48.5727 84.3912C48.5727 83.4696 49.0366 82.501 49.8709 81.7174C50.196 81.8095 50.6599 82.0397 51.0766 82.2247C51.5868 82.5019 52.0045 82.8702 52.3758 83.1933C51.8193 83.4705 51.4016 83.7927 51.2627 83.9308C51.1701 84.1159 51.0312 84.4381 51.0312 84.7153C51.0312 85.4067 51.3562 86.0061 52.0054 86.5134C52.7008 86.9278 53.7676 87.2509 54.8806 87.2509C56.0863 87.2509 57.1068 87.0208 57.8485 86.6985C58.08 86.5134 58.4051 86.1912 58.5903 85.961C58.7755 85.6839 58.9144 85.3616 58.9144 85.0393C58.9144 84.3939 58.4977 83.7945 57.755 83.3793C57.3383 83.1022 56.4567 82.7799 55.2511 82.4576C54.2864 82.2206 53.3408 81.9125 52.4221 81.536C51.9119 81.3518 51.4016 81.0287 51.0312 80.7524C50.6127 80.4717 50.3349 80.1955 50.1025 79.8272ZM41.4776 79.8272H46.7642V88.4028H41.4776V79.8272ZM36.1919 79.8272H37.8152L34.2445 88.4028H32.9925L29.3764 79.8272H35.2195L35.7298 80.9799L36.1919 79.8272ZM26.6863 78.6744H4.01102C6.14364 74.6168 10.4561 71.8049 15.4177 71.8049C20.2867 71.804 24.5528 74.6168 26.6863 78.6744ZM6.56127 93.7964L26.9641 80.4266L10.2246 96.2409C11.8724 96.9129 13.6366 97.2576 15.4177 97.2555C22.4193 97.2555 28.2161 91.5378 28.2161 84.5763C28.2161 82.9162 27.8911 81.3491 27.2882 79.9193L4.05733 90.5692C4.70646 91.768 5.54172 92.8747 6.56127 93.7964ZM27.2419 79.9193L2.66554 86.3284C2.57294 85.775 2.57294 85.1756 2.57294 84.5763C2.57294 82.9162 2.85166 81.257 3.49989 79.8272H27.241L27.2419 79.9193Z" fill="#8C8C8C"/>
</svg>
