<svg width="162" height="162" viewBox="0 0 162 162" fill="none" xmlns="http://www.w3.org/2000/svg">
<path fill-rule="evenodd" clip-rule="evenodd" d="M11.2132 99.0914H4.95776L8.14723 82.5339H2.38181L3.36344 77.382H21.0253L20.0437 82.5339H14.4018L11.2132 99.0914ZM58.9233 99.0914L60.8857 89.1557C61.0084 88.1757 61.0084 87.1941 59.7822 87.1941C59.1696 87.1941 58.556 87.5622 58.0652 88.0522C57.6971 88.4203 57.5744 89.0338 57.4525 89.5246L55.6128 99.0914H49.481L53.7739 76.0322H60.0285L58.3115 85.109C59.7831 83.6365 61.3774 82.9011 63.2171 82.9011C64.8114 82.9011 66.4057 83.2693 67.0193 84.6182C67.6319 85.9671 67.2647 87.5614 67.0193 89.1549L65.0568 99.0905H58.9233V99.0914ZM76.707 83.1465L76.2171 85.3544H76.3398C77.4433 83.6374 79.4057 82.902 81.3681 82.902C82.8389 82.902 84.4349 83.2701 85.1703 84.4955C85.9057 85.8444 85.5384 87.5614 85.293 89.2784L83.3297 99.0914H77.1978L79.0376 89.4019C79.283 88.4203 79.5276 87.0714 78.1795 87.0714C76.4625 87.0714 75.9716 88.5439 75.7271 89.8928L74.0101 99.0914H67.7555L70.9441 83.1457H76.707V83.1465ZM92.1611 99.0914H86.0284L89.0951 83.1465H95.3505L92.1611 99.0914ZM142.202 98.9687H136.069L140.117 77.7501H146.371L142.202 98.9687ZM114.36 86.4587C115.342 84.2509 116.813 82.6557 119.267 82.902H120.002L119.021 88.4203C118.653 88.2976 118.163 88.2976 117.795 88.2976C116.813 88.2976 115.71 88.5439 115.096 89.4019C114.483 90.1373 114.238 91.2417 114.114 92.1006L112.766 99.0914H106.633L109.699 83.1457H114.971L114.36 86.4587ZM136.314 91.2417C135.456 96.1465 130.795 99.4586 125.889 99.4586C120.984 99.4586 117.672 96.1465 118.653 91.2417C119.635 86.0906 124.172 82.6549 129.202 82.6549C134.229 82.6557 137.419 86.0915 136.314 91.2417ZM125.398 90.9954C124.54 95.2875 125.521 95.6573 126.626 95.6573C127.729 95.6573 128.834 95.2884 129.692 90.9954C130.06 89.4019 130.55 86.7033 128.343 86.7033C126.259 86.7033 125.644 89.4019 125.398 90.9954ZM90.1978 77.7501L89.3397 82.0431H95.4724L96.3305 77.7501H90.1978ZM105.653 94.553H105.162C104.917 94.6757 104.794 94.6757 104.548 94.6757C103.813 94.6757 103.568 94.4295 103.446 94.0622C103.446 93.6941 103.568 93.2041 103.69 92.5914L104.181 89.8928L104.672 87.1941H107.126L107.739 83.1465H105.531L106.512 77.8728H103.446L100.381 77.7501L99.2779 83.1457H96.9474L96.5793 85.109L96.0884 87.1933H98.5408L97.9282 90.1365L97.4373 93.0797C97.1911 93.9378 97.0692 94.7967 97.0692 95.5338C97.0692 96.6364 97.3138 97.2508 97.6819 97.6181C98.1727 98.2316 98.54 98.7207 99.3989 99.0905C100.503 99.4586 101.607 99.3351 101.974 99.3351H102.956L103.691 99.2124L104.305 98.9678L104.795 98.8451L105.653 94.553Z" fill="#979797"/>
<path fill-rule="evenodd" clip-rule="evenodd" d="M128.956 86.5806L132.144 71.9855L131.653 72.1082L107.246 76.892V77.0138L129.569 74.806L127.729 86.5806H128.956ZM124.663 106.941L127.117 96.8836L126.012 96.5146L124.418 106.941H124.663ZM22.0061 89.2792C22.2515 87.8085 23.1096 86.5806 24.7039 86.5806C26.5436 86.5806 26.7891 87.6849 26.4209 89.2792H22.0061ZM25.8083 93.6941C25.3174 95.043 24.7048 95.4111 23.2331 95.4111C21.3934 95.4111 20.9026 94.1849 21.2707 92.3452H32.0645L32.1872 91.6098C33.2907 86.336 30.7156 82.902 25.4418 82.902C23.1121 82.902 20.5362 83.7601 18.5737 85.3544C16.8567 86.9479 15.5078 89.1557 15.1397 91.3635C14.7716 93.6941 15.1397 96.0255 16.6113 97.3744C18.3283 99.0914 20.2908 99.336 22.4986 99.4587C26.2999 99.4587 30.1021 97.4954 31.8199 93.6941H25.8083ZM49.112 92.836C47.7631 97.0054 44.3291 99.4595 40.2815 99.4595C37.951 99.4595 36.1112 98.846 34.885 97.2517C33.7815 95.7792 33.2907 93.8176 33.6588 91.2425C34.3951 86.4596 38.5653 82.902 43.471 82.902C47.3958 82.902 50.0945 85.6006 49.8491 89.5255H44.2072C44.2072 88.4212 44.2072 87.1949 42.7356 87.1949C40.8959 87.1949 40.2832 89.7701 40.0378 91.1198C39.7924 92.7133 39.3024 95.0447 41.3867 95.0447C42.7356 95.0447 43.3491 94.063 43.7164 92.8368H49.112V92.836ZM131.286 71.0047L122.21 62.2969L122.088 62.4196L126.994 69.1649L62.8482 70.882V71.0047H131.286ZM135.087 68.306L136.193 55.0598H136.069L132.512 71.0047L159.618 65.9755V65.8528L135.087 68.306Z" fill="#979797"/>
</svg>
