<svg width="110" height="110" viewBox="0 0 110 110" fill="none" xmlns="http://www.w3.org/2000/svg">
<path d="M36.2389 50.5696C33.9786 50.5773 31.7583 51.1665 29.7917 52.2807C32.5605 45.1139 37.1527 38.7944 43.1139 33.9474C43.455 33.6665 43.7374 33.3212 43.945 32.9312C44.1526 32.5412 44.2814 32.1141 44.3239 31.6743C44.3665 31.2345 44.322 30.7906 44.193 30.368C44.0641 29.9454 43.8531 29.5524 43.5722 29.2113C43.2913 28.8702 42.946 28.5878 42.556 28.3802C42.166 28.1726 41.7389 28.0438 41.2991 28.0012C40.8593 27.9587 40.4154 28.0032 39.9928 28.1321C39.5702 28.2611 39.1772 28.4721 38.8361 28.753C26.6139 38.6835 21.175 52.4335 21.175 60.9585C21.1961 63.9728 22.0943 66.9157 23.7601 69.428C25.4259 71.9402 27.7872 73.9131 30.5556 75.1057C32.3472 75.9737 34.3093 76.4329 36.3 76.4502C38.0522 76.5353 39.8035 76.2638 41.4477 75.6519C43.0918 75.04 44.5946 74.1006 45.8648 72.8906C47.135 71.6806 48.1463 70.2252 48.8373 68.6127C49.5283 67.0002 49.8846 65.2642 49.8846 63.5099C49.8846 61.7556 49.5283 60.0196 48.8373 58.4071C48.1463 56.7946 47.135 55.3392 45.8648 54.1292C44.5946 52.9192 43.0918 51.9798 41.4477 51.3679C39.8035 50.756 38.0522 50.4844 36.3 50.5696H36.2389Z" fill="#E0E0E0"/>
<path d="M70.2778 50.5696C68.0171 50.5744 65.7961 51.1639 63.8305 52.2807C66.5982 45.1214 71.1784 38.8039 77.1222 33.9473C77.4942 33.6792 77.8075 33.3377 78.0426 32.944C78.2777 32.5502 78.4298 32.1125 78.4894 31.6578C78.5491 31.2031 78.515 30.741 78.3894 30.3C78.2637 29.8589 78.0492 29.4482 77.7589 29.0932C77.4686 28.7381 77.1087 28.4463 76.7014 28.2355C76.2941 28.0248 75.848 27.8996 75.3905 27.8677C74.933 27.8359 74.4738 27.898 74.0412 28.0502C73.6086 28.2024 73.2117 28.4415 72.875 28.7529C60.6528 38.6834 55.2139 52.4334 55.2139 60.9584C55.2284 63.9386 56.1004 66.8516 57.7259 69.3494C59.3514 71.8473 61.6616 73.8244 64.3806 75.0446C66.2176 75.9379 68.2351 76.3978 70.2778 76.389C72.03 76.4742 73.7813 76.2026 75.4254 75.5907C77.0696 74.9788 78.5723 74.0394 79.8426 72.8294C81.1128 71.6194 82.1241 70.1641 82.8151 68.5516C83.506 66.9391 83.8623 65.203 83.8623 63.4487C83.8623 61.6944 83.506 59.9584 82.8151 58.3459C82.1241 56.7334 81.1128 55.278 79.8426 54.068C78.5723 52.858 77.0696 51.9186 75.4254 51.3067C73.7813 50.6949 72.03 50.4233 70.2778 50.5084V50.5696Z" fill="#E0E0E0"/>
</svg>
