<svg width="140" height="20" viewBox="0 0 140 20" fill="none" xmlns="http://www.w3.org/2000/svg">
<path d="M0.9375 19V16.9492L2.58984 16.5977V8.73438L0.761719 8.38281V6.32031H6.01172V16.5977L7.65234 16.9492V19H0.9375ZM2.47266 3.63672V0.71875H6.01172V3.63672H2.47266ZM15.6797 19.2461C14.4219 19.2461 13.2773 19.1055 12.2461 18.8242C11.2148 18.543 10.1992 18.0547 9.19922 17.3594V13.2344H11.8477L12.2109 15.6602C12.5547 15.957 13.0352 16.1992 13.6523 16.3867C14.2773 16.5664 14.9531 16.6562 15.6797 16.6562C16.6094 16.6562 17.3203 16.4688 17.8125 16.0938C18.3047 15.7109 18.5508 15.1953 18.5508 14.5469C18.5508 13.9375 18.3164 13.4258 17.8477 13.0117C17.3867 12.5898 16.5742 12.1992 15.4102 11.8398C13.3867 11.2539 11.8789 10.5586 10.8867 9.75391C9.89453 8.94922 9.39844 7.84766 9.39844 6.44922C9.39844 5.52734 9.65234 4.71484 10.1602 4.01172C10.6758 3.30078 11.3867 2.74219 12.293 2.33594C13.1992 1.92969 14.2461 1.71875 15.4336 1.70312C16.7461 1.6875 17.9062 1.84375 18.9141 2.17188C19.9297 2.5 20.8047 2.95703 21.5391 3.54297V7.38672H18.9727L18.5273 5.04297C18.2305 4.85547 17.8281 4.69141 17.3203 4.55078C16.8203 4.41016 16.25 4.33984 15.6094 4.33984C14.7891 4.33984 14.1172 4.52344 13.5938 4.89062C13.0703 5.25781 12.8086 5.77344 12.8086 6.4375C12.8086 7.00781 13.0508 7.48438 13.5352 7.86719C14.0273 8.24219 14.9297 8.64062 16.2422 9.0625C18.125 9.58594 19.5508 10.2773 20.5195 11.1367C21.4961 11.9961 21.9844 13.125 21.9844 14.5234C21.9844 15.5 21.7227 16.3398 21.1992 17.043C20.6758 17.7461 19.9375 18.2891 18.9844 18.6719C18.0391 19.0547 16.9375 19.2461 15.6797 19.2461ZM27.668 19.2461C26.4102 19.2461 25.4102 18.9102 24.668 18.2383C23.9258 17.5586 23.5547 16.6367 23.5547 15.4727C23.5547 14.2852 24.0352 13.3164 24.9961 12.5664C25.9648 11.8164 27.3867 11.4414 29.2617 11.4414H30.9375V10.5039C30.9375 9.89453 30.7578 9.40234 30.3984 9.02734C30.0469 8.64453 29.5156 8.45312 28.8047 8.45312C28.4375 8.45312 28.1055 8.5 27.8086 8.59375C27.5195 8.67969 27.2578 8.80469 27.0234 8.96875L26.7539 10.6445H24.293L24.2461 7.35156C24.9102 6.97656 25.6289 6.67188 26.4023 6.4375C27.1758 6.20312 28.0391 6.08594 28.9922 6.08594C30.6484 6.08594 31.957 6.47266 32.918 7.24609C33.8789 8.01953 34.3594 9.11719 34.3594 10.5391V15.7656C34.3594 15.9375 34.3594 16.1055 34.3594 16.2695C34.3672 16.4336 34.3828 16.5977 34.4062 16.7617L35.7305 16.9492V19H31.4883C31.4023 18.7812 31.3164 18.5469 31.2305 18.2969C31.1445 18.0469 31.082 17.7969 31.043 17.5469C30.6367 18.0625 30.1562 18.4766 29.6016 18.7891C29.0547 19.0938 28.4102 19.2461 27.668 19.2461ZM28.582 16.7148C29.0586 16.7148 29.5078 16.6094 29.9297 16.3984C30.3594 16.1797 30.6953 15.8945 30.9375 15.543V13.5391H29.25C28.5 13.5391 27.9297 13.7109 27.5391 14.0547C27.1562 14.3984 26.9648 14.8125 26.9648 15.2969C26.9648 15.75 27.1055 16.1016 27.3867 16.3516C27.6758 16.5938 28.0742 16.7148 28.582 16.7148ZM41.1328 19L37.3008 8.59375L35.9297 8.38281V6.32031H42.082V8.37109L40.7461 8.60547L42.6562 14.3594L42.9492 15.3438H43.0195L43.3477 14.3594L45.4453 8.61719L43.8867 8.37109V6.32031H50.0273V8.38281L48.6211 8.61719L44.6133 19H41.1328ZM56.8711 19.2461C55.6523 19.2461 54.5898 18.9805 53.6836 18.4492C52.7852 17.9102 52.0859 17.1719 51.5859 16.2344C51.0938 15.2969 50.8477 14.2266 50.8477 13.0234V12.5547C50.8477 11.2969 51.082 10.1836 51.5508 9.21484C52.0195 8.23828 52.6797 7.47266 53.5312 6.91797C54.3906 6.35547 55.4023 6.07812 56.5664 6.08594C58.2773 6.08594 59.5859 6.58984 60.4922 7.59766C61.3984 8.59766 61.8516 10.0039 61.8516 11.8164V13.6797H54.3984L54.375 13.75C54.4375 14.5859 54.7148 15.2734 55.207 15.8125C55.6992 16.3516 56.3984 16.6211 57.3047 16.6211C57.9297 16.6211 58.5117 16.543 59.0508 16.3867C59.5977 16.2227 60.1289 15.9844 60.6445 15.6719L61.5703 17.7812C61.0469 18.2031 60.3867 18.5547 59.5898 18.8359C58.8008 19.1094 57.8945 19.2461 56.8711 19.2461ZM54.4219 11.418H58.6523V11.1133C58.6523 10.3477 58.4922 9.74219 58.1719 9.29688C57.8594 8.84375 57.3438 8.61719 56.625 8.61719C55.9375 8.61719 55.4141 8.87891 55.0547 9.40234C54.6953 9.91797 54.4727 10.5703 54.3867 11.3594L54.4219 11.418Z" fill="#2C1736"/>
<path d="M74.7305 19L70.6289 3.05078L69.3281 2.96875V1.9375H73.8984V2.96875L72.0703 3.08594L74.8008 14.1836L75.4336 16.6445H75.5039L76.2188 14.1953L80.0977 1.9375H81.4102L85.3008 14.1953L85.9922 16.7031H86.0625L86.7539 14.1953L89.4492 3.08594L87.5625 2.96875V1.9375H92.0859V2.96875L90.832 3.05078L86.8125 19H85.418L81.3047 5.88672L80.7773 4.17578H80.707L80.2031 5.88672L76.0664 19H74.7305ZM97.2422 19.2461C96.0391 19.2461 95.0977 18.9258 94.418 18.2852C93.7383 17.6445 93.3984 16.7773 93.3984 15.6836C93.3984 14.5117 93.8945 13.5664 94.8867 12.8477C95.8867 12.1211 97.2461 11.7578 98.9648 11.7578H101.59V10.3047C101.59 9.38281 101.316 8.64453 100.77 8.08984C100.223 7.53516 99.4062 7.25781 98.3203 7.25781C97.7031 7.25781 97.1484 7.35938 96.6562 7.5625C96.1719 7.75781 95.75 8.00781 95.3906 8.3125L95.2734 10.2461H94.1133V7.59766C94.6602 7.12109 95.2812 6.75 95.9766 6.48438C96.6719 6.21875 97.4609 6.08594 98.3438 6.08594C99.8359 6.08594 100.984 6.46094 101.789 7.21094C102.594 7.96094 102.996 9 102.996 10.3281V16.4453C102.996 16.6953 103.004 16.9453 103.02 17.1953C103.035 17.4375 103.062 17.6797 103.102 17.9219L104.613 17.9805V19H101.848C101.762 18.5391 101.699 18.168 101.66 17.8867C101.621 17.6055 101.598 17.2891 101.59 16.9375C101.129 17.6172 100.52 18.1719 99.7617 18.6016C99.0039 19.0312 98.1641 19.2461 97.2422 19.2461ZM97.4062 18.0156C98.2734 18.0156 99.0938 17.7891 99.8672 17.3359C100.648 16.875 101.223 16.2656 101.59 15.5078V12.8359H98.9531C97.6562 12.8359 96.6406 13.1172 95.9062 13.6797C95.1719 14.2344 94.8047 14.918 94.8047 15.7305C94.8047 16.4102 95.0352 16.9609 95.4961 17.3828C95.9648 17.8047 96.6016 18.0156 97.4062 18.0156ZM106.359 19V17.9805L108.27 17.8281V1.90234L106.359 1.75V0.71875H109.676V17.8281L111.586 17.9805V19H106.359ZM113.555 19V17.9805L115.465 17.8281V1.90234L113.555 1.75V0.71875H116.871V17.8281L118.781 17.9805V19H113.555ZM126.27 19.2461C125.184 19.2461 124.227 18.9844 123.398 18.4609C122.57 17.9297 121.922 17.1992 121.453 16.2695C120.984 15.332 120.75 14.2539 120.75 13.0352V12.3906C120.75 11.1797 120.984 10.1016 121.453 9.15625C121.922 8.20312 122.555 7.45312 123.352 6.90625C124.156 6.35938 125.051 6.08594 126.035 6.08594C127.59 6.08594 128.805 6.57812 129.68 7.5625C130.555 8.53906 130.992 9.84766 130.992 11.4883V12.6836H122.203L122.18 13.1992C122.188 14.1367 122.359 14.9727 122.695 15.707C123.039 16.4414 123.516 17.0195 124.125 17.4414C124.742 17.8633 125.457 18.0742 126.27 18.0742C127.066 18.0742 127.766 17.9492 128.367 17.6992C128.977 17.4492 129.512 17.1016 129.973 16.6562L130.57 17.6172C130.086 18.0938 129.492 18.4844 128.789 18.7891C128.086 19.0938 127.246 19.2461 126.27 19.2461ZM122.297 11.5117H129.586V11.1602C129.586 10.043 129.27 9.11719 128.637 8.38281C128.012 7.64062 127.145 7.26953 126.035 7.26953C125.363 7.26953 124.758 7.45312 124.219 7.82031C123.68 8.17969 123.238 8.67578 122.895 9.30859C122.559 9.93359 122.352 10.6445 122.273 11.4414L122.297 11.5117ZM137.754 19.2227C136.863 19.2227 136.172 18.9492 135.68 18.4023C135.188 17.8477 134.941 16.957 134.941 15.7305V7.45703H132.75V6.32031H134.941V3.0625H136.348V6.32031H139.301V7.45703H136.348V15.7305C136.348 16.5742 136.496 17.1836 136.793 17.5586C137.098 17.9258 137.5 18.1094 138 18.1094C138.258 18.1094 138.516 18.0938 138.773 18.0625C139.039 18.0312 139.309 17.9922 139.582 17.9453L139.793 18.9531C139.184 19.1328 138.504 19.2227 137.754 19.2227Z" fill="#2C1736"/>
</svg>
