<svg width="32" height="32" viewBox="0 0 32 32" fill="none" xmlns="http://www.w3.org/2000/svg">
<path d="M20 6.66666C20.7072 6.66666 21.3855 6.94761 21.8856 7.44771C22.3857 7.94781 22.6667 8.62608 22.6667 9.33333V30.6667L13.3333 26.6667L4 30.6667V9.33333C4 8.62608 4.28095 7.94781 4.78105 7.44771C5.28115 6.94761 5.95942 6.66666 6.66667 6.66666H20ZM12 1.33333H25.3333C26.0406 1.33333 26.7189 1.61428 27.219 2.11438C27.719 2.61447 28 3.29275 28 3.99999V25.3333L25.3333 24.1733V3.99999H9.33333C9.33333 3.29275 9.61428 2.61447 10.1144 2.11438C10.6145 1.61428 11.2928 1.33333 12 1.33333Z" fill="#7406AB"/>
</svg>
