<svg width="33" height="23" viewBox="0 0 33 23" fill="none" xmlns="http://www.w3.org/2000/svg">
<path d="M26.25 8.25001C26.25 7.81903 26.0788 7.40571 25.7741 7.10096C25.4693 6.79622 25.056 6.62501 24.625 6.62501H5.79125L9.52876 2.90376C9.83475 2.59777 10.0067 2.18275 10.0067 1.75001C10.0067 1.31727 9.83475 0.902255 9.52876 0.596261C9.22276 0.290268 8.80774 0.118362 8.375 0.118362C7.94227 0.118362 7.52725 0.290268 7.22126 0.596261L0.721255 7.09626C0.495774 7.32477 0.34303 7.61496 0.282297 7.93019C0.221564 8.24542 0.255564 8.57158 0.380005 8.86751C0.501913 9.16427 0.708935 9.4183 0.97498 9.59759C1.24103 9.77688 1.55419 9.87341 1.87501 9.87501H24.625C25.056 9.87501 25.4693 9.7038 25.7741 9.39906C26.0788 9.09431 26.25 8.68099 26.25 8.25001ZM32.62 14.1325C32.4981 13.8358 32.2911 13.5817 32.025 13.4024C31.759 13.2231 31.4458 13.1266 31.125 13.125H8.375C7.94403 13.125 7.5307 13.2962 7.22596 13.601C6.92121 13.9057 6.75 14.319 6.75 14.75C6.75 15.181 6.92121 15.5943 7.22596 15.8991C7.5307 16.2038 7.94403 16.375 8.375 16.375H27.2088L23.4713 20.0963C23.3189 20.2473 23.1981 20.427 23.1156 20.6251C23.0331 20.8231 22.9906 21.0355 22.9906 21.25C22.9906 21.4645 23.0331 21.6769 23.1156 21.8749C23.1981 22.073 23.3189 22.2527 23.4713 22.4038C23.6223 22.5561 23.802 22.677 24.0001 22.7595C24.1981 22.842 24.4105 22.8844 24.625 22.8844C24.8395 22.8844 25.0519 22.842 25.2499 22.7595C25.448 22.677 25.6277 22.5561 25.7788 22.4038L32.2788 15.9038C32.5042 15.6752 32.657 15.3851 32.7177 15.0698C32.7784 14.7546 32.7444 14.4284 32.62 14.1325Z" fill="#7406AB"/>
</svg>
