<svg width="32" height="32" viewBox="0 0 32 32" fill="none" xmlns="http://www.w3.org/2000/svg">
<path d="M15.875 19.5C16.8033 19.5 17.6935 19.1313 18.3499 18.4749C19.0063 17.8185 19.375 16.9283 19.375 16C19.375 15.8975 19.3703 15.7959 19.3616 15.6956L15.5707 19.4866C15.671 19.4953 15.7722 19.5 15.875 19.5ZM27.46 5.17375L26.125 3.84C26.0781 3.79315 26.0146 3.76683 25.9483 3.76683C25.882 3.76683 25.8185 3.79315 25.7716 3.84L22.3553 7.25719C20.4708 6.29406 18.3523 5.8125 16 5.8125C9.99378 5.8125 5.51253 8.94062 2.55628 15.1969C2.43745 15.4485 2.37582 15.7233 2.37582 16.0016C2.37582 16.2798 2.43745 16.5546 2.55628 16.8063C3.73753 19.2944 5.15992 21.2887 6.82347 22.7891L3.51753 26.0938C3.47068 26.1406 3.44436 26.2042 3.44436 26.2705C3.44436 26.3368 3.47068 26.4003 3.51753 26.4472L4.85159 27.7813C4.89847 27.8281 4.96203 27.8544 5.02831 27.8544C5.09458 27.8544 5.15815 27.8281 5.20503 27.7813L27.46 5.5275C27.4833 5.50428 27.5017 5.47671 27.5143 5.44636C27.5269 5.41601 27.5333 5.38348 27.5333 5.35062C27.5333 5.31777 27.5269 5.28524 27.5143 5.25489C27.5017 5.22454 27.4833 5.19696 27.46 5.17375ZM10.375 16C10.3749 15.05 10.6209 14.1162 11.089 13.2895C11.5571 12.4629 12.2313 11.7716 13.0459 11.2829C13.8606 10.7943 14.788 10.5249 15.7376 10.5012C16.6873 10.4775 17.627 10.7001 18.465 11.1475L16.9457 12.6669C16.3329 12.4707 15.6779 12.447 15.0527 12.5986C14.4274 12.7501 13.8559 13.071 13.4009 13.5259C12.946 13.9809 12.6251 14.5523 12.4736 15.1776C12.3221 15.8029 12.3457 16.4579 12.5419 17.0706L11.0225 18.59C10.5962 17.7934 10.3737 16.9036 10.375 16Z" fill="#7406AB"/>
<path d="M29.4438 15.1938C28.3438 12.8771 27.0345 10.988 25.5159 9.52657L21.0116 14.0313C21.3913 15.0238 21.4754 16.1051 21.2539 17.1444C21.0323 18.1838 20.5146 19.1367 19.7631 19.8882C19.0117 20.6396 18.0587 21.1574 17.0194 21.3789C15.9801 21.6004 14.8988 21.5163 13.9063 21.1366L10.0856 24.9572C11.8581 25.7774 13.8296 26.1875 16 26.1875C22.0063 26.1875 26.4875 23.0594 29.4438 16.8031C29.5626 16.5515 29.6242 16.2767 29.6242 15.9985C29.6242 15.7202 29.5626 15.4454 29.4438 15.1938Z" fill="#7406AB"/>
</svg>
