<svg width="24" height="24" viewBox="0 0 24 24" fill="none" xmlns="http://www.w3.org/2000/svg">
<path d="M11.9898 0.937257C5.71074 0.934718 0.625 6.01792 0.625 12.2919C0.625 17.2533 3.80645 21.4707 8.23711 23.0195C8.83379 23.1693 8.74238 22.7453 8.74238 22.4558V20.488C5.29688 20.8918 5.15723 18.6117 4.92617 18.2308C4.45898 17.4335 3.35449 17.2304 3.68457 16.8496C4.46914 16.4459 5.26895 16.9511 6.1957 18.3197C6.86602 19.3125 8.17363 19.1449 8.83633 18.9798C8.98105 18.3832 9.29082 17.85 9.71738 17.4361C6.14746 16.7962 4.65957 14.6177 4.65957 12.0279C4.65957 10.771 5.07344 9.61577 5.88594 8.68394C5.36797 7.1478 5.93418 5.83257 6.01035 5.63706C7.48555 5.50503 9.01914 6.69331 9.13848 6.78726C9.97637 6.56128 10.9336 6.44194 12.0051 6.44194C13.0816 6.44194 14.0414 6.56636 14.8869 6.79487C15.1738 6.57651 16.5957 5.55581 17.9668 5.68023C18.0404 5.87573 18.5939 7.1605 18.1064 8.67632C18.9291 9.61069 19.348 10.7761 19.348 12.0355C19.348 14.6304 17.85 16.8115 14.2699 17.4412C14.5766 17.7427 14.82 18.1024 14.9861 18.4991C15.1522 18.8958 15.2376 19.3216 15.2373 19.7517V22.6082C15.2576 22.8367 15.2373 23.0626 15.6182 23.0626C20.1148 21.5468 23.3521 17.299 23.3521 12.2945C23.3521 6.01792 18.2639 0.937257 11.9898 0.937257Z" fill="#888888"/>
</svg>
