<svg width="26" height="32" viewBox="0 0 26 32" fill="none" xmlns="http://www.w3.org/2000/svg">
<path d="M20.9167 9.66667H19.3333V6.67417C19.3333 4.99446 18.6661 3.38356 17.4784 2.19583C16.2906 1.0081 14.6797 0.340836 13 0.340836C11.3203 0.340836 9.7094 1.0081 8.52167 2.19583C7.33394 3.38356 6.66668 4.99446 6.66668 6.67417V9.66667H5.08334C3.82357 9.66667 2.61538 10.1671 1.72459 11.0579C0.833789 11.9487 0.333344 13.1569 0.333344 14.4167V27.0833C0.333344 28.3431 0.833789 29.5513 1.72459 30.4421C2.61538 31.3329 3.82357 31.8333 5.08334 31.8333H20.9167C22.1765 31.8333 23.3846 31.3329 24.2754 30.4421C25.1662 29.5513 25.6667 28.3431 25.6667 27.0833V14.4167C25.6667 13.1569 25.1662 11.9487 24.2754 11.0579C23.3846 10.1671 22.1765 9.66667 20.9167 9.66667ZM9.83334 6.67417C9.81205 5.81172 10.1333 4.97596 10.7268 4.34983C11.3203 3.7237 12.1377 3.3582 13 3.33334C13.8624 3.3582 14.6797 3.7237 15.2732 4.34983C15.8667 4.97596 16.188 5.81172 16.1667 6.67417V9.66667H9.83334V6.67417ZM13 25.5C12.0605 25.5 11.1422 25.2214 10.3611 24.6995C9.57992 24.1775 8.9711 23.4357 8.61158 22.5677C8.25207 21.6998 8.158 20.7447 8.34128 19.8233C8.52456 18.9019 8.97695 18.0555 9.64125 17.3912C10.3056 16.7269 11.1519 16.2746 12.0733 16.0913C12.9947 15.908 13.9498 16.0021 14.8178 16.3616C15.6857 16.7211 16.4276 17.3299 16.9495 18.111C17.4714 18.8922 17.75 19.8105 17.75 20.75C17.75 22.0098 17.2496 23.218 16.3588 24.1088C15.468 24.9996 14.2598 25.5 13 25.5Z" fill="#7406AB"/>
</svg>
