<svg width="26" height="26" viewBox="0 0 26 26" fill="none" xmlns="http://www.w3.org/2000/svg">
<path d="M13 0.5C6.09875 0.5 0.5 6.09625 0.5 13C0.5 19.9012 6.09875 25.5 13 25.5C19.9012 25.5 25.5 19.9012 25.5 13C25.5 6.09625 19.9012 0.5 13 0.5ZM20.3237 14.6625C20.3387 14.845 20.3387 15.0288 20.3237 15.2113C20.3237 18.0112 17.0625 20.2887 13.0363 20.2887C9.01 20.2887 5.74875 18.0138 5.74875 15.2113C5.73375 15.0286 5.73375 14.8451 5.74875 14.6625C5.48555 14.5418 5.25485 14.3601 5.07574 14.1326C4.89662 13.905 4.77422 13.6381 4.71865 13.3539C4.66308 13.0697 4.67594 12.7764 4.75616 12.4982C4.83638 12.2199 4.98166 11.9647 5.18 11.7537C5.34403 11.579 5.54089 11.4384 5.75934 11.3399C5.97779 11.2413 6.21352 11.1869 6.45304 11.1796C6.69257 11.1722 6.93119 11.2122 7.15524 11.2972C7.37929 11.3823 7.58437 11.5106 7.75875 11.675C9.1989 10.6987 10.8928 10.1643 12.6325 10.1375L13.5613 5.8V5.795C13.5842 5.69474 13.6458 5.60757 13.7326 5.55235C13.8194 5.49714 13.9244 5.47833 14.025 5.5L17.0863 6.1125C17.2363 5.85547 17.4731 5.66035 17.7541 5.56217C18.035 5.464 18.3418 5.46919 18.6193 5.57681C18.8968 5.68444 19.1268 5.88746 19.2681 6.14942C19.4094 6.41137 19.4527 6.71511 19.3902 7.00611C19.3277 7.2971 19.1635 7.55629 18.9271 7.73714C18.6907 7.918 18.3976 8.00867 18.1004 7.99288C17.8032 7.97708 17.5214 7.85587 17.3055 7.65099C17.0896 7.44611 16.9538 7.17098 16.9225 6.875L14.25 6.3125L13.4387 10.2125C15.1577 10.2496 16.8292 10.7836 18.2513 11.75C18.5053 11.5066 18.8243 11.3418 19.1699 11.2755C19.5154 11.2092 19.8728 11.2442 20.1989 11.3763C20.525 11.5084 20.806 11.7319 21.008 12.02C21.21 12.3081 21.3244 12.6484 21.3375 13C21.35 13.7037 20.9537 14.35 20.3237 14.6625Z" fill="#888888"/>
</svg>
