<svg width="26" height="26" viewBox="0 0 26 26" fill="none" xmlns="http://www.w3.org/2000/svg">
<path d="M13 0.75C6.23516 0.75 0.75 6.23516 0.75 13C0.75 19.7648 6.23516 25.25 13 25.25C19.7648 25.25 25.25 19.7648 25.25 13C25.25 6.23516 19.7648 0.75 13 0.75ZM18.8871 9.98398C18.8953 10.1125 18.8953 10.2465 18.8953 10.3777C18.8953 14.3918 15.8383 19.0156 10.252 19.0156C8.5293 19.0156 6.93242 18.5152 5.58711 17.6539C5.8332 17.6812 6.06836 17.6922 6.31992 17.6922C7.7418 17.6922 9.04883 17.2109 10.0906 16.3961C8.75625 16.3688 7.63516 15.4938 7.25234 14.2906C7.71992 14.359 8.14102 14.359 8.62227 14.2359C7.93519 14.0963 7.31763 13.7232 6.8745 13.1799C6.43137 12.6366 6.19 11.9566 6.19141 11.2555V11.2172C6.59336 11.4441 7.06641 11.5836 7.56133 11.6027C7.14527 11.3255 6.80406 10.9498 6.56796 10.5091C6.33186 10.0683 6.20815 9.57616 6.20781 9.07617C6.20781 8.51016 6.35547 7.99336 6.6207 7.54492C7.38333 8.48373 8.33497 9.25156 9.41377 9.7985C10.4926 10.3454 11.6744 10.6592 12.8824 10.7195C12.4531 8.65508 13.9953 6.98438 15.8492 6.98438C16.7242 6.98438 17.5117 7.35078 18.0668 7.94141C18.7531 7.81289 19.4094 7.55586 19.9945 7.21133C19.7676 7.91406 19.2918 8.50742 18.6602 8.88203C19.2727 8.81641 19.8633 8.64688 20.4102 8.40898C19.9973 9.01602 19.4805 9.55469 18.8871 9.98398Z" fill="#888888"/>
</svg>
