<svg width="28" height="22" viewBox="0 0 28 22" fill="none" xmlns="http://www.w3.org/2000/svg">
<path d="M26.1875 0.6875H1.8125C1.29395 0.6875 0.875 1.10645 0.875 1.625V6.3125H27.125V1.625C27.125 1.10645 26.7061 0.6875 26.1875 0.6875ZM0.875 20.375C0.875 20.8936 1.29395 21.3125 1.8125 21.3125H26.1875C26.7061 21.3125 27.125 20.8936 27.125 20.375V8.89062H0.875V20.375ZM17.8379 14.9844C17.8379 14.8555 17.9434 14.75 18.0723 14.75H22.9062C23.0352 14.75 23.1406 14.8555 23.1406 14.9844V17.0938C23.1406 17.2227 23.0352 17.3281 22.9062 17.3281H18.0723C17.9434 17.3281 17.8379 17.2227 17.8379 17.0938V14.9844Z" fill="#7406AB"/>
</svg>
